<svg width="118" height="150" viewBox="0 0 118 150" fill="none" xmlns="http://www.w3.org/2000/svg">
<g clip-path="url(#clip0_99_3234)">
<path d="M6 3C6 4.65685 4.65685 6 3 6C1.34315 6 0 4.65685 0 3C0 1.34315 1.34315 0 3 0C4.65685 0 6 1.34315 6 3Z" fill="#D9DFE8"/>
<path d="M22 3C22 4.65685 20.6569 6 19 6C17.3431 6 16 4.65685 16 3C16 1.34315 17.3431 0 19 0C20.6569 0 22 1.34315 22 3Z" fill="#D9DFE8"/>
<path d="M38 3C38 4.65685 36.6569 6 35 6C33.3431 6 32 4.65685 32 3C32 1.34315 33.3431 0 35 0C36.6569 0 38 1.34315 38 3Z" fill="#D9DFE8"/>
<path d="M54 3C54 4.65685 52.6569 6 51 6C49.3431 6 48 4.65685 48 3C48 1.34315 49.3431 0 51 0C52.6569 0 54 1.34315 54 3Z" fill="#D9DFE8"/>
<path d="M70 3C70 4.65685 68.6569 6 67 6C65.3431 6 64 4.65685 64 3C64 1.34315 65.3431 0 67 0C68.6569 0 70 1.34315 70 3Z" fill="#D9DFE8"/>
<path d="M86 3C86 4.65685 84.6569 6 83 6C81.3431 6 80 4.65685 80 3C80 1.34315 81.3431 0 83 0C84.6569 0 86 1.34315 86 3Z" fill="#D9DFE8"/>
<path d="M102 3C102 4.65685 100.657 6 99 6C97.3431 6 96 4.65685 96 3C96 1.34315 97.3431 0 99 0C100.657 0 102 1.34315 102 3Z" fill="#D9DFE8"/>
<path d="M118 3C118 4.65685 116.657 6 115 6C113.343 6 112 4.65685 112 3C112 1.34315 113.343 0 115 0C116.657 0 118 1.34315 118 3Z" fill="#D9DFE8"/>
<path d="M6 19C6 20.6569 4.65685 22 3 22C1.34315 22 0 20.6569 0 19C0 17.3431 1.34315 16 3 16C4.65685 16 6 17.3431 6 19Z" fill="#D9DFE8"/>
<path d="M22 19C22 20.6569 20.6569 22 19 22C17.3431 22 16 20.6569 16 19C16 17.3431 17.3431 16 19 16C20.6569 16 22 17.3431 22 19Z" fill="#D9DFE8"/>
<path d="M38 19C38 20.6569 36.6569 22 35 22C33.3431 22 32 20.6569 32 19C32 17.3431 33.3431 16 35 16C36.6569 16 38 17.3431 38 19Z" fill="#D9DFE8"/>
<path d="M54 19C54 20.6569 52.6569 22 51 22C49.3431 22 48 20.6569 48 19C48 17.3431 49.3431 16 51 16C52.6569 16 54 17.3431 54 19Z" fill="#D9DFE8"/>
<path d="M70 19C70 20.6569 68.6569 22 67 22C65.3431 22 64 20.6569 64 19C64 17.3431 65.3431 16 67 16C68.6569 16 70 17.3431 70 19Z" fill="#D9DFE8"/>
<path d="M86 19C86 20.6569 84.6569 22 83 22C81.3431 22 80 20.6569 80 19C80 17.3431 81.3431 16 83 16C84.6569 16 86 17.3431 86 19Z" fill="#D9DFE8"/>
<path d="M102 19C102 20.6569 100.657 22 99 22C97.3431 22 96 20.6569 96 19C96 17.3431 97.3431 16 99 16C100.657 16 102 17.3431 102 19Z" fill="#D9DFE8"/>
<path d="M118 19C118 20.6569 116.657 22 115 22C113.343 22 112 20.6569 112 19C112 17.3431 113.343 16 115 16C116.657 16 118 17.3431 118 19Z" fill="#D9DFE8"/>
<path d="M6 35C6 36.6569 4.65685 38 3 38C1.34315 38 0 36.6569 0 35C0 33.3431 1.34315 32 3 32C4.65685 32 6 33.3431 6 35Z" fill="#D9DFE8"/>
<path d="M22 35C22 36.6569 20.6569 38 19 38C17.3431 38 16 36.6569 16 35C16 33.3431 17.3431 32 19 32C20.6569 32 22 33.3431 22 35Z" fill="#D9DFE8"/>
<path d="M38 35C38 36.6569 36.6569 38 35 38C33.3431 38 32 36.6569 32 35C32 33.3431 33.3431 32 35 32C36.6569 32 38 33.3431 38 35Z" fill="#D9DFE8"/>
<path d="M54 35C54 36.6569 52.6569 38 51 38C49.3431 38 48 36.6569 48 35C48 33.3431 49.3431 32 51 32C52.6569 32 54 33.3431 54 35Z" fill="#D9DFE8"/>
<path d="M70 35C70 36.6569 68.6569 38 67 38C65.3431 38 64 36.6569 64 35C64 33.3431 65.3431 32 67 32C68.6569 32 70 33.3431 70 35Z" fill="#D9DFE8"/>
<path d="M86 35C86 36.6569 84.6569 38 83 38C81.3431 38 80 36.6569 80 35C80 33.3431 81.3431 32 83 32C84.6569 32 86 33.3431 86 35Z" fill="#D9DFE8"/>
<path d="M102 35C102 36.6569 100.657 38 99 38C97.3431 38 96 36.6569 96 35C96 33.3431 97.3431 32 99 32C100.657 32 102 33.3431 102 35Z" fill="#D9DFE8"/>
<path d="M118 35C118 36.6569 116.657 38 115 38C113.343 38 112 36.6569 112 35C112 33.3431 113.343 32 115 32C116.657 32 118 33.3431 118 35Z" fill="#D9DFE8"/>
<path d="M6 51C6 52.6569 4.65685 54 3 54C1.34315 54 0 52.6569 0 51C0 49.3431 1.34315 48 3 48C4.65685 48 6 49.3431 6 51Z" fill="#D9DFE8"/>
<path d="M22 51C22 52.6569 20.6569 54 19 54C17.3431 54 16 52.6569 16 51C16 49.3431 17.3431 48 19 48C20.6569 48 22 49.3431 22 51Z" fill="#D9DFE8"/>
<path d="M38 51C38 52.6569 36.6569 54 35 54C33.3431 54 32 52.6569 32 51C32 49.3431 33.3431 48 35 48C36.6569 48 38 49.3431 38 51Z" fill="#D9DFE8"/>
<path d="M54 51C54 52.6569 52.6569 54 51 54C49.3431 54 48 52.6569 48 51C48 49.3431 49.3431 48 51 48C52.6569 48 54 49.3431 54 51Z" fill="#D9DFE8"/>
<path d="M70 51C70 52.6569 68.6569 54 67 54C65.3431 54 64 52.6569 64 51C64 49.3431 65.3431 48 67 48C68.6569 48 70 49.3431 70 51Z" fill="#D9DFE8"/>
<path d="M86 51C86 52.6569 84.6569 54 83 54C81.3431 54 80 52.6569 80 51C80 49.3431 81.3431 48 83 48C84.6569 48 86 49.3431 86 51Z" fill="#D9DFE8"/>
<path d="M102 51C102 52.6569 100.657 54 99 54C97.3431 54 96 52.6569 96 51C96 49.3431 97.3431 48 99 48C100.657 48 102 49.3431 102 51Z" fill="#D9DFE8"/>
<path d="M118 51C118 52.6569 116.657 54 115 54C113.343 54 112 52.6569 112 51C112 49.3431 113.343 48 115 48C116.657 48 118 49.3431 118 51Z" fill="#D9DFE8"/>
<path d="M6 67C6 68.6569 4.65685 70 3 70C1.34315 70 0 68.6569 0 67C0 65.3431 1.34315 64 3 64C4.65685 64 6 65.3431 6 67Z" fill="#D9DFE8"/>
<path d="M22 67C22 68.6569 20.6569 70 19 70C17.3431 70 16 68.6569 16 67C16 65.3431 17.3431 64 19 64C20.6569 64 22 65.3431 22 67Z" fill="#D9DFE8"/>
<path d="M38 67C38 68.6569 36.6569 70 35 70C33.3431 70 32 68.6569 32 67C32 65.3431 33.3431 64 35 64C36.6569 64 38 65.3431 38 67Z" fill="#D9DFE8"/>
<path d="M54 67C54 68.6569 52.6569 70 51 70C49.3431 70 48 68.6569 48 67C48 65.3431 49.3431 64 51 64C52.6569 64 54 65.3431 54 67Z" fill="#D9DFE8"/>
<path d="M70 67C70 68.6569 68.6569 70 67 70C65.3431 70 64 68.6569 64 67C64 65.3431 65.3431 64 67 64C68.6569 64 70 65.3431 70 67Z" fill="#D9DFE8"/>
<path d="M86 67C86 68.6569 84.6569 70 83 70C81.3431 70 80 68.6569 80 67C80 65.3431 81.3431 64 83 64C84.6569 64 86 65.3431 86 67Z" fill="#D9DFE8"/>
<path d="M102 67C102 68.6569 100.657 70 99 70C97.3431 70 96 68.6569 96 67C96 65.3431 97.3431 64 99 64C100.657 64 102 65.3431 102 67Z" fill="#D9DFE8"/>
<path d="M118 67C118 68.6569 116.657 70 115 70C113.343 70 112 68.6569 112 67C112 65.3431 113.343 64 115 64C116.657 64 118 65.3431 118 67Z" fill="#D9DFE8"/>
<path d="M6 83C6 84.6569 4.65685 86 3 86C1.34315 86 0 84.6569 0 83C0 81.3431 1.34315 80 3 80C4.65685 80 6 81.3431 6 83Z" fill="#D9DFE8"/>
<path d="M22 83C22 84.6569 20.6569 86 19 86C17.3431 86 16 84.6569 16 83C16 81.3431 17.3431 80 19 80C20.6569 80 22 81.3431 22 83Z" fill="#D9DFE8"/>
<path d="M38 83C38 84.6569 36.6569 86 35 86C33.3431 86 32 84.6569 32 83C32 81.3431 33.3431 80 35 80C36.6569 80 38 81.3431 38 83Z" fill="#D9DFE8"/>
<path d="M54 83C54 84.6569 52.6569 86 51 86C49.3431 86 48 84.6569 48 83C48 81.3431 49.3431 80 51 80C52.6569 80 54 81.3431 54 83Z" fill="#D9DFE8"/>
<path d="M70 83C70 84.6569 68.6569 86 67 86C65.3431 86 64 84.6569 64 83C64 81.3431 65.3431 80 67 80C68.6569 80 70 81.3431 70 83Z" fill="#D9DFE8"/>
<path d="M86 83C86 84.6569 84.6569 86 83 86C81.3431 86 80 84.6569 80 83C80 81.3431 81.3431 80 83 80C84.6569 80 86 81.3431 86 83Z" fill="#D9DFE8"/>
<path d="M102 83C102 84.6569 100.657 86 99 86C97.3431 86 96 84.6569 96 83C96 81.3431 97.3431 80 99 80C100.657 80 102 81.3431 102 83Z" fill="#D9DFE8"/>
<path d="M118 83C118 84.6569 116.657 86 115 86C113.343 86 112 84.6569 112 83C112 81.3431 113.343 80 115 80C116.657 80 118 81.3431 118 83Z" fill="#D9DFE8"/>
<path d="M6 99C6 100.657 4.65685 102 3 102C1.34315 102 0 100.657 0 99C0 97.3431 1.34315 96 3 96C4.65685 96 6 97.3431 6 99Z" fill="#D9DFE8"/>
<path d="M22 99C22 100.657 20.6569 102 19 102C17.3431 102 16 100.657 16 99C16 97.3431 17.3431 96 19 96C20.6569 96 22 97.3431 22 99Z" fill="#D9DFE8"/>
<path d="M38 99C38 100.657 36.6569 102 35 102C33.3431 102 32 100.657 32 99C32 97.3431 33.3431 96 35 96C36.6569 96 38 97.3431 38 99Z" fill="#D9DFE8"/>
<path d="M54 99C54 100.657 52.6569 102 51 102C49.3431 102 48 100.657 48 99C48 97.3431 49.3431 96 51 96C52.6569 96 54 97.3431 54 99Z" fill="#D9DFE8"/>
<path d="M70 99C70 100.657 68.6569 102 67 102C65.3431 102 64 100.657 64 99C64 97.3431 65.3431 96 67 96C68.6569 96 70 97.3431 70 99Z" fill="#D9DFE8"/>
<path d="M86 99C86 100.657 84.6569 102 83 102C81.3431 102 80 100.657 80 99C80 97.3431 81.3431 96 83 96C84.6569 96 86 97.3431 86 99Z" fill="#D9DFE8"/>
<path d="M102 99C102 100.657 100.657 102 99 102C97.3431 102 96 100.657 96 99C96 97.3431 97.3431 96 99 96C100.657 96 102 97.3431 102 99Z" fill="#D9DFE8"/>
<path d="M118 99C118 100.657 116.657 102 115 102C113.343 102 112 100.657 112 99C112 97.3431 113.343 96 115 96C116.657 96 118 97.3431 118 99Z" fill="#D9DFE8"/>
<path d="M6 115C6 116.657 4.65685 118 3 118C1.34315 118 0 116.657 0 115C0 113.343 1.34315 112 3 112C4.65685 112 6 113.343 6 115Z" fill="#D9DFE8"/>
<path d="M22 115C22 116.657 20.6569 118 19 118C17.3431 118 16 116.657 16 115C16 113.343 17.3431 112 19 112C20.6569 112 22 113.343 22 115Z" fill="#D9DFE8"/>
<path d="M38 115C38 116.657 36.6569 118 35 118C33.3431 118 32 116.657 32 115C32 113.343 33.3431 112 35 112C36.6569 112 38 113.343 38 115Z" fill="#D9DFE8"/>
<path d="M54 115C54 116.657 52.6569 118 51 118C49.3431 118 48 116.657 48 115C48 113.343 49.3431 112 51 112C52.6569 112 54 113.343 54 115Z" fill="#D9DFE8"/>
<path d="M70 115C70 116.657 68.6569 118 67 118C65.3431 118 64 116.657 64 115C64 113.343 65.3431 112 67 112C68.6569 112 70 113.343 70 115Z" fill="#D9DFE8"/>
<path d="M86 115C86 116.657 84.6569 118 83 118C81.3431 118 80 116.657 80 115C80 113.343 81.3431 112 83 112C84.6569 112 86 113.343 86 115Z" fill="#D9DFE8"/>
<path d="M102 115C102 116.657 100.657 118 99 118C97.3431 118 96 116.657 96 115C96 113.343 97.3431 112 99 112C100.657 112 102 113.343 102 115Z" fill="#D9DFE8"/>
<path d="M118 115C118 116.657 116.657 118 115 118C113.343 118 112 116.657 112 115C112 113.343 113.343 112 115 112C116.657 112 118 113.343 118 115Z" fill="#D9DFE8"/>
<path d="M6 131C6 132.657 4.65685 134 3 134C1.34315 134 0 132.657 0 131C0 129.343 1.34315 128 3 128C4.65685 128 6 129.343 6 131Z" fill="#D9DFE8"/>
<path d="M22 131C22 132.657 20.6569 134 19 134C17.3431 134 16 132.657 16 131C16 129.343 17.3431 128 19 128C20.6569 128 22 129.343 22 131Z" fill="#D9DFE8"/>
<path d="M38 131C38 132.657 36.6569 134 35 134C33.3431 134 32 132.657 32 131C32 129.343 33.3431 128 35 128C36.6569 128 38 129.343 38 131Z" fill="#D9DFE8"/>
<path d="M54 131C54 132.657 52.6569 134 51 134C49.3431 134 48 132.657 48 131C48 129.343 49.3431 128 51 128C52.6569 128 54 129.343 54 131Z" fill="#D9DFE8"/>
<path d="M70 131C70 132.657 68.6569 134 67 134C65.3431 134 64 132.657 64 131C64 129.343 65.3431 128 67 128C68.6569 128 70 129.343 70 131Z" fill="#D9DFE8"/>
<path d="M86 131C86 132.657 84.6569 134 83 134C81.3431 134 80 132.657 80 131C80 129.343 81.3431 128 83 128C84.6569 128 86 129.343 86 131Z" fill="#D9DFE8"/>
<path d="M102 131C102 132.657 100.657 134 99 134C97.3431 134 96 132.657 96 131C96 129.343 97.3431 128 99 128C100.657 128 102 129.343 102 131Z" fill="#D9DFE8"/>
<path d="M118 131C118 132.657 116.657 134 115 134C113.343 134 112 132.657 112 131C112 129.343 113.343 128 115 128C116.657 128 118 129.343 118 131Z" fill="#D9DFE8"/>
<path d="M6 147C6 148.657 4.65685 150 3 150C1.34315 150 0 148.657 0 147C0 145.343 1.34315 144 3 144C4.65685 144 6 145.343 6 147Z" fill="#D9DFE8"/>
<path d="M22 147C22 148.657 20.6569 150 19 150C17.3431 150 16 148.657 16 147C16 145.343 17.3431 144 19 144C20.6569 144 22 145.343 22 147Z" fill="#D9DFE8"/>
<path d="M38 147C38 148.657 36.6569 150 35 150C33.3431 150 32 148.657 32 147C32 145.343 33.3431 144 35 144C36.6569 144 38 145.343 38 147Z" fill="#D9DFE8"/>
<path d="M54 147C54 148.657 52.6569 150 51 150C49.3431 150 48 148.657 48 147C48 145.343 49.3431 144 51 144C52.6569 144 54 145.343 54 147Z" fill="#D9DFE8"/>
<path d="M70 147C70 148.657 68.6569 150 67 150C65.3431 150 64 148.657 64 147C64 145.343 65.3431 144 67 144C68.6569 144 70 145.343 70 147Z" fill="#D9DFE8"/>
<path d="M86 147C86 148.657 84.6569 150 83 150C81.3431 150 80 148.657 80 147C80 145.343 81.3431 144 83 144C84.6569 144 86 145.343 86 147Z" fill="#D9DFE8"/>
<path d="M102 147C102 148.657 100.657 150 99 150C97.3431 150 96 148.657 96 147C96 145.343 97.3431 144 99 144C100.657 144 102 145.343 102 147Z" fill="#D9DFE8"/>
<path d="M118 147C118 148.657 116.657 150 115 150C113.343 150 112 148.657 112 147C112 145.343 113.343 144 115 144C116.657 144 118 145.343 118 147Z" fill="#D9DFE8"/>
</g>
<defs>
<clipPath id="clip0_99_3234">
<rect width="118" height="150" fill="white"/>
</clipPath>
</defs>
</svg>
