<svg width="136" height="24" viewBox="0 0 136 24" fill="none" xmlns="http://www.w3.org/2000/svg">
<path d="M11.7319 19.4588C11.8955 19.3548 12.1045 19.3548 12.2681 19.4588L18.399 23.3539C18.7747 23.5926 19.2516 23.2583 19.1553 22.8237L17.5106 15.4026C17.4719 15.2278 17.5296 15.0456 17.6619 14.925L23.1597 9.91157C23.4812 9.61836 23.3007 9.08281 22.8672 9.0441L15.677 8.40197C15.4898 8.38526 15.3278 8.26502 15.2576 8.09071L12.4638 1.15194C12.2956 0.734269 11.7044 0.73427 11.5362 1.15194L8.74236 8.09071C8.67218 8.26502 8.51019 8.38526 8.32302 8.40197L1.13278 9.0441C0.699346 9.08281 0.518808 9.61836 0.840348 9.91157L6.33812 14.925C6.47042 15.0456 6.52811 15.2278 6.48937 15.4026L4.8447 22.8237C4.74839 23.2583 5.22526 23.5926 5.60098 23.3539L11.7319 19.4588Z" fill="#fb923c"/>
<path d="M39.7319 19.4588C39.8955 19.3548 40.1045 19.3548 40.2681 19.4588L46.399 23.3539C46.7747 23.5926 47.2516 23.2583 47.1553 22.8237L45.5106 15.4026C45.4719 15.2278 45.5296 15.0456 45.6619 14.925L51.1597 9.91157C51.4812 9.61836 51.3007 9.08281 50.8672 9.0441L43.677 8.40197C43.4898 8.38526 43.3278 8.26502 43.2576 8.09071L40.4638 1.15194C40.2956 0.734269 39.7044 0.73427 39.5362 1.15194L36.7424 8.09071C36.6722 8.26502 36.5102 8.38526 36.323 8.40197L29.1328 9.0441C28.6993 9.08281 28.5188 9.61836 28.8403 9.91157L34.3381 14.925C34.4704 15.0456 34.5281 15.2278 34.4894 15.4026L32.8447 22.8237C32.7484 23.2583 33.2253 23.5926 33.601 23.3539L39.7319 19.4588Z" fill="#fb923c"/>
<path d="M67.7319 19.4588C67.8955 19.3548 68.1045 19.3548 68.2681 19.4588L74.399 23.3539C74.7747 23.5926 75.2516 23.2583 75.1553 22.8237L73.5106 15.4026C73.4719 15.2278 73.5296 15.0456 73.6619 14.925L79.1597 9.91157C79.4812 9.61836 79.3007 9.08281 78.8672 9.0441L71.677 8.40197C71.4898 8.38526 71.3278 8.26502 71.2576 8.09071L68.4638 1.15194C68.2956 0.734269 67.7044 0.73427 67.5362 1.15194L64.7424 8.09071C64.6722 8.26502 64.5102 8.38526 64.323 8.40197L57.1328 9.0441C56.6993 9.08281 56.5188 9.61836 56.8403 9.91157L62.3381 14.925C62.4704 15.0456 62.5281 15.2278 62.4894 15.4026L60.8447 22.8237C60.7484 23.2583 61.2253 23.5926 61.601 23.3539L67.7319 19.4588Z" fill="#fb923c"/>
<path d="M95.7319 19.4588C95.8955 19.3548 96.1045 19.3548 96.2681 19.4588L102.399 23.3539C102.775 23.5926 103.252 23.2583 103.155 22.8237L101.511 15.4026C101.472 15.2278 101.53 15.0456 101.662 14.925L107.16 9.91157C107.481 9.61836 107.301 9.08281 106.867 9.0441L99.677 8.40197C99.4898 8.38526 99.3278 8.26502 99.2576 8.09071L96.4638 1.15194C96.2956 0.734269 95.7044 0.73427 95.5362 1.15194L92.7424 8.09071C92.6722 8.26502 92.5102 8.38526 92.323 8.40197L85.1328 9.0441C84.6993 9.08281 84.5188 9.61836 84.8403 9.91157L90.3381 14.925C90.4704 15.0456 90.5281 15.2278 90.4894 15.4026L88.8447 22.8237C88.7484 23.2583 89.2253 23.5926 89.601 23.3539L95.7319 19.4588Z" fill="#fb923c"/>
<path d="M123.732 19.4588C123.896 19.3548 124.104 19.3548 124.268 19.4588L130.399 23.3539C130.775 23.5926 131.252 23.2583 131.155 22.8237L129.511 15.4026C129.472 15.2278 129.53 15.0456 129.662 14.925L135.16 9.91157C135.481 9.61836 135.301 9.08281 134.867 9.0441L127.677 8.40197C127.49 8.38526 127.328 8.26502 127.258 8.09071L124.464 1.15194C124.296 0.734269 123.704 0.73427 123.536 1.15194L120.742 8.09071C120.672 8.26502 120.51 8.38526 120.323 8.40197L113.133 9.0441C112.699 9.08281 112.519 9.61836 112.84 9.91157L118.338 14.925C118.47 15.0456 118.528 15.2278 118.489 15.4026L116.845 22.8237C116.748 23.2583 117.225 23.5926 117.601 23.3539L123.732 19.4588Z" fill="#fb923c"/>
</svg>
