<svg width="50" height="50" viewBox="0 0 50 50" fill="none" xmlns="http://www.w3.org/2000/svg">
<g filter="url(#filter0_dd_104_2426)">
<path d="M11 11H10.5C9.67157 11 9 10.3284 9 9.5C9 8.67157 9.67157 8 10.5 8H39.5C40.3284 8 41 8.67157 41 9.5C41 10.3284 40.3284 11 39.5 11H39L29 22.9249V35L21 42V22.9249L11 11Z" fill="white"/>
<path d="M18.5 42C18.5 42.9809 19.0737 43.8712 19.967 44.2766C20.8602 44.6819 21.908 44.5274 22.6463 43.8814L30.6463 36.8814C31.1888 36.4067 31.5 35.7209 31.5 35V23.8344L40.2205 13.4353C42.0858 13.096 43.5 11.4632 43.5 9.5C43.5 7.29086 41.7091 5.5 39.5 5.5H10.5C8.29086 5.5 6.5 7.29086 6.5 9.5C6.5 11.4632 7.91424 13.096 9.7795 13.4353L18.5 23.8344V42Z" stroke="white" stroke-width="5" stroke-miterlimit="10" stroke-linecap="round" stroke-linejoin="round"/>
</g>
<path d="M20.25 42C20.25 42.2943 20.4221 42.5614 20.6901 42.683C20.9581 42.8046 21.2724 42.7582 21.4939 42.5644L29.4939 35.5644C29.6566 35.422 29.75 35.2163 29.75 35V23.1978L39.3499 11.75H39.5C40.7426 11.75 41.75 10.7426 41.75 9.5C41.75 8.25736 40.7426 7.25 39.5 7.25H10.5C9.25736 7.25 8.25 8.25736 8.25 9.5C8.25 10.7426 9.25736 11.75 10.5 11.75H10.6501L20.25 23.1978V42Z" fill="#FFBF00" stroke="#374151" stroke-width="1.5" stroke-miterlimit="10" stroke-linecap="round" stroke-linejoin="round"/>
<mask id="mask0_104_2426" style="mask-type:alpha" maskUnits="userSpaceOnUse" x="9" y="8" width="32" height="34">
<path d="M11 11H10.5C9.67157 11 9 10.3284 9 9.5C9 8.67157 9.67157 8 10.5 8H39.5C40.3284 8 41 8.67157 41 9.5C41 10.3284 40.3284 11 39.5 11H39L29 22.9249V35L21 42V22.9249L11 11Z" fill="#FFBF00"/>
</mask>
<g mask="url(#mask0_104_2426)">
<g filter="url(#filter1_d_104_2426)">
<path d="M42 8H9V11H42V8Z" fill="#FFBF00"/>
</g>
</g>
<defs>
<filter id="filter0_dd_104_2426" x="3" y="2" width="44" height="47.0001" filterUnits="userSpaceOnUse" color-interpolation-filters="sRGB">
<feFlood flood-opacity="0" result="BackgroundImageFix"/>
<feColorMatrix in="SourceAlpha" type="matrix" values="0 0 0 0 0 0 0 0 0 0 0 0 0 0 0 0 0 0 127 0" result="hardAlpha"/>
<feOffset/>
<feGaussianBlur stdDeviation="0.5"/>
<feComposite in2="hardAlpha" operator="out"/>
<feColorMatrix type="matrix" values="0 0 0 0 0 0 0 0 0 0 0 0 0 0 0 0 0 0 0.25 0"/>
<feBlend mode="normal" in2="BackgroundImageFix" result="effect1_dropShadow_104_2426"/>
<feColorMatrix in="SourceAlpha" type="matrix" values="0 0 0 0 0 0 0 0 0 0 0 0 0 0 0 0 0 0 127 0" result="hardAlpha"/>
<feOffset dx="1" dy="2"/>
<feComposite in2="hardAlpha" operator="out"/>
<feColorMatrix type="matrix" values="0 0 0 0 0 0 0 0 0 0 0 0 0 0 0 0 0 0 0.25 0"/>
<feBlend mode="normal" in2="effect1_dropShadow_104_2426" result="effect2_dropShadow_104_2426"/>
<feBlend mode="normal" in="SourceGraphic" in2="effect2_dropShadow_104_2426" result="shape"/>
</filter>
<filter id="filter1_d_104_2426" x="9" y="8" width="33" height="5" filterUnits="userSpaceOnUse" color-interpolation-filters="sRGB">
<feFlood flood-opacity="0" result="BackgroundImageFix"/>
<feColorMatrix in="SourceAlpha" type="matrix" values="0 0 0 0 0 0 0 0 0 0 0 0 0 0 0 0 0 0 127 0" result="hardAlpha"/>
<feOffset dy="2"/>
<feComposite in2="hardAlpha" operator="out"/>
<feColorMatrix type="matrix" values="0 0 0 0 0 0 0 0 0 0 0 0 0 0 0 0 0 0 0.25 0"/>
<feBlend mode="normal" in2="BackgroundImageFix" result="effect1_dropShadow_104_2426"/>
<feBlend mode="normal" in="SourceGraphic" in2="effect1_dropShadow_104_2426" result="shape"/>
</filter>
</defs>
</svg>
