<svg width="50" height="50" viewBox="0 0 50 50" fill="none" xmlns="http://www.w3.org/2000/svg">
<g filter="url(#filter0_dd_104_2427)">
<path d="M34 8.64014V21.6401C39 21.6401 43 22.6401 43 23.6401V40.6401C43 41.6401 39 42.6401 34 42.6401C29.0001 42.6401 25 41.6401 25 40.6401C25 41.6401 21 42.6401 16 42.6401C11 42.6401 7 41.6401 7 40.6401L7.00004 23.6401C7.00004 22.6401 11 21.6401 16 21.6401V8.64014C16 7.64014 20.0001 6.64014 25.0001 6.64014C30 6.64014 34 7.64014 34 8.64014Z" fill="white"/>
<path d="M22.8247 43.9639C23.6179 43.7809 24.3732 43.5501 25 43.257C25.6268 43.5501 26.3821 43.7809 27.1753 43.9639C28.9782 44.38 31.3835 44.6401 34 44.6401C36.6166 44.6401 39.0218 44.38 40.8248 43.9639C41.7113 43.7593 42.5504 43.4951 43.2158 43.1509C43.5441 42.9811 43.9279 42.7425 44.2552 42.4044C44.5808 42.0681 45 41.4709 45 40.6401V23.6401C45 22.8093 44.5808 22.2121 44.2552 21.8758C43.9279 21.5377 43.5441 21.2991 43.2158 21.1292C42.5504 20.7851 41.7113 20.5208 40.8248 20.3163C39.4927 20.0089 37.8319 19.7866 36 19.6914V8.64014C36 7.80937 35.5808 7.21215 35.2552 6.87587C34.9279 6.53781 34.5441 6.29916 34.2158 6.12933C33.5504 5.78518 32.7113 5.52093 31.8248 5.31635C30.0219 4.9003 27.6166 4.64014 25.0001 4.64014C22.3835 4.64014 19.9783 4.9003 18.1753 5.31635C17.2888 5.52093 16.4497 5.78518 15.7843 6.12932C15.456 6.29916 15.0722 6.5378 14.7449 6.87586C14.4192 7.21214 14 7.80936 14 8.64014V19.6914C12.1681 19.7866 10.5073 20.0089 9.17532 20.3163C8.28881 20.5209 7.44966 20.7851 6.78432 21.1292C6.45597 21.2991 6.07217 21.5377 5.74485 21.8758C5.41924 22.2121 5.00004 22.8093 5.00004 23.6401L5 40.6401C5 41.4709 5.41921 42.0681 5.74481 42.4044C6.07214 42.7425 6.45594 42.9811 6.78429 43.151C7.44963 43.4951 8.28879 43.7593 9.1753 43.9639C10.9782 44.38 13.3835 44.6401 16 44.6401C18.6166 44.6401 21.0218 44.38 22.8247 43.9639Z" stroke="white" stroke-width="4" stroke-miterlimit="10" stroke-linecap="round" stroke-linejoin="round"/>
</g>
<mask id="mask0_104_2427" style="mask-type:alpha" maskUnits="userSpaceOnUse" x="15" y="6" width="20" height="23">
<path d="M25 28C30 28 34 27 34 26V9C34 8 30 7 25 7C20 7 16 8 16 9V26C16 27 20 28 25 28Z" fill="#D9D9D9" stroke="#40396E" stroke-width="1.5" stroke-miterlimit="10" stroke-linecap="round" stroke-linejoin="round"/>
</mask>
<g mask="url(#mask0_104_2427)">
<path d="M25 28C30 28 34 27 34 26V9C34 8 30 7 25 7C20 7 16 8 16 9V26C16 27 20 28 25 28Z" fill="#3B82F6"/>
<path opacity="0.3" d="M25 11C30 11 34 10 34 9C34 8 30 7 25 7C20 7 16 8 16 9C16 10 20 11 25 11Z" fill="white"/>
<path d="M25 28C30 28 34 27 34 26V9C34 8 30 7 25 7C20 7 16 8 16 9V26C16 27 20 28 25 28Z" stroke="#374151" stroke-width="1.5" stroke-miterlimit="10" stroke-linecap="round" stroke-linejoin="round"/>
<path opacity="0.5" d="M34 15C34 16 30 17 25 17C20 17 16 16 16 15" stroke="#374151" stroke-width="1.7" stroke-miterlimit="10" stroke-linecap="round" stroke-linejoin="round"/>
<path opacity="0.5" d="M34 21C34 22 30 23 25 23C20 23 16 22 16 21" stroke="#374151" stroke-width="1.7" stroke-miterlimit="10" stroke-linecap="round" stroke-linejoin="round"/>
</g>
<mask id="mask1_104_2427" style="mask-type:alpha" maskUnits="userSpaceOnUse" x="6" y="20" width="20" height="24">
<path d="M16 42.6401C21 42.6401 25 41.6401 25 40.6401V23.6401C25 22.6401 21 21.6401 16 21.6401C11 21.6401 7 22.6401 7 23.6401V40.6401C7 41.6401 11 42.6401 16 42.6401Z" fill="#D9D9D9" stroke="#40396E" stroke-width="1.5" stroke-miterlimit="10" stroke-linecap="round" stroke-linejoin="round"/>
</mask>
<g mask="url(#mask1_104_2427)">
<path d="M16 42.6401C21 42.6401 25 41.6401 25 40.6401V23.6401C25 22.6401 21 21.6401 16 21.6401C11 21.6401 7 22.6401 7 23.6401V40.6401C7 41.6401 11 42.6401 16 42.6401Z" fill="#3B82F6"/>
<path opacity="0.3" d="M16 25.6401C21 25.6401 25 24.6401 25 23.6401C25 22.6401 21 21.6401 16 21.6401C11 21.6401 7 22.6401 7 23.6401C7 24.6401 11 25.6401 16 25.6401Z" fill="white"/>
<path d="M16 42.6401C21 42.6401 25 41.6401 25 40.6401V23.6401C25 22.6401 21 21.6401 16 21.6401C11 21.6401 7 22.6401 7 23.6401V40.6401C7 41.6401 11 42.6401 16 42.6401Z" stroke="#374151" stroke-width="1.5" stroke-miterlimit="10" stroke-linecap="round" stroke-linejoin="round"/>
<path opacity="0.5" d="M25 29.6401C25 30.6401 21 31.6401 16 31.6401C11 31.6401 7 30.6401 7 29.6401" stroke="#374151" stroke-width="1.7" stroke-miterlimit="10" stroke-linecap="round" stroke-linejoin="round"/>
<path opacity="0.5" d="M25 35.6401C25 36.6401 21 37.6401 16 37.6401C11 37.6401 7 36.6401 7 35.6401" stroke="#374151" stroke-width="1.7" stroke-miterlimit="10" stroke-linecap="round" stroke-linejoin="round"/>
</g>
<mask id="mask2_104_2427" style="mask-type:alpha" maskUnits="userSpaceOnUse" x="24" y="21" width="20" height="23">
<path d="M34 43C39 43 43 42 43 41V24C43 23 39 22 34 22C29 22 25 23 25 24V41C25 42 29 43 34 43Z" fill="#D9D9D9" stroke="#40396E" stroke-width="1.5" stroke-miterlimit="10" stroke-linecap="round" stroke-linejoin="round"/>
</mask>
<g mask="url(#mask2_104_2427)">
<path d="M34 43C39 43 43 42 43 41V24C43 23 39 22 34 22C29 22 25 23 25 24V41C25 42 29 43 34 43Z" fill="#3B82F6"/>
<path opacity="0.3" d="M34 26C39 26 43 25 43 24C43 23 39 22 34 22C29 22 25 23 25 24C25 25 29 26 34 26Z" fill="white"/>
<path d="M34 43C39 43 43 42 43 41V24C43 23 39 22 34 22C29 22 25 23 25 24V41C25 42 29 43 34 43Z" stroke="#374151" stroke-width="1.5" stroke-miterlimit="10" stroke-linecap="round" stroke-linejoin="round"/>
<path opacity="0.5" d="M43 30C43 31 39 32 34 32C29 32 25 31 25 30" stroke="#374151" stroke-width="1.7" stroke-miterlimit="10" stroke-linecap="round" stroke-linejoin="round"/>
<path opacity="0.5" d="M43 36C43 37 39 38 34 38C29 38 25 37 25 36" stroke="#374151" stroke-width="1.7" stroke-miterlimit="10" stroke-linecap="round" stroke-linejoin="round"/>
</g>
<defs>
<filter id="filter0_dd_104_2427" x="2" y="1.64014" width="46" height="47" filterUnits="userSpaceOnUse" color-interpolation-filters="sRGB">
<feFlood flood-opacity="0" result="BackgroundImageFix"/>
<feColorMatrix in="SourceAlpha" type="matrix" values="0 0 0 0 0 0 0 0 0 0 0 0 0 0 0 0 0 0 127 0" result="hardAlpha"/>
<feOffset/>
<feGaussianBlur stdDeviation="0.5"/>
<feComposite in2="hardAlpha" operator="out"/>
<feColorMatrix type="matrix" values="0 0 0 0 0 0 0 0 0 0 0 0 0 0 0 0 0 0 0.25 0"/>
<feBlend mode="normal" in2="BackgroundImageFix" result="effect1_dropShadow_104_2427"/>
<feColorMatrix in="SourceAlpha" type="matrix" values="0 0 0 0 0 0 0 0 0 0 0 0 0 0 0 0 0 0 127 0" result="hardAlpha"/>
<feOffset dx="1" dy="2"/>
<feComposite in2="hardAlpha" operator="out"/>
<feColorMatrix type="matrix" values="0 0 0 0 0 0 0 0 0 0 0 0 0 0 0 0 0 0 0.25 0"/>
<feBlend mode="normal" in2="effect1_dropShadow_104_2427" result="effect2_dropShadow_104_2427"/>
<feBlend mode="normal" in="SourceGraphic" in2="effect2_dropShadow_104_2427" result="shape"/>
</filter>
</defs>
</svg>
