<svg width="50" height="50" viewBox="0 0 50 50" fill="none" xmlns="http://www.w3.org/2000/svg">
<g filter="url(#filter0_dd_104_2459)">
<path fill-rule="evenodd" clip-rule="evenodd" d="M26.25 8C26.25 7.58579 26.5858 7.25 27 7.25H33C33.4142 7.25 33.75 7.58579 33.75 8V41.25H36.25V16C36.25 15.5858 36.5858 15.25 37 15.25H43C43.4142 15.25 43.75 15.5858 43.75 16V41.25H45C45.4142 41.25 45.75 41.5858 45.75 42C45.75 42.4142 45.4142 42.75 45 42.75H5C4.58579 42.75 4.25 42.4142 4.25 42C4.25 41.5858 4.58579 41.25 5 41.25H6.25V16C6.25 15.5858 6.58579 15.25 7 15.25H13C13.4142 15.25 13.75 15.5858 13.75 16V41.25H16.25V23C16.25 22.5858 16.5858 22.25 17 22.25H23C23.4142 22.25 23.75 22.5858 23.75 23V41.25H26.25V8ZM27.75 41.25H32.25V8.75H27.75V41.25ZM22.25 41.25V23.75H17.75V41.25H22.25ZM12.25 41.25V16.75H7.75V41.25H12.25ZM42.25 41.25V16.75H37.75V41.25H42.25Z" fill="white"/>
<path d="M42.25 16.75V41.25H37.75V16.75H42.25Z" fill="white"/>
<path d="M32.25 41.25H27.75V8.75H32.25V41.25Z" fill="white"/>
<path d="M22.25 23.75V41.25H17.75V23.75H22.25Z" fill="white"/>
<path d="M12.25 16.75V41.25H7.75V16.75H12.25Z" fill="white"/>
<path fill-rule="evenodd" clip-rule="evenodd" d="M16.75 22.2927C16.4587 22.3956 16.25 22.6734 16.25 23V41.25H13.75V16C13.75 15.5858 13.4142 15.25 13 15.25H7C6.58579 15.25 6.25 15.5858 6.25 16V41.25H5C4.58579 41.25 4.25 41.5858 4.25 42C4.25 42.4142 4.58579 42.75 5 42.75H45C45.4142 42.75 45.75 42.4142 45.75 42C45.75 41.5858 45.4142 41.25 45 41.25H43.75V16C43.75 15.5858 43.4142 15.25 43 15.25H37C36.9123 15.25 36.8282 15.265 36.75 15.2927C36.4587 15.3956 36.25 15.6734 36.25 16V41.25H33.75V8C33.75 7.58579 33.4142 7.25 33 7.25H27C26.5858 7.25 26.25 7.58579 26.25 8V41.25H23.75V23C23.75 22.6734 23.5413 22.3956 23.25 22.2927C23.1718 22.265 23.0877 22.25 23 22.25H17C16.9123 22.25 16.8282 22.265 16.75 22.2927ZM16.75 19.2582C16.8326 19.2528 16.916 19.25 17 19.25H23C23.084 19.25 23.1674 19.2528 23.25 19.2582V8C23.25 5.92893 24.9289 4.25 27 4.25H33C35.0711 4.25 36.75 5.92893 36.75 8V12.2582C36.8326 12.2528 36.916 12.25 37 12.25H43C45.0711 12.25 46.75 13.9289 46.75 16V38.6825C47.9394 39.3113 48.75 40.561 48.75 42C48.75 44.0711 47.0711 45.75 45 45.75H5C2.92894 45.75 1.25 44.0711 1.25 42C1.25 40.561 2.06055 39.3113 3.25 38.6825V16C3.25 13.9289 4.92893 12.25 7 12.25H13C15.0711 12.25 16.75 13.9289 16.75 16V19.2582Z" fill="white"/>
</g>
<path d="M13 42H7V16H13V42Z" fill="#21D4B0"/>
<path d="M23 42H17V23H23V42Z" fill="#21D4B0"/>
<path d="M33 42H27V8H33V42Z" fill="#21D4B0"/>
<path d="M43 42H37V16H43V42Z" fill="#21D4B0"/>
<path fill-rule="evenodd" clip-rule="evenodd" d="M26.25 8C26.25 7.58579 26.5858 7.25 27 7.25H33C33.4142 7.25 33.75 7.58579 33.75 8V41.25H36.25V16C36.25 15.5858 36.5858 15.25 37 15.25H43C43.4142 15.25 43.75 15.5858 43.75 16V41.25H45C45.4142 41.25 45.75 41.5858 45.75 42C45.75 42.4142 45.4142 42.75 45 42.75H5C4.58579 42.75 4.25 42.4142 4.25 42C4.25 41.5858 4.58579 41.25 5 41.25H6.25V16C6.25 15.5858 6.58579 15.25 7 15.25H13C13.4142 15.25 13.75 15.5858 13.75 16V41.25H16.25V23C16.25 22.5858 16.5858 22.25 17 22.25H23C23.4142 22.25 23.75 22.5858 23.75 23V41.25H26.25V8ZM27.75 41.25H32.25V8.75H27.75V41.25ZM22.25 41.25V23.75H17.75V41.25H22.25ZM12.25 41.25V16.75H7.75V41.25H12.25ZM42.25 41.25V16.75H37.75V41.25H42.25Z" fill="#374151"/>
<defs>
<filter id="filter0_dd_104_2459" x="0.25" y="3.25" width="49.5" height="44.5" filterUnits="userSpaceOnUse" color-interpolation-filters="sRGB">
<feFlood flood-opacity="0" result="BackgroundImageFix"/>
<feColorMatrix in="SourceAlpha" type="matrix" values="0 0 0 0 0 0 0 0 0 0 0 0 0 0 0 0 0 0 127 0" result="hardAlpha"/>
<feOffset/>
<feGaussianBlur stdDeviation="0.5"/>
<feComposite in2="hardAlpha" operator="out"/>
<feColorMatrix type="matrix" values="0 0 0 0 0 0 0 0 0 0 0 0 0 0 0 0 0 0 0.25 0"/>
<feBlend mode="normal" in2="BackgroundImageFix" result="effect1_dropShadow_104_2459"/>
<feColorMatrix in="SourceAlpha" type="matrix" values="0 0 0 0 0 0 0 0 0 0 0 0 0 0 0 0 0 0 127 0" result="hardAlpha"/>
<feOffset dx="1" dy="2"/>
<feComposite in2="hardAlpha" operator="out"/>
<feColorMatrix type="matrix" values="0 0 0 0 0 0 0 0 0 0 0 0 0 0 0 0 0 0 0.25 0"/>
<feBlend mode="normal" in2="effect1_dropShadow_104_2459" result="effect2_dropShadow_104_2459"/>
<feBlend mode="normal" in="SourceGraphic" in2="effect2_dropShadow_104_2459" result="shape"/>
</filter>
</defs>
</svg>
