<svg width="50" height="50" viewBox="0 0 50 50" fill="none" xmlns="http://www.w3.org/2000/svg">
<g filter="url(#filter0_dd_203_2627)">
<path d="M42 25C42 34.3888 34.3888 42 25 42C15.6112 42 8 34.3888 8 25C8 15.6112 15.6112 8 25 8C34.3888 8 42 15.6112 42 25Z" fill="white"/>
</g>
<g filter="url(#filter1_dd_203_2627)">
<path fill-rule="evenodd" clip-rule="evenodd" d="M46 25C46 36.598 36.598 46 25 46C13.402 46 4 36.598 4 25C4 13.402 13.402 4 25 4C36.598 4 46 13.402 46 25ZM25 42C34.3888 42 42 34.3888 42 25C42 15.6112 34.3888 8 25 8C15.6112 8 8 15.6112 8 25C8 34.3888 15.6112 42 25 42Z" fill="white"/>
</g>
<path d="M42 25C42 34.3888 34.3888 42 25 42C15.6112 42 8 34.3888 8 25C8 15.6112 15.6112 8 25 8C34.3888 8 42 15.6112 42 25Z" fill="#D2D5DA"/>
<path fill-rule="evenodd" clip-rule="evenodd" d="M25 8.75C16.0254 8.75 8.75 16.0254 8.75 25C8.75 33.9746 16.0254 41.25 25 41.25C33.9746 41.25 41.25 33.9746 41.25 25C41.25 16.0254 33.9746 8.75 25 8.75ZM7.25 25C7.25 15.1969 15.1969 7.25 25 7.25C34.8031 7.25 42.75 15.1969 42.75 25C42.75 34.8031 34.8031 42.75 25 42.75C15.1969 42.75 7.25 34.8031 7.25 25Z" fill="#374151"/>
<path d="M19.5 25C19.5 26.3807 18.3807 27.5 17 27.5C15.6193 27.5 14.5 26.3807 14.5 25C14.5 23.6193 15.6193 22.5 17 22.5C18.3807 22.5 19.5 23.6193 19.5 25Z" fill="#374151"/>
<path d="M27.5 25C27.5 26.3807 26.3807 27.5 25 27.5C23.6193 27.5 22.5 26.3807 22.5 25C22.5 23.6193 23.6193 22.5 25 22.5C26.3807 22.5 27.5 23.6193 27.5 25Z" fill="#374151"/>
<path d="M35.5 25C35.5 26.3807 34.3807 27.5 33 27.5C31.6193 27.5 30.5 26.3807 30.5 25C30.5 23.6193 31.6193 22.5 33 22.5C34.3807 22.5 35.5 23.6193 35.5 25Z" fill="#374151"/>
<defs>
<filter id="filter0_dd_203_2627" x="7" y="7" width="36" height="37" filterUnits="userSpaceOnUse" color-interpolation-filters="sRGB">
<feFlood flood-opacity="0" result="BackgroundImageFix"/>
<feColorMatrix in="SourceAlpha" type="matrix" values="0 0 0 0 0 0 0 0 0 0 0 0 0 0 0 0 0 0 127 0" result="hardAlpha"/>
<feOffset/>
<feGaussianBlur stdDeviation="0.5"/>
<feComposite in2="hardAlpha" operator="out"/>
<feColorMatrix type="matrix" values="0 0 0 0 0 0 0 0 0 0 0 0 0 0 0 0 0 0 0.25 0"/>
<feBlend mode="normal" in2="BackgroundImageFix" result="effect1_dropShadow_203_2627"/>
<feColorMatrix in="SourceAlpha" type="matrix" values="0 0 0 0 0 0 0 0 0 0 0 0 0 0 0 0 0 0 127 0" result="hardAlpha"/>
<feOffset dx="1" dy="2"/>
<feComposite in2="hardAlpha" operator="out"/>
<feColorMatrix type="matrix" values="0 0 0 0 0 0 0 0 0 0 0 0 0 0 0 0 0 0 0.25 0"/>
<feBlend mode="normal" in2="effect1_dropShadow_203_2627" result="effect2_dropShadow_203_2627"/>
<feBlend mode="normal" in="SourceGraphic" in2="effect2_dropShadow_203_2627" result="shape"/>
</filter>
<filter id="filter1_dd_203_2627" x="3" y="3" width="44" height="45" filterUnits="userSpaceOnUse" color-interpolation-filters="sRGB">
<feFlood flood-opacity="0" result="BackgroundImageFix"/>
<feColorMatrix in="SourceAlpha" type="matrix" values="0 0 0 0 0 0 0 0 0 0 0 0 0 0 0 0 0 0 127 0" result="hardAlpha"/>
<feOffset/>
<feGaussianBlur stdDeviation="0.5"/>
<feComposite in2="hardAlpha" operator="out"/>
<feColorMatrix type="matrix" values="0 0 0 0 0 0 0 0 0 0 0 0 0 0 0 0 0 0 0.25 0"/>
<feBlend mode="normal" in2="BackgroundImageFix" result="effect1_dropShadow_203_2627"/>
<feColorMatrix in="SourceAlpha" type="matrix" values="0 0 0 0 0 0 0 0 0 0 0 0 0 0 0 0 0 0 127 0" result="hardAlpha"/>
<feOffset dx="1" dy="2"/>
<feComposite in2="hardAlpha" operator="out"/>
<feColorMatrix type="matrix" values="0 0 0 0 0 0 0 0 0 0 0 0 0 0 0 0 0 0 0.25 0"/>
<feBlend mode="normal" in2="effect1_dropShadow_203_2627" result="effect2_dropShadow_203_2627"/>
<feBlend mode="normal" in="SourceGraphic" in2="effect2_dropShadow_203_2627" result="shape"/>
</filter>
</defs>
</svg>
