<svg width="50" height="50" viewBox="0 0 50 50" fill="none" xmlns="http://www.w3.org/2000/svg">
<g filter="url(#filter0_dd_203_2660)">
<path fill-rule="evenodd" clip-rule="evenodd" d="M22 4H10C6.68629 4 4 6.68629 4 10V28C4 28.9107 4.24349 29.7646 4.66891 30.5C4.24349 31.2354 4 32.0893 4 33V40C4 43.3137 6.68629 46 10 46H22C23.1256 46 24.1643 45.6281 25 45.0004C25.8357 45.6281 26.8744 46 28 46H40C43.3137 46 46 43.3137 46 40V22C46 21.0893 45.7565 20.2354 45.3311 19.5C45.7565 18.7646 46 17.9107 46 17V10C46 6.68629 43.3137 4 40 4H28C26.8744 4 25.8357 4.37195 25 4.99964C24.1643 4.37195 23.1256 4 22 4Z" fill="white"/>
</g>
<path d="M27 10C27 8.89543 27.8954 8 29 8H40C41.1046 8 42 8.89543 42 10V16C42 17.1046 41.1046 18 40 18H29C27.8954 18 27 17.1046 27 16V10Z" fill="#60A5FA"/>
<path fill-rule="evenodd" clip-rule="evenodd" d="M26.25 10C26.25 8.48122 27.4812 7.25 29 7.25H40C41.5188 7.25 42.75 8.48122 42.75 10V16C42.75 17.5188 41.5188 18.75 40 18.75H29C27.4812 18.75 26.25 17.5188 26.25 16V10ZM29 8.75C28.3096 8.75 27.75 9.30964 27.75 10V16C27.75 16.6904 28.3096 17.25 29 17.25H40C40.6904 17.25 41.25 16.6904 41.25 16V10C41.25 9.30964 40.6904 8.75 40 8.75H29Z" fill="#374151"/>
<path d="M8 40C8 41.1046 8.89543 42 10 42H21C22.1046 42 23 41.1046 23 40V34C23 32.8954 22.1046 32 21 32H10C8.89543 32 8 32.8954 8 34V40Z" fill="#60A5FA"/>
<path fill-rule="evenodd" clip-rule="evenodd" d="M7.25 40C7.25 41.5188 8.48122 42.75 10 42.75H21C22.5188 42.75 23.75 41.5188 23.75 40V34C23.75 32.4812 22.5188 31.25 21 31.25H10C8.48122 31.25 7.25 32.4812 7.25 34V40ZM10 41.25C9.30964 41.25 8.75 40.6904 8.75 40V34C8.75 33.3096 9.30964 32.75 10 32.75H21C21.6904 32.75 22.25 33.3096 22.25 34V40C22.25 40.6904 21.6904 41.25 21 41.25H10Z" fill="#374151"/>
<path d="M27 23C27 21.8954 27.8954 21 29 21H40C41.1046 21 42 21.8954 42 23V40C42 41.1046 41.1046 42 40 42H29C27.8954 42 27 41.1046 27 40V23Z" fill="white"/>
<path d="M27 23C27 21.8954 27.8954 21 29 21H40C41.1046 21 42 21.8954 42 23V40C42 41.1046 41.1046 42 40 42H29C27.8954 42 27 41.1046 27 40V23Z" fill="#3B82F6" fill-opacity="0.4"/>
<path fill-rule="evenodd" clip-rule="evenodd" d="M26.25 23C26.25 21.4812 27.4812 20.25 29 20.25H40C41.5188 20.25 42.75 21.4812 42.75 23V40C42.75 41.5188 41.5188 42.75 40 42.75H29C27.4812 42.75 26.25 41.5188 26.25 40V23ZM29 21.75C28.3096 21.75 27.75 22.3096 27.75 23V40C27.75 40.6904 28.3096 41.25 29 41.25H40C40.6904 41.25 41.25 40.6904 41.25 40V23C41.25 22.3096 40.6904 21.75 40 21.75H29Z" fill="#374151"/>
<path d="M8 27C8 28.1046 8.89543 29 10 29H21C22.1046 29 23 28.1046 23 27V10C23 8.89543 22.1046 8 21 8H10C8.89543 8 8 8.89543 8 10V27Z" fill="white"/>
<path d="M8 27C8 28.1046 8.89543 29 10 29H21C22.1046 29 23 28.1046 23 27V10C23 8.89543 22.1046 8 21 8H10C8.89543 8 8 8.89543 8 10V27Z" fill="#3B82F6" fill-opacity="0.4"/>
<path fill-rule="evenodd" clip-rule="evenodd" d="M7.25 27C7.25 28.5188 8.48122 29.75 10 29.75H21C22.5188 29.75 23.75 28.5188 23.75 27V10C23.75 8.48122 22.5188 7.25 21 7.25H10C8.48122 7.25 7.25 8.48122 7.25 10V27ZM10 28.25C9.30964 28.25 8.75 27.6904 8.75 27V10C8.75 9.30964 9.30964 8.75 10 8.75H21C21.6904 8.75 22.25 9.30964 22.25 10V27C22.25 27.6904 21.6904 28.25 21 28.25H10Z" fill="#374151"/>
<defs>
<filter id="filter0_dd_203_2660" x="3" y="3" width="44" height="45" filterUnits="userSpaceOnUse" color-interpolation-filters="sRGB">
<feFlood flood-opacity="0" result="BackgroundImageFix"/>
<feColorMatrix in="SourceAlpha" type="matrix" values="0 0 0 0 0 0 0 0 0 0 0 0 0 0 0 0 0 0 127 0" result="hardAlpha"/>
<feOffset/>
<feGaussianBlur stdDeviation="0.5"/>
<feComposite in2="hardAlpha" operator="out"/>
<feColorMatrix type="matrix" values="0 0 0 0 0 0 0 0 0 0 0 0 0 0 0 0 0 0 0.25 0"/>
<feBlend mode="normal" in2="BackgroundImageFix" result="effect1_dropShadow_203_2660"/>
<feColorMatrix in="SourceAlpha" type="matrix" values="0 0 0 0 0 0 0 0 0 0 0 0 0 0 0 0 0 0 127 0" result="hardAlpha"/>
<feOffset dx="1" dy="2"/>
<feComposite in2="hardAlpha" operator="out"/>
<feColorMatrix type="matrix" values="0 0 0 0 0 0 0 0 0 0 0 0 0 0 0 0 0 0 0.25 0"/>
<feBlend mode="normal" in2="effect1_dropShadow_203_2660" result="effect2_dropShadow_203_2660"/>
<feBlend mode="normal" in="SourceGraphic" in2="effect2_dropShadow_203_2660" result="shape"/>
</filter>
</defs>
</svg>
