<svg width="40" height="40" viewBox="0 0 40 40" fill="none" xmlns="http://www.w3.org/2000/svg">
<g clip-path="url(#clip0_110_2733)">
<g filter="url(#filter0_dd_110_2733)">
<path d="M3.00002 36.4001C1.56642 36.4001 0.400024 35.2337 0.400024 33.8001V32.2001C0.400024 29.1789 2.13362 26.6077 4.81962 25.6389L7.75162 24.4841C7.23602 23.6441 6.91762 22.8249 6.72122 22.1193C6.23642 21.8869 5.79842 21.5545 5.42922 21.1321C4.02922 19.5289 3.52722 16.6469 5.01202 14.9113C5.14162 14.7593 5.28442 14.6197 5.43802 14.4941C5.42842 14.3017 5.42362 14.1101 5.42362 13.9145C5.42362 8.93653 8.94242 5.12333 13.7964 4.83373C14.088 4.80773 14.3772 4.79413 14.656 4.79413C16.1616 4.79413 17.2472 5.16733 18.026 5.66773C19.2364 4.13253 20.8888 3.23973 22.0764 2.92213C22.7792 2.73413 24.0324 2.39893 25.4104 2.39893C26.1144 2.39893 26.7756 2.48773 27.3768 2.66253C28.89 3.01613 30.2616 3.74373 31.3604 4.77493C32.9624 5.88573 33.8732 7.60013 34.0028 9.75173C34.1044 10.3301 34.156 10.9225 34.156 11.5145C34.156 11.7085 34.1512 11.8985 34.1416 12.0897C34.2976 12.2169 34.442 12.3581 34.574 12.5117C36.058 14.2473 35.5564 17.1293 34.1564 18.7321C33.7856 19.1569 33.3452 19.4905 32.8572 19.7229C32.6604 20.4277 32.3424 21.2461 31.828 22.0845L34.7792 23.2469C37.5332 24.2377 39.2 26.8725 39.2 29.8141V31.4001C39.2 32.8337 38.214 34.0001 36.7804 34.0001H28.3924C28.29 35.3409 27.1664 36.4001 25.8 36.4001H3.00002Z" fill="white"/>
</g>
<path d="M36.1839 28.5975C36.1823 28.5783 36.1791 28.5595 36.1771 28.5399C36.1675 28.4423 36.1551 28.3455 36.1387 28.2495C36.1367 28.2383 36.1339 28.2271 36.1319 28.2159C36.1131 28.1107 36.0899 28.0071 36.0631 27.9047C36.0623 27.9023 36.0615 27.8999 36.0611 27.8975C35.7211 26.6123 34.7691 25.6247 33.4743 25.1663L28.6171 23.3955V21.2023C28.6171 21.2023 30.0743 19.7567 30.1735 17.3279C30.1747 17.3275 30.1735 17.3279 30.1747 17.3275C30.4519 17.9139 31.1935 18.0171 31.7607 17.3847C32.3975 16.6751 32.8323 15.0987 32.1835 14.2699C31.7639 13.7339 31.0235 13.8743 30.8951 14.3531C31.0871 13.3455 30.9979 12.6971 30.9979 11.8871C30.9979 8.2019 28.4979 5.9751 25.2167 5.9751C21.9355 5.9751 19.4355 8.2019 19.4355 11.8871C19.4355 12.6971 19.3163 13.3483 19.5083 14.3559C19.3803 13.8771 18.6943 13.7343 18.2747 14.2703C17.6259 15.0991 17.9971 16.7131 18.6727 17.3851C19.3051 18.0143 19.9727 17.9107 20.2503 17.3243C20.2515 17.3247 20.2503 17.3243 20.2515 17.3243C20.3599 19.7563 21.8171 21.2135 21.8171 21.2135L21.8147 22.9591C21.8143 23.2135 21.6535 23.4403 21.4131 23.5247L16.9595 25.0867C15.6647 25.5451 14.7127 26.6119 14.3727 27.8975C14.3719 27.8999 14.3711 27.9023 14.3707 27.9047C14.3439 28.0071 14.3207 28.1111 14.3019 28.2159C14.2999 28.2271 14.2971 28.2383 14.2951 28.2495C14.2787 28.3455 14.2663 28.4423 14.2567 28.5399C14.2547 28.5591 14.2515 28.5779 14.2499 28.5975C14.2403 28.7115 14.2347 28.9423 14.2347 28.9423H36.1987C36.1991 28.8263 36.1935 28.7115 36.1839 28.5975Z" fill="#FFC7A3"/>
<path opacity="0.35" d="M25.2169 22.185C27.1597 22.185 28.6169 21.2134 28.6169 21.2134C28.6169 21.2134 27.6453 23.6418 25.2169 23.6418C22.7885 23.6418 21.8169 21.2134 21.8169 21.2134C21.8169 21.2134 23.2741 22.185 25.2169 22.185Z" fill="#374151"/>
<path d="M28.4685 5.64685C26.8677 3.68125 23.7773 4.53765 22.5937 4.85405C21.3105 5.19725 16.5861 7.52085 19.1665 13.9748V13.9744C19.1713 14.0004 19.1757 14.024 19.1809 14.0508C19.2221 14.2672 19.4113 14.418 19.6241 14.418C19.6521 14.418 19.6805 14.4152 19.7089 14.41C19.8725 14.3788 19.9921 14.2596 20.0437 14.1132L20.0497 14.118C20.0497 14.118 20.4901 13.0868 20.3153 11.9424C20.3565 11.9176 20.3977 11.8988 20.4385 11.8888C20.4385 11.8888 26.2921 11.53 28.1489 8.82725C28.3245 9.39685 28.7857 10.3932 30.0025 11.8876L30.1037 12.054C29.9765 13.1648 30.4013 14.1572 30.4013 14.1572L30.4073 14.1516C30.4665 14.2784 30.5765 14.3796 30.7245 14.408C30.7529 14.4136 30.7817 14.416 30.8093 14.416C31.0217 14.416 31.2113 14.2652 31.2525 14.0488C31.2577 14.0212 31.2621 13.9968 31.2673 13.9696C31.2673 13.9696 31.5653 13.5012 31.6825 12.7108C32.2237 10.6608 32.6565 6.72445 28.4685 5.64685V5.64685Z" fill="#374151"/>
<path d="M36.2154 31.2137L36.199 28.9425C36.199 28.8265 36.1934 28.7117 36.1838 28.5977C36.1822 28.5785 36.179 28.5597 36.177 28.5405C36.1674 28.4429 36.155 28.3461 36.1386 28.2501C36.1366 28.2389 36.1342 28.2277 36.1318 28.2165C36.113 28.1113 36.0898 28.0077 36.063 27.9053C36.0622 27.9029 36.0618 27.9005 36.061 27.8981C35.721 26.6125 34.769 25.6253 33.4742 25.1669L29.7834 23.8213C29.0962 25.6693 27.3046 27.0429 25.2174 27.0429C23.1194 27.0429 21.3194 25.6597 20.6402 23.7969L16.9602 25.0877C15.6654 25.5461 14.7134 26.6129 14.3734 27.8985C14.3726 27.9009 14.3722 27.9033 14.3714 27.9057C14.3446 28.0081 14.3214 28.1121 14.3026 28.2169C14.3006 28.2281 14.2978 28.2393 14.2958 28.2505C14.2794 28.3465 14.267 28.4433 14.2574 28.5409C14.2554 28.5601 14.2522 28.5789 14.2506 28.5981C14.2442 28.6689 14.2138 30.0405 14.1166 31.2137H36.2154Z" fill="#21D4B0"/>
<path d="M25.3837 30.9975C25.3821 30.9783 25.3789 30.9595 25.3769 30.9399C25.3673 30.8423 25.3549 30.7455 25.3385 30.6495C25.3365 30.6383 25.3337 30.6271 25.3317 30.6159C25.3129 30.5107 25.2897 30.4071 25.2629 30.3047C25.2621 30.3023 25.2613 30.2999 25.2609 30.2975C24.9209 29.0123 23.9689 28.0247 22.6741 27.5663L17.8169 25.7955V23.6023C17.8169 23.6023 19.2741 22.1567 19.3733 19.7279C19.3749 19.7303 19.3765 19.7327 19.3781 19.7351C19.6581 20.3151 20.3957 20.4147 20.9609 19.7851C21.5977 19.0755 22.0325 17.4991 21.3837 16.6703C20.9641 16.1343 20.2237 16.2747 20.0953 16.7535C20.2873 15.7459 20.1981 15.0975 20.1981 14.2875C20.1981 10.6023 17.6981 8.37549 14.4169 8.37549C11.1357 8.37549 8.63574 10.6023 8.63574 14.2875C8.63574 15.0975 8.51654 15.7487 8.70854 16.7563C8.58054 16.2775 7.89454 16.1347 7.47494 16.6707C6.82614 17.4995 7.19734 19.1135 7.87294 19.7855C8.50254 20.4119 9.16734 20.3119 9.44734 19.7319C9.44854 19.7295 9.45014 19.7271 9.45214 19.7247C9.55974 22.1563 11.0169 23.6135 11.0169 23.6135L11.0141 25.7843L6.15974 27.4867C4.86494 27.9451 3.91294 29.0119 3.57294 30.2975C3.57214 30.2999 3.57134 30.3023 3.57094 30.3047C3.54414 30.4071 3.52094 30.5111 3.50214 30.6159C3.50014 30.6271 3.49734 30.6383 3.49534 30.6495C3.47894 30.7455 3.46654 30.8423 3.45694 30.9399C3.45494 30.9591 3.45174 30.9779 3.45014 30.9975C3.44054 31.1115 3.43494 31.3423 3.43494 31.3423H25.3989C25.3989 31.2263 25.3933 31.1115 25.3837 30.9975Z" fill="#FFC7A3"/>
<path opacity="0.35" d="M14.417 24.5854C16.3598 24.5854 17.817 23.6138 17.817 23.6138C17.817 23.6138 16.8454 26.0422 14.417 26.0422C11.9886 26.0422 11.017 23.6138 11.017 23.6138C11.017 23.6138 12.4742 24.5854 14.417 24.5854Z" fill="#374151"/>
<path d="M17.6706 8.05055C16.5126 6.36415 13.7466 6.75535 12.5622 7.07175C10.6138 7.60975 6.50817 10.7329 8.36657 16.3749V16.3745C8.37137 16.4005 8.37577 16.4242 8.38097 16.451C8.42217 16.6674 8.61137 16.8181 8.82417 16.8181C8.85217 16.8181 8.88057 16.8153 8.90897 16.8101C9.07257 16.7789 9.19217 16.6597 9.24377 16.5133L9.24977 16.5181C9.24977 16.5181 9.69017 15.487 9.51537 14.3426C9.55657 14.3178 9.59777 14.299 9.63857 14.289C9.63857 14.289 15.4922 13.9301 17.349 11.2273C17.5246 11.7969 17.9858 12.7933 19.2026 14.2877L19.3038 14.4541C19.1766 15.5649 19.6014 16.5574 19.6014 16.5574L19.6074 16.5518C19.6666 16.6786 19.7766 16.7797 19.9246 16.8081C19.953 16.8137 19.9818 16.8161 20.0094 16.8161C20.2218 16.8161 20.4114 16.6654 20.4526 16.449C20.4578 16.4214 20.4622 16.397 20.4674 16.3698C20.4674 16.3698 20.7078 15.8609 20.8926 15.0805C21.3742 13.0517 21.6538 9.23135 17.6706 8.05055Z" fill="#374151"/>
<path d="M25.4153 33.6136L25.3989 31.3424C25.3989 31.2264 25.3933 31.1116 25.3837 30.9976C25.3821 30.9784 25.3789 30.9596 25.3769 30.9404C25.3673 30.8428 25.3549 30.746 25.3385 30.65C25.3365 30.6388 25.3341 30.6276 25.3317 30.6164C25.3129 30.5112 25.2897 30.4076 25.2629 30.3052C25.2621 30.3028 25.2617 30.3004 25.2609 30.298C24.9209 29.0124 23.9689 28.0252 22.6741 27.5668L18.9833 26.2212C18.2961 28.0692 16.5045 29.4428 14.4173 29.4428C12.3193 29.4428 10.5193 28.0596 9.84013 26.1968L6.16013 27.4876C4.86533 27.946 3.91333 29.0128 3.57333 30.2984C3.57253 30.3008 3.57213 30.3032 3.57133 30.3056C3.54453 30.408 3.52133 30.512 3.50253 30.6168C3.50053 30.628 3.49773 30.6392 3.49573 30.6504C3.47933 30.7464 3.46693 30.8432 3.45733 30.9408C3.45533 30.96 3.45213 30.9788 3.45053 30.998C3.44413 31.0688 3.41373 32.4404 3.31653 33.6136H25.4153Z" fill="#70BFFF"/>
<path opacity="0.35" d="M26.5793 30.8968C26.5765 30.8664 26.5733 30.8388 26.5697 30.8108C26.5577 30.69 26.5413 30.5672 26.5209 30.4472C26.5185 30.4336 26.5125 30.4012 26.5097 30.388C26.4881 30.2684 26.4581 30.1328 26.4237 30.0004C26.4221 29.9944 26.4201 29.9872 26.4181 29.9804C26.2513 29.358 25.9765 28.7864 25.5993 28.2764C25.4753 28.1088 25.3393 27.9468 25.1949 27.7952C24.9073 27.4932 24.5809 27.2244 24.2237 26.9956C24.0469 26.8824 23.8601 26.7776 23.6689 26.6844C23.4777 26.5912 23.2777 26.5076 23.0749 26.4356L18.8081 24.9272V24.4392L17.8173 24.7836V25.796L22.6745 27.5668C22.8365 27.624 22.9929 27.6896 23.1433 27.7632C23.2941 27.8368 23.4385 27.918 23.5769 28.0064C23.8537 28.1836 24.1045 28.39 24.3257 28.6224C24.4361 28.7388 24.5393 28.8612 24.6345 28.99C24.9201 29.376 25.1333 29.816 25.2609 30.298C25.2617 30.3004 25.2625 30.3028 25.2629 30.3052C25.2897 30.4076 25.3129 30.5116 25.3317 30.6164C25.3337 30.6276 25.3365 30.6388 25.3385 30.65C25.3549 30.746 25.3673 30.8428 25.3769 30.9404C25.3789 30.9596 25.3821 30.9784 25.3837 30.9976C25.3897 31.0688 25.3909 31.1412 25.3933 31.2136H26.5937C26.5909 31.1116 26.5889 31.01 26.5793 30.8968V30.8968Z" fill="#374151"/>
<path d="M3.00015 32.8C2.66855 32.8 2.40015 32.5316 2.40015 32.2C2.40015 29.9904 3.59695 28.1936 5.52335 27.5112L10.3621 25.6052V24.624C8.93375 23.098 8.54055 21.4396 8.43695 20.5084C7.95375 20.5036 7.39175 20.338 6.93575 19.816C6.13775 18.9024 5.77975 17.0908 6.53215 16.2112C6.77735 15.924 7.15975 15.7248 7.58735 15.7C7.48375 15.0776 7.42415 14.5436 7.42415 13.9144C7.42415 9.79642 10.3541 6.80762 14.3905 6.80762C14.7221 6.80762 14.9905 7.07602 14.9905 7.40762C14.9905 7.73922 14.7221 8.00762 14.3905 8.00762C11.0493 8.00762 8.62415 10.4916 8.62415 13.9144C8.62415 14.7332 8.73855 15.372 8.94015 16.4308C8.98655 16.6748 8.87775 16.9224 8.66655 17.0532C8.45575 17.184 8.18535 17.1716 7.98735 17.0208C7.64735 16.7624 7.45175 16.982 7.44375 16.9912C7.19855 17.278 7.30375 18.414 7.83935 19.0268C8.20935 19.4512 8.72735 19.2736 8.78535 19.252C8.91495 19.2036 9.06455 19.1988 9.19415 19.2424C9.44735 19.3276 9.61375 19.5748 9.60255 19.8416C9.59295 20.0704 9.56015 22.1284 11.3869 23.958C11.4993 24.0704 11.5621 24.2232 11.5621 24.382V26.0144C11.5621 26.2608 11.4113 26.4824 11.1821 26.5728L5.94375 28.636C4.49055 29.15 3.60015 30.5136 3.60015 32.2C3.60015 32.5316 3.33175 32.8 3.00015 32.8V32.8Z" fill="#374151"/>
<path d="M36.6026 30.4141C36.271 30.4141 36.0026 30.1457 36.0026 29.8141C36.0026 28.1237 35.1034 26.7553 33.6566 26.2425L28.3986 24.1721C28.1694 24.0817 28.0186 23.8605 28.0186 23.6137V21.9813C28.0186 21.8225 28.0818 21.6697 28.1938 21.5573C30.0182 19.7309 29.9874 17.6701 29.9782 17.4409C29.9674 17.1797 30.127 16.9361 30.3726 16.8469C30.5118 16.7961 30.6642 16.7993 30.801 16.8541C30.8526 16.8729 31.3758 17.0517 31.7466 16.6269C32.2822 16.0141 32.3878 14.8781 32.1426 14.5913C32.141 14.5897 31.9354 14.3613 31.5934 14.6209C31.3958 14.7713 31.1254 14.7841 30.9142 14.6533C30.703 14.5225 30.5942 14.2749 30.6406 14.0309C30.8422 12.9729 30.9566 12.3345 30.9566 11.5145C30.9566 8.09171 28.5314 5.60771 25.1902 5.60771C24.8586 5.60771 24.5902 5.33931 24.5902 5.00771C24.5902 4.67611 24.8586 4.40771 25.1902 4.40771C29.2266 4.40771 32.1566 7.39652 32.1566 11.5145C32.1566 12.1441 32.0974 12.6777 31.9938 13.2989C32.4234 13.3229 32.8078 13.5229 33.0542 13.8113C33.8062 14.6909 33.4482 16.5029 32.6502 17.4161C32.193 17.9393 31.6278 18.1045 31.1426 18.1085C31.0382 19.0405 30.6446 20.7001 29.2178 22.2241V23.2053L34.0762 25.1189C35.9674 25.7885 37.2018 27.6345 37.2018 29.8141C37.2026 30.1457 36.9338 30.4141 36.6026 30.4141V30.4141Z" fill="#374151"/>
<path d="M25.8001 34.4001H3.00015C2.66855 34.4001 2.40015 34.1317 2.40015 33.8001V32.2001C2.40015 31.8685 2.66855 31.6001 3.00015 31.6001C3.33175 31.6001 3.60015 31.8685 3.60015 32.2001V33.2001H25.2001V31.4001C25.2001 31.0685 25.4685 30.8001 25.8001 30.8001H36.0025V29.8141C36.0025 29.4825 36.2709 29.2141 36.6025 29.2141C36.9341 29.2141 37.2025 29.4825 37.2025 29.8141V31.4001C37.2025 31.7317 36.9341 32.0001 36.6025 32.0001H26.4001V33.8001C26.4001 34.1317 26.1317 34.4001 25.8001 34.4001V34.4001Z" fill="#374151"/>
<path opacity="0.35" d="M19.086 7.6167C18.7852 10.2211 20.826 15.3087 20.826 15.3087C20.6344 16.0083 20.4392 16.4643 20.4392 16.4643C20.4392 16.4647 20.4388 16.4655 20.4388 16.4659C20.5164 16.4383 20.6008 16.4235 20.6876 16.4235C20.9188 16.4235 21.1684 16.5271 21.3548 16.7651C22.0036 17.5939 21.5684 19.1703 20.932 19.8799C20.91 19.9043 20.8864 19.9211 20.864 19.9435L20.8712 19.9439C21.046 20.2927 21.2972 20.6863 21.5128 20.9763C21.6216 20.8875 21.7268 20.7907 21.8252 20.6815C22.64 19.7735 23.28 17.8531 22.5664 16.4447C22.322 16.0267 21.8304 15.3775 21.9788 15.5627C22.1276 15.7479 23.8876 7.6167 19.086 7.6167V7.6167Z" fill="#374151"/>
</g>
<defs>
<filter id="filter0_dd_110_2733" x="-0.599976" y="1.39893" width="40.8" height="37.0012" filterUnits="userSpaceOnUse" color-interpolation-filters="sRGB">
<feFlood flood-opacity="0" result="BackgroundImageFix"/>
<feColorMatrix in="SourceAlpha" type="matrix" values="0 0 0 0 0 0 0 0 0 0 0 0 0 0 0 0 0 0 127 0" result="hardAlpha"/>
<feOffset/>
<feGaussianBlur stdDeviation="0.5"/>
<feComposite in2="hardAlpha" operator="out"/>
<feColorMatrix type="matrix" values="0 0 0 0 0 0 0 0 0 0 0 0 0 0 0 0 0 0 0.25 0"/>
<feBlend mode="normal" in2="BackgroundImageFix" result="effect1_dropShadow_110_2733"/>
<feColorMatrix in="SourceAlpha" type="matrix" values="0 0 0 0 0 0 0 0 0 0 0 0 0 0 0 0 0 0 127 0" result="hardAlpha"/>
<feOffset dx="1" dy="2"/>
<feComposite in2="hardAlpha" operator="out"/>
<feColorMatrix type="matrix" values="0 0 0 0 0 0 0 0 0 0 0 0 0 0 0 0 0 0 0.25 0"/>
<feBlend mode="normal" in2="effect1_dropShadow_110_2733" result="effect2_dropShadow_110_2733"/>
<feBlend mode="normal" in="SourceGraphic" in2="effect2_dropShadow_110_2733" result="shape"/>
</filter>
<clipPath id="clip0_110_2733">
<rect width="40" height="40" fill="white"/>
</clipPath>
</defs>
</svg>
