<svg width="40" height="40" viewBox="0 0 40 40" fill="none" xmlns="http://www.w3.org/2000/svg">
<g clip-path="url(#clip0_110_2734)">
<g filter="url(#filter0_dd_110_2734)">
<path d="M15.4479 37.1999C14.0143 37.1999 12.8479 36.0335 12.8479 34.5999C12.8479 34.2455 12.9191 33.9079 13.0479 33.5999H10.5999C8.50473 33.5999 6.79993 31.8951 6.79993 29.7999V17.7999C6.79993 15.7047 8.50473 13.9999 10.5999 13.9999H11.0591C11.0131 12.9847 11.2743 11.9683 11.9451 11.1835C12.0179 11.0987 12.0947 11.0175 12.1751 10.9407C12.1751 10.9351 12.1751 10.9303 12.1751 10.9247C12.1751 10.0727 12.2983 9.23511 12.5415 8.43391C13.1599 5.44231 15.4831 3.81511 17.3039 3.32831C17.6079 3.24711 18.7031 2.98071 19.9883 2.98071C20.6427 2.98071 21.2483 3.05111 21.7895 3.18991C23.7511 3.61831 25.4191 4.75151 26.5007 6.38871C26.9887 7.03031 27.3255 7.77351 27.5031 8.59911C27.7107 9.34311 27.8159 10.1247 27.8159 10.9243C27.8159 10.9755 27.8155 11.0267 27.8151 11.0775C27.8451 11.1099 27.8743 11.1427 27.9031 11.1763C28.5763 11.9627 28.8375 12.9823 28.7899 13.9999H29.3999C31.4951 13.9999 33.1999 15.7047 33.1999 17.7999V29.7999C33.1999 31.8951 31.4951 33.5999 29.3999 33.5999H26.9519C27.0807 33.9079 27.1519 34.2455 27.1519 34.5999C27.1519 36.0335 25.9855 37.1999 24.5519 37.1999H15.4479Z" fill="white"/>
</g>
<path d="M22.767 18.9691C23.7546 18.1695 24.0714 17.7647 24.5358 16.3487C24.9246 16.7127 25.4138 15.9063 25.9158 15.3323C26.4614 14.7079 26.6066 13.8023 26.2398 13.3103C25.947 12.9171 25.7614 11.8811 25.2814 12.2115C25.415 11.3519 25.023 11.5215 25.023 10.8291C25.023 7.62275 22.8482 5.68555 19.993 5.68555C17.1378 5.68555 14.9638 7.62315 14.9638 10.8295C14.9638 11.5343 14.9082 12.3711 15.0754 13.2475C14.9638 12.8311 14.163 12.9063 13.857 13.3171C13.4906 13.8091 13.6358 14.7147 14.181 15.3391C14.7266 15.9635 15.1778 16.7467 15.5446 16.2547C15.5462 16.2527 15.8038 16.0747 15.8054 16.0727C16.1406 17.6083 16.1986 18.0995 17.0854 18.9295L19.0478 20.4507H20.901L22.767 18.9691Z" fill="#FFC7A3"/>
<path d="M14.8082 12.6687C14.8082 12.6687 15.5102 12.099 15.891 11.5718C15.891 11.5718 22.4358 11.171 22.9598 7.83705C23.5238 4.24825 19.0778 4.92425 17.8202 5.26065C16.7178 5.55545 13.1666 7.20705 14.8082 12.6687V12.6687Z" fill="#374151"/>
<path d="M22.4218 8.43569C22.4218 8.43569 22.3294 9.38929 24.1058 11.5717L24.7718 12.4049L25.145 12.5853C25.145 12.5853 27.2954 7.56249 22.725 6.19409L22.4218 8.43569Z" fill="#374151"/>
<path d="M17.481 8.78287C18.8822 8.78287 21.1094 8.78287 22.5106 8.78287C23.2146 8.78287 23.7494 9.34167 23.8222 10.0417C24.0934 12.6441 24.4598 13.1489 24.4598 13.1489C24.4598 13.1489 25.1806 12.6257 24.7054 12.9865C24.8654 12.1469 24.9386 11.5993 24.9386 10.9245C24.9386 7.85407 22.729 5.87207 19.9954 5.87207C17.2618 5.87207 15.0522 7.85407 15.0522 10.9245C15.0522 11.5993 15.1258 12.1469 15.2854 12.9865C14.8106 12.6257 15.5646 13.1021 15.5646 13.1021C15.5646 13.1021 15.8114 12.4949 16.1686 10.0417C16.2706 9.34527 16.777 8.78287 17.481 8.78287V8.78287Z" fill="#374151"/>
<path d="M20.0163 12.7324H15.3079V13.254C15.4963 13.7752 16.7203 15.6868 18.0391 15.6868C19.3575 15.6868 19.2635 14.818 20.0167 14.818C20.7699 14.818 20.6759 15.6868 21.9943 15.6868C23.3127 15.6868 24.5371 13.7752 24.7255 13.254V12.7324H20.0163Z" fill="#374151"/>
<path d="M17.7136 14.6533C18.2244 14.7437 18.718 14.4353 18.816 13.9637L16.9664 13.6357C16.8688 14.1073 17.2032 14.5629 17.7136 14.6533V14.6533Z" fill="#FFC7A3"/>
<path d="M22.3355 14.634C22.8439 14.5328 23.1675 14.0708 23.0575 13.6016L21.2163 13.9676C21.3263 14.4368 21.8271 14.7352 22.3355 14.634V14.634Z" fill="#FFC7A3"/>
<path opacity="0.35" d="M17.7136 14.6533C18.2244 14.7437 18.718 14.4353 18.816 13.9637L16.9664 13.6357C16.8688 14.1073 17.2032 14.5629 17.7136 14.6533V14.6533Z" fill="#374151"/>
<path opacity="0.35" d="M22.3355 14.634C22.8439 14.5328 23.1675 14.0708 23.0575 13.6016L21.2163 13.9676C21.3263 14.4368 21.8271 14.7352 22.3355 14.634V14.634Z" fill="#374151"/>
<path d="M30.4 17.2173H9.59998V30.9109H30.4V17.2173Z" fill="#70BFFF"/>
<path d="M24.8423 16.2551H15.4443V17.2171H24.8423V16.2551Z" fill="#FFC7A3"/>
<path d="M22.2292 34.6001L21.6692 24.9617H18.3308L17.7708 34.6001H16.4852H23.5148H22.2292Z" fill="#5290F6"/>
<path d="M29.3999 16.5999H24.4035C24.4247 16.4783 24.4387 16.3643 24.4463 16.2599C24.7967 16.3035 25.2539 15.8323 25.6151 15.4187C26.1827 14.7691 26.4383 13.4639 25.9275 12.8667C25.7351 12.6419 25.4175 12.4935 25.0623 12.5491C25.1627 11.9611 25.2163 11.4787 25.2163 10.9247C25.2163 7.83666 23.0207 5.59546 19.9959 5.59546C16.9711 5.59546 14.7755 7.83666 14.7755 10.9247C14.7755 11.4623 14.8287 11.9247 14.9395 12.5575C14.5135 12.4847 14.1095 12.6535 13.9215 12.8731C13.4107 13.4703 13.6663 14.7755 14.2339 15.4251C14.6403 15.8899 15.1863 16.3087 15.5447 16.2547C15.5523 16.3603 15.5663 16.4763 15.5875 16.6003H10.5999C9.9371 16.6003 9.3999 17.1375 9.3999 17.8003V29.8003C9.3999 30.4631 9.9371 31.0003 10.5999 31.0003H17.4239L17.1131 34.6003H22.8867L22.5759 31.0003H29.3999C30.0627 31.0003 30.5999 30.4631 30.5999 29.8003V17.8003C30.5999 17.1371 30.0627 16.5999 29.3999 16.5999V16.5999Z" stroke="#374151" stroke-width="1.2" stroke-miterlimit="10" stroke-linecap="round" stroke-linejoin="round"/>
<path d="M15.4479 34.6001H24.5519H15.4479Z" fill="#374151" stroke="#374151" stroke-width="1.2" stroke-miterlimit="10" stroke-linecap="round" stroke-linejoin="round"/>
<path opacity="0.35" d="M15.5999 16.6001H25.1999" stroke="#374151" stroke-width="1.2" stroke-miterlimit="10"/>
</g>
<defs>
<filter id="filter0_dd_110_2734" x="5.79993" y="1.98071" width="28.4" height="37.2192" filterUnits="userSpaceOnUse" color-interpolation-filters="sRGB">
<feFlood flood-opacity="0" result="BackgroundImageFix"/>
<feColorMatrix in="SourceAlpha" type="matrix" values="0 0 0 0 0 0 0 0 0 0 0 0 0 0 0 0 0 0 127 0" result="hardAlpha"/>
<feOffset/>
<feGaussianBlur stdDeviation="0.5"/>
<feComposite in2="hardAlpha" operator="out"/>
<feColorMatrix type="matrix" values="0 0 0 0 0 0 0 0 0 0 0 0 0 0 0 0 0 0 0.25 0"/>
<feBlend mode="normal" in2="BackgroundImageFix" result="effect1_dropShadow_110_2734"/>
<feColorMatrix in="SourceAlpha" type="matrix" values="0 0 0 0 0 0 0 0 0 0 0 0 0 0 0 0 0 0 127 0" result="hardAlpha"/>
<feOffset dx="1" dy="2"/>
<feComposite in2="hardAlpha" operator="out"/>
<feColorMatrix type="matrix" values="0 0 0 0 0 0 0 0 0 0 0 0 0 0 0 0 0 0 0.25 0"/>
<feBlend mode="normal" in2="effect1_dropShadow_110_2734" result="effect2_dropShadow_110_2734"/>
<feBlend mode="normal" in="SourceGraphic" in2="effect2_dropShadow_110_2734" result="shape"/>
</filter>
<clipPath id="clip0_110_2734">
<rect width="40" height="40" fill="white"/>
</clipPath>
</defs>
</svg>
