<svg width="40" height="40" viewBox="0 0 40 40" fill="none" xmlns="http://www.w3.org/2000/svg">
<g clip-path="url(#clip0_110_2735)">
<g filter="url(#filter0_dd_110_2735)">
<path d="M26.776 35.2916C25.6935 35.2916 24.6357 35.096 23.623 34.7092C22.3949 35.0142 21.1371 35.1686 19.8747 35.1686C18.0851 35.1686 16.3172 34.8601 14.6201 34.2516C10.5725 32.8003 7.27324 29.7027 5.56872 25.7534C3.84048 21.7483 3.85429 17.3318 5.60733 13.3171C8.07838 7.65698 13.6981 4 19.9235 4C21.5236 4 23.1066 4.2476 24.6294 4.73572C24.8012 4.79098 24.9698 4.84801 25.1366 4.90787C26.9888 5.57203 28.6579 6.55181 30.117 7.82949L31.1853 7.03674C31.5785 6.74451 32.0666 6.58263 32.5583 6.58263C32.8229 6.58263 33.0832 6.62797 33.3326 6.71688C33.441 6.75549 33.5504 6.80472 33.6556 6.86175C34.4289 7.27796 34.9032 8.12101 34.8572 9.00586L34.4665 16.3928C34.4303 17.1016 34.075 17.7452 33.4909 18.1557C33.1023 18.4289 32.6443 18.5741 32.1679 18.5741C31.9409 18.5741 31.7159 18.5408 31.4988 18.4749L30.2477 18.0959C33.4629 19.4543 35.7246 22.6395 35.7246 26.3436C35.7239 31.2772 31.7099 35.2916 26.776 35.2916V35.2916Z" fill="white"/>
</g>
<path d="M7.23025 14.0264C10.0406 7.58878 17.3992 4.27716 24.088 6.42197C26.4251 7.17115 28.4116 8.48142 29.9656 10.1463L32.24 8.45768C32.4048 8.33512 32.6265 8.31777 32.8079 8.41624C32.9889 8.51365 33.098 8.70706 33.0873 8.91215L32.6977 16.2984C32.6892 16.4617 32.6063 16.6115 32.4724 16.7054C32.3389 16.7989 32.1696 16.8262 32.0133 16.7791L25.2247 14.7221C25.2158 14.7196 25.207 14.7164 25.1992 14.7136C25.0199 14.6491 24.8878 14.4933 24.8549 14.3045C24.8209 14.1068 24.9006 13.9067 25.0617 13.7866L27.0932 12.278C25.9951 11.1891 24.6381 10.3269 23.0625 9.81258C18.0623 8.18068 12.5298 10.6723 10.4505 15.5042C8.08959 20.9893 10.878 27.2658 16.4141 29.2501C21.5372 31.0864 27.1775 28.5891 29.3074 23.6616C29.4548 23.3194 29.8427 23.1508 30.1934 23.2765L32.1979 23.9949C32.5819 24.1327 32.7703 24.5663 32.612 24.9421C29.7878 31.6634 22.1639 35.0735 15.219 32.5844C7.73785 29.9033 3.99621 21.4335 7.23025 14.0264V14.0264Z" fill="#70BFFF"/>
<path d="M31.9672 9.98517L31.6725 15.5663L26.543 14.0116L27.7275 13.1324L28.0584 12.8866C28.4066 12.628 28.4431 12.1204 28.1352 11.8151L27.8427 11.5246C26.6571 10.3493 25.2643 9.46907 23.7022 8.90904C23.6001 8.87256 23.4974 8.83713 23.3936 8.80313C17.8798 7.00298 11.766 9.76165 9.47486 15.0835C8.22233 17.9927 8.22729 21.1927 9.48797 24.0938C10.732 26.9559 13.1255 29.2003 16.0549 30.2502C21.563 32.225 27.6833 29.654 30.1451 24.3892L31.4844 24.8695C28.5408 31.3507 20.7444 34.2677 14.1346 30.9678C11.7433 29.7737 9.78197 27.828 8.55884 25.4512C6.76507 21.9656 6.64817 18.0157 8.20462 14.4508C10.7834 8.54526 17.6181 5.46318 23.7645 7.43442C23.9044 7.4794 24.0436 7.52652 24.1811 7.57575C26.1073 8.26648 27.7924 9.37555 29.1894 10.8725L29.4051 11.1038C29.6513 11.3673 30.0558 11.4042 30.3452 11.1892L30.5996 11.0004L31.9672 9.98517M32.7355 8.38444C32.5701 8.32529 32.3841 8.35221 32.2407 8.45883L29.9662 10.147C28.5132 8.59024 26.6822 7.34338 24.5395 6.57508C24.3908 6.52159 24.2402 6.47058 24.0886 6.42205C17.3999 4.27724 10.0413 7.58815 7.23051 14.0254C3.99576 21.4322 7.7367 29.9023 15.2178 32.5845C22.1624 35.0743 29.787 31.6649 32.6115 24.9436C32.7695 24.5674 32.5814 24.1338 32.1974 23.9964L30.1933 23.2777C29.8426 23.1519 29.4551 23.3205 29.3074 23.6627C27.1774 28.5903 21.5364 31.0868 16.4137 29.2502C10.8772 27.2651 8.0895 20.9887 10.4507 15.5039C12.5307 10.6724 18.0633 8.18112 23.0639 9.81372C23.1577 9.84454 23.2509 9.87642 23.3437 9.90972C24.8002 10.4318 26.062 11.2554 27.0942 12.2795L25.0624 13.7877C24.9012 13.9075 24.8211 14.1076 24.8551 14.3052C24.8884 14.494 25.0202 14.6499 25.1995 14.7144C25.2076 14.7172 25.2161 14.7204 25.2246 14.7225L32.0129 16.7798C32.1691 16.8273 32.3384 16.8004 32.472 16.7062C32.6059 16.6123 32.6888 16.4625 32.6973 16.2992L33.0876 8.91294C33.0986 8.70714 32.9895 8.51408 32.8081 8.41703C32.7847 8.40428 32.7607 8.3933 32.7355 8.38444V8.38444Z" fill="#374151"/>
<path d="M26.7803 32.5071C30.1819 32.5071 32.9395 29.7496 32.9395 26.3479C32.9395 22.9463 30.1819 20.1887 26.7803 20.1887C23.3787 20.1887 20.6211 22.9463 20.6211 26.3479C20.6211 29.7496 23.3787 32.5071 26.7803 32.5071Z" fill="#21D4B0"/>
<path d="M25.3608 29.0015C25.2248 29.0015 25.0888 28.9498 24.9854 28.846L23.21 27.0738C23.0021 26.8666 23.0017 26.5297 23.2093 26.3218C23.4165 26.1139 23.7534 26.1135 23.9609 26.3214L25.3605 27.7185L29.5931 23.4862C29.8006 23.2787 30.1372 23.2787 30.3447 23.4862C30.5523 23.6938 30.5523 24.0307 30.3447 24.2379L25.7367 28.8456C25.6329 28.9498 25.4969 29.0015 25.3608 29.0015V29.0015Z" fill="white" stroke="white" stroke-width="0.5"/>
<path d="M20.5078 29.8308C20.7058 30.185 20.9329 30.5208 21.1861 30.835C21.6002 30.7861 22.0097 30.7142 22.4139 30.6207C22.1358 30.337 21.8857 30.0267 21.6665 29.6934C21.2846 29.7614 20.8978 29.8064 20.5078 29.8308Z" fill="#374151"/>
<path d="M23.8357 31.7019C23.3865 31.8486 22.9296 31.9722 22.4652 32.0685C22.863 32.3689 23.292 32.6282 23.7478 32.8414C24.2838 32.6845 24.8087 32.4954 25.3209 32.2757C24.797 32.1472 24.2972 31.9562 23.8357 31.7019V31.7019Z" fill="#374151"/>
<path d="M26.7757 19.1655C22.818 19.1655 19.5981 22.3854 19.5981 26.3431C19.5981 28.0363 20.1908 29.592 21.1755 30.8208C21.2286 30.4152 21.4025 30.0284 21.7001 29.7486C21.0444 28.7745 20.6612 27.6031 20.6612 26.3431C20.6612 22.9713 23.4043 20.2282 26.7761 20.2282C30.1479 20.2282 32.891 22.9713 32.891 26.3431C32.891 29.7149 30.1479 32.458 26.7761 32.458C25.9235 32.458 25.1112 32.2813 24.3734 31.9646C24.202 32.3054 23.9218 32.5866 23.5328 32.7375C24.5084 33.2341 25.6082 33.5203 26.7761 33.5203C30.7338 33.5203 33.9537 30.3005 33.9537 26.3428C33.9537 22.385 30.7334 19.1655 26.7757 19.1655V19.1655Z" fill="#374151"/>
</g>
<defs>
<filter id="filter0_dd_110_2735" x="3.28247" y="3" width="33.4421" height="34.2915" filterUnits="userSpaceOnUse" color-interpolation-filters="sRGB">
<feFlood flood-opacity="0" result="BackgroundImageFix"/>
<feColorMatrix in="SourceAlpha" type="matrix" values="0 0 0 0 0 0 0 0 0 0 0 0 0 0 0 0 0 0 127 0" result="hardAlpha"/>
<feOffset/>
<feGaussianBlur stdDeviation="0.5"/>
<feComposite in2="hardAlpha" operator="out"/>
<feColorMatrix type="matrix" values="0 0 0 0 0 0 0 0 0 0 0 0 0 0 0 0 0 0 0.25 0"/>
<feBlend mode="normal" in2="BackgroundImageFix" result="effect1_dropShadow_110_2735"/>
<feColorMatrix in="SourceAlpha" type="matrix" values="0 0 0 0 0 0 0 0 0 0 0 0 0 0 0 0 0 0 127 0" result="hardAlpha"/>
<feOffset dx="1" dy="2"/>
<feComposite in2="hardAlpha" operator="out"/>
<feColorMatrix type="matrix" values="0 0 0 0 0 0 0 0 0 0 0 0 0 0 0 0 0 0 0.25 0"/>
<feBlend mode="normal" in2="effect1_dropShadow_110_2735" result="effect2_dropShadow_110_2735"/>
<feBlend mode="normal" in="SourceGraphic" in2="effect2_dropShadow_110_2735" result="shape"/>
</filter>
<clipPath id="clip0_110_2735">
<rect width="40" height="40" fill="white"/>
</clipPath>
</defs>
</svg>
