<svg xmlns="http://www.w3.org/2000/svg" xmlns:xlink="http://www.w3.org/1999/xlink" viewBox="0 0 433.1 167.58"><defs><style>.cls-1{fill:none;}.cls-2{clip-path:url(#clip-path);}.cls-3{clip-path:url(#clip-path-2);}.cls-4{clip-path:url(#clip-path-4);}.cls-5{fill:#fff;}.cls-6{clip-path:url(#clip-path-5);}.cls-7{clip-path:url(#clip-path-6);}</style><clipPath id="clip-path" transform="translate(-0.36 27.08)"><rect class="cls-1" x="102.67" width="57.33" height="113.33"/></clipPath><clipPath id="clip-path-2" transform="translate(-0.36 27.08)"><rect class="cls-1" x="63.53" y="17.21" width="79" height="79" transform="translate(-9.92 89.46) rotate(-45)"/></clipPath><clipPath id="clip-path-4" transform="translate(-0.36 27.08)"><polygon class="cls-1" points="103.03 112.57 158.9 56.71 103.03 0.85 103.03 112.57"/></clipPath><clipPath id="clip-path-5" transform="translate(-0.36 27.08)"><rect class="cls-1" y="1.33" width="158.67" height="110.67"/></clipPath><clipPath id="clip-path-6" transform="translate(-0.36 27.08)"><rect class="cls-1" x="-22.72" y="-18.33" width="150" height="150" transform="translate(-24.76 53.56) rotate(-45)"/></clipPath></defs><g id="Layer_2" data-name="Layer 2"><g id="Layer_1-2" data-name="Layer 1"><g class="cls-2"><g class="cls-3"><g class="cls-3"><g class="cls-4"><path class="cls-5" d="M131,140.5l83.8-83.79L131-27.08,47.17,56.71Z" transform="translate(-0.36 27.08)"/></g></g></g></g><g class="cls-6"><g class="cls-7"><g class="cls-7"><path class="cls-5" d="M103.36,2.24a.55.55,0,0,0-.38.57V35.55L69.8,2.38a.55.55,0,0,0-.66-.14.58.58,0,0,0-.38.57V35.56L35.58,2.38a.56.56,0,0,0-.64-.1.57.57,0,0,0-.37.53V35.56L1.4,2.38a.58.58,0,0,0-.66-.12.56.56,0,0,0-.38.55l0,107.71a.55.55,0,0,0,.37.55.58.58,0,0,0,.66-.12L34.57,77.79l0,32.73a.56.56,0,0,0,.38.56.58.58,0,0,0,.67-.13L68.79,77.8v32.73a.61.61,0,0,0,1,.43L103,77.8v32.74a.58.58,0,0,0,.38.56.56.56,0,0,0,.66-.13L157.9,57.12a.6.6,0,0,0,.18-.43.58.58,0,0,0-.18-.43L104,2.4A.56.56,0,0,0,103.36,2.24ZM1.59,109.05V4.28l33,33V76.07Zm34.2-70.57L54,56.67,35.79,74.85Zm0,70.57,0-32.48L55.27,57.1a.59.59,0,0,0,.17-.43.6.6,0,0,0-.17-.44L35.79,36.77V4.28l33,33,0,38.8ZM70,38.49,88.19,56.67,70,74.85Zm0,70.56V76.58L89.48,57.11a.6.6,0,0,0,.18-.43.6.6,0,0,0-.18-.44L70,36.77V4.28l33,33,0,38.8Zm34.19-70.56,18.18,18.19L104.21,74.85ZM156.6,56.68l-52.38,52.37V76.57l19.46-19.46a.6.6,0,0,0,.18-.43.6.6,0,0,0-.18-.44L104.21,36.77V4.28Z" transform="translate(-0.36 27.08)"/></g></g></g><path class="cls-5" d="M193.93,74.21A21.08,21.08,0,0,0,202,72.62l-.62-2.69a16.39,16.39,0,0,1-7.25,1.45c-6.06,0-8.68-3.24-8.68-10.07V39.24H202v-2.7H185.45V28.82h-1.38l-10.9,9.1V39h9.31V61.65C182.48,69.79,186.2,74.21,193.93,74.21Z" transform="translate(-0.36 27.08)"/><path class="cls-5" d="M230.48,74.21c6.35,0,12.42-2.07,16.63-6.83l-1.94-2.28c-3.58,4.28-9,6.35-14.69,6.35-9.79,0-16.34-6.14-16.9-15.18H249V55c0-11.31-8.49-19.17-19.25-19.17S210.55,43.65,210.55,55,218.48,74.21,230.48,74.21Zm-16.9-20.63a16.26,16.26,0,0,1,32.42,0Z" transform="translate(-0.36 27.08)"/><path class="cls-5" d="M280,74.21a22.52,22.52,0,0,0,14.07-4.76V66.07c-4.34,3.24-8.62,5.38-14.07,5.38-9.93,0-17.65-6.76-17.65-16.49a15.92,15.92,0,0,1,16.27-16.42,15.7,15.7,0,0,1,12.14,5l2-1.93c-3.38-3.93-8.62-5.86-14.14-5.86-10.69,0-19.24,7.86-19.24,19.17S268.35,74.21,280,74.21Z" transform="translate(-0.36 27.08)"/><path class="cls-5" d="M305.11,73.38h3V53.1c0-8.41,6.28-14.49,13.94-14.49s13.93,6,13.93,14.7V73.38h3V53.24c0-10.28-7.17-17.45-16.2-17.45a15.33,15.33,0,0,0-14.21,9h-.42V19.65h-3Z" transform="translate(-0.36 27.08)"/><path class="cls-5" d="M371.8,74.21a22.52,22.52,0,0,0,14.07-4.76V66.07c-4.34,3.24-8.62,5.38-14.07,5.38-9.93,0-17.65-6.76-17.65-16.49a15.92,15.92,0,0,1,16.27-16.42,15.73,15.73,0,0,1,12.14,5l2-1.93c-3.38-3.93-8.62-5.86-14.14-5.86-10.69,0-19.24,7.86-19.24,19.17S360.15,74.21,371.8,74.21Z" transform="translate(-0.36 27.08)"/><path class="cls-5" d="M414.22,74.21c10.69,0,19.24-7.87,19.24-19.25s-8.55-19.17-19.24-19.17S395,43.65,395,55,403.53,74.21,414.22,74.21Zm0-2.76c-9,0-16.28-6.76-16.28-16.49a16.28,16.28,0,1,1,32.55,0C430.49,64.69,423.25,71.45,414.22,71.45Z" transform="translate(-0.36 27.08)"/></g></g></svg>