<svg width="48" height="27" viewBox="0 0 48 27" fill="none" xmlns="http://www.w3.org/2000/svg">
<path d="M43.1501 12.2822C42.5746 12.2864 42.0045 12.3962 41.4673 12.6064L35.727 7.82167C35.8682 7.30005 35.9687 6.75894 35.9687 6.18858C35.9687 2.81028 33.3021 0.0949707 29.9843 0.0949707C26.6665 0.0949707 23.9998 2.81028 23.9998 6.18858C23.9998 7.15381 24.2392 8.05323 24.627 8.86246L17.6635 17.2424C17.3848 17.1893 17.102 17.1607 16.8185 17.1571C16.39 17.1571 15.9855 17.2302 15.5929 17.3374L9.45761 11.0903C9.56533 10.693 9.63714 10.281 9.63714 9.84475C9.63714 7.14406 7.50189 4.96986 4.84958 4.96986C2.19727 4.96986 0.0620117 7.14406 0.0620117 9.84475C0.0620117 12.5454 2.19727 14.7196 4.84958 14.7196C5.27806 14.7196 5.68261 14.6465 6.07519 14.5393L12.2105 20.7864C12.0954 21.1914 12.035 21.6104 12.0309 22.032C12.0309 24.7327 14.1662 26.9069 16.8185 26.9069C19.4708 26.9069 21.6061 24.7327 21.6061 22.032C21.6061 21.4543 21.4912 20.9107 21.3116 20.3964L28.2847 12.0068C28.8281 12.1676 29.3906 12.2822 29.9843 12.2822C30.929 12.2769 31.8588 12.0421 32.6964 11.5973L38.4391 16.382C38.3941 16.638 38.3685 16.8971 38.3625 17.1571C38.3625 19.8578 40.4978 22.032 43.1501 22.032C45.8024 22.032 47.9377 19.8578 47.9377 17.1571C47.9377 14.4564 45.8024 12.2822 43.1501 12.2822Z" fill="#365B6D"/>
</svg>
