<svg width="1335" height="1844" viewBox="0 0 1335 1844" fill="none" xmlns="http://www.w3.org/2000/svg">
<g clip-path="url(#clip0_144_378)">
<path fill-rule="evenodd" clip-rule="evenodd" d="M352.324 268.668C411.737 221.104 417.42 174.244 361.358 111.56C367.113 164.564 334.984 198.415 303.044 232.068C259.688 277.748 216.678 323.064 269.229 415.426C265.657 337.61 290.863 317.565 342.625 276.399C345.76 273.905 348.994 271.334 352.324 268.668ZM852.012 155.931C792.602 69.1189 861.158 21.8778 861.158 21.8778C774.869 47.5311 765.616 111.26 802.391 160.378C811.096 172 819.977 182.053 828.52 191.723C853.406 219.894 875.428 244.821 881.901 295.871C904.248 238.932 873.81 187.771 852.012 155.931ZM1061.99 200.722C1041.91 158.79 1021.67 116.534 1067.38 47.3721C1059.95 101.746 1077.72 134.391 1093.42 163.224C1114.35 201.667 1131.59 233.332 1080.46 300.687C1090.82 260.923 1076.45 230.907 1061.99 200.722ZM1007.03 476.54C1050.99 374.404 1010.85 242.589 900.066 200.556C1000 432.032 667.49 535.875 745.367 279.206C782.894 155.512 735.331 38.8482 617.431 5.93597C688.364 116.315 638.8 178.531 585.021 246.037C536.417 307.047 484.371 372.378 514.726 481.49C571.647 638.795 352.312 637.756 412.161 486.334C432.207 435.609 435.211 372.122 352.425 319.395C362.563 384.878 338.289 425.261 305.346 460.247C213.462 557.805 194.645 770 191.409 877.739C220.101 852.56 257.987 831.837 299.846 808.94C310.386 803.174 321.179 797.27 332.14 791.123C411.511 748.526 497.359 718.113 586.385 701.052C787.799 659.324 1005.19 670.216 1167.46 730.518C1215.28 746.744 1257.38 771.133 1290.05 805.115C1284.46 690.468 1258.81 524.534 1234.08 478.76C1224.66 461.322 1214.81 444.747 1205.38 428.864C1167.75 365.504 1136.67 313.178 1165.22 261.139C1110.05 280.575 1071.25 350.781 1099.37 428.235C1160.27 584.903 967.289 568.877 1007.03 476.54ZM1184.6 873.594C1179.1 868.81 1173.21 864.401 1166.97 860.41C1152.67 851.143 1137.26 843.452 1121.05 837.484C981.018 786.034 789.479 776.385 610.724 813.28C534.647 827.886 461.275 853.852 393.405 890.187C363.504 904.747 337.013 924.569 315.28 948.361L349.465 960.79C499.167 950.879 644.896 936.147 868.28 877.205C973.682 849.39 1094.14 859.876 1184.6 873.594Z" fill="url(#paint0_linear_144_378)"/>
<path opacity="0.5" fill-rule="evenodd" clip-rule="evenodd" d="M1229.87 951.117L739.68 962.102L296.176 972.039C320.639 937.612 354.074 909.353 393.408 890.199C461.279 853.864 534.65 827.898 610.728 813.292C789.483 776.397 981.021 786.046 1121.05 837.496C1137.27 843.464 1152.67 851.155 1166.98 860.422C1187.13 873.325 1203.67 890.59 1215.26 910.819C1222.38 923.44 1227.3 937.044 1229.87 951.117ZM215.676 858.672C244.952 833.185 283.002 811.472 329.712 785.276C409.082 742.679 497.362 718.125 586.389 701.064C787.803 659.336 1005.19 670.227 1167.46 730.53C1201.05 741.928 1231.84 755.859 1258.51 774.326C1249.55 703.13 1234.43 632.716 1209.97 605.305C1181.81 573.754 1156.81 535.392 1171.24 477.794C1130.9 505.693 1120.59 532.708 1119.37 556.332C1112.2 695.518 917.044 686.358 949.972 532.329C952.085 522.455 956.257 511.611 960.604 500.314C970.799 473.819 981.953 444.832 969.742 420.015C958.589 450.208 936.278 467.632 915.355 483.972C886.057 506.854 859.48 527.61 870.072 578.326C886.21 655.618 812.057 668.157 825.392 587.625C831.029 553.592 815.609 526.983 762.41 510.72C782.05 566.15 765.159 626.185 699.797 649.717C739.506 577.267 701.189 519.656 668.529 470.55C647.698 439.23 629.169 411.37 634.654 385.328C568.207 432.968 577.96 476.373 588.041 521.237C592.48 540.993 596.983 561.032 595.07 581.84C585.612 684.831 415.099 704.957 384.502 601.651C384.502 601.651 366.467 651.28 373.681 680.502C339.846 648.849 353.157 614.222 366.741 578.886C378.343 548.705 390.144 518.006 372.939 488.202C360.493 516.812 342.669 537.553 323.321 555.44C276.781 598.464 232.986 744.034 215.676 858.672Z" fill="url(#paint1_linear_144_378)"/>
<path fill-rule="evenodd" clip-rule="evenodd" d="M342.296 407.37C353.112 383.36 357.88 355.096 352.338 319.312C408.188 354.868 424.992 395.326 423.869 433.455C412.229 415.471 396.781 385.554 370.727 370.486C363.868 383.609 351.063 398.92 342.295 407.37L342.296 407.37ZM563.297 273.651C623.22 194.351 697.88 131.117 617.38 5.88845C735.297 38.8029 782.867 155.45 745.335 279.12C744.009 283.486 742.827 287.716 741.736 291.868C717.001 318.497 687.354 327.725 687.354 327.725C687.354 327.725 741.872 229.42 704.003 157.225C697.947 180.661 675.886 209.488 616.832 238.242C595.888 248.435 578.23 260.515 563.297 273.651V273.651ZM815.951 97.2657C815.951 97.2657 803.253 131.199 811.774 172.254C808.629 168.437 805.493 164.479 802.374 160.315C765.586 111.205 774.848 47.4844 861.142 21.8416C861.142 21.8416 808.583 58.0487 835.389 125.319C826.912 115.554 819.513 105.515 815.951 97.2657V97.2657ZM900.056 200.48C944.306 217.272 977.279 248.388 998.134 286.202C1015.23 333.349 1002.17 372.652 1002.17 372.652C1002.17 372.652 1000.74 340.037 945.96 291.731C937.754 320.627 920.756 335.571 908.481 342.901C923.056 305.114 924.271 256.563 900.056 200.48ZM1101 432.478C1100.47 431.037 1099.96 429.61 1099.39 428.135C1071.26 350.691 1110.07 280.495 1165.24 261.061C1143.49 300.696 1156.36 340.501 1180.36 385.229C1166.97 373.453 1152.45 358.314 1140.88 340.308C1140.88 340.308 1106.3 379.794 1101 432.478ZM1069.91 217.554C1072.22 205.003 1073.22 186.93 1070.08 161.599C1067.84 143.467 1069.35 129.04 1072.62 117.685C1066.55 98.5016 1063.48 75.927 1067.4 47.3247C1015.55 125.746 1048.53 169.565 1069.91 217.554V217.554ZM283.595 252.906C306.078 236.862 331.581 220.858 357.454 209.025C357.909 208.822 358.333 208.612 358.779 208.402C350.118 266.246 313.798 299.887 313.798 299.887L313.8 299.887C324.689 290.302 337.513 280.379 352.237 268.592C411.657 221.034 417.341 174.181 361.273 111.505C368.208 175.411 320.075 211.472 283.596 252.906L283.595 252.906" fill="url(#paint2_linear_144_378)"/>
<path d="M1268.63 1021.02C1263.89 985.972 1250.87 952.562 1230.65 923.562C1194.03 874.486 1141.08 840.116 1081.36 826.641C911.259 781.441 691.87 794.988 495.178 862.663C409.38 890.637 328.624 932.218 255.997 985.816C195.906 1027.51 150.999 1087.62 128.063 1157.08L80.2938 1337.61C71.3013 1367.82 71.7432 1400.05 81.5606 1429.98C104.453 1492.95 140.402 1550.35 187.048 1598.41C264.988 1677.27 363.467 1732.69 471.319 1758.39C588.603 1790.58 687.275 1780.66 772.001 1731.11C846.918 1687.11 902.578 1618.59 961.283 1546C1017.08 1476.66 1075.06 1404.88 1151.88 1355.03C1178.75 1338.47 1198.53 1312.54 1207.4 1282.25L1267.7 1055.48C1270.33 1044.17 1270.64 1032.45 1268.63 1021.02V1021.02Z" fill="#3B2314"/>
<path d="M292.53 1762.1C234.662 1731.76 182.053 1692.3 136.715 1645.25C83.5527 1590.29 42.5457 1524.76 16.3565 1452.91C1.94477 1410.35 0.913514 1364.38 13.4014 1321.2L61.4816 1140.5C81.4532 1064.9 132.504 994.979 213.645 932.6C291.968 874.781 379.083 829.956 471.641 799.849C680.566 728.196 914.629 714.124 1097.34 762.636C1172.08 780.129 1238.18 823.586 1283.88 885.276C1311.09 923.347 1328.79 967.388 1335.5 1013.72C1338.02 1033.97 1336.49 1054.51 1331.01 1074.17L1270.74 1301.08C1257.8 1346.79 1228.47 1386.12 1188.36 1411.57C1119.82 1455.78 1065.28 1523.26 1012.81 1587.95C952.914 1662.16 890.829 1738.81 805.361 1789.03C704.558 1847.88 589.031 1858.86 453.901 1823.26C397.941 1809.13 343.795 1788.61 292.53 1762.1ZM1116.73 909.623C1100.01 900.876 1082.37 894.047 1064.12 889.265C906.537 848.067 700.297 860.406 514.856 923.841C435.764 949.6 361.306 987.879 294.317 1037.22C245.365 1070.31 208.476 1118.41 189.206 1174.28L141.359 1355.1C135.88 1372.44 135.735 1391.02 140.942 1408.43C160.894 1462.66 191.955 1512.12 232.134 1553.62C302.008 1623.44 389.803 1672.59 485.845 1695.65C587.134 1722.32 666.855 1715.74 736.15 1674.62C800.993 1636.82 852.62 1572.59 907.642 1504.77C966.937 1431.13 1028.29 1355.29 1114.6 1299.54C1127.61 1291.84 1137.36 1279.65 1142 1265.27L1202.27 1038.36C1203.17 1035.58 1203.59 1032.68 1203.54 1029.76C1200.05 1004.89 1190.62 981.222 1176.07 960.768C1160.58 939.292 1140.25 921.771 1116.73 909.623V909.623Z" fill="#3B2314"/>
<path d="M470.166 1751.51C363.688 1725.94 266.459 1671.18 189.393 1593.38C143.414 1546.02 107.934 1489.48 85.2633 1427.47C75.9988 1398.8 75.6479 1368 84.2568 1339.12L132.026 1158.59C154.41 1090.13 198.731 1030.96 258.122 990.232C330.07 937.089 410.056 895.813 495.039 867.972C690.771 800.984 908.377 787.986 1077.43 832.336C1135.65 845.442 1187.27 878.899 1223.01 926.692C1242.93 954.843 1255.82 987.371 1260.57 1021.54C1261.98 1032.21 1261.12 1043.05 1258.06 1053.37L1197.76 1280.14C1189.46 1308.79 1170.74 1333.31 1145.28 1348.85C1067.27 1399.27 1008.81 1471.39 953.696 1541.69C898.585 1612 840.415 1681.88 766.925 1725.44C683.407 1773.84 586.888 1782.51 470.166 1751.51Z" fill="#D5A763"/>
<path d="M492.939 1605.24C214.557 1531.72 138.529 1294.64 174.895 1157.66C198.116 1082.53 247.86 1018.4 314.847 977.225C385.883 930.822 463.669 895.706 545.438 873.124C701.619 826.728 887.963 807.941 998.691 827.701C1014.52 830.501 1029.79 833.801 1044.49 837.6C1098.06 849.582 1147.65 875.104 1188.54 911.728C1209.58 931.569 1224.78 956.801 1232.5 984.685C1240.21 1012.57 1240.14 1042.04 1232.29 1069.9C1204.59 1174.72 1120.69 1224.41 1045.34 1266.39C1018.59 1281.2 992.606 1297.35 967.491 1314.8C932.215 1345.42 902.697 1382.1 880.332 1423.11C847.617 1482.88 802.774 1535.16 748.682 1576.58C680.198 1623.08 596.285 1632.75 492.939 1605.24Z" fill="#F9E5D2"/>
<path d="M345.803 1015.73C391.018 985.852 439.608 961.431 490.559 942.981C487.011 1039.38 428.278 1108.06 367.941 1174.71C349.839 1123.78 342.307 1069.69 345.803 1015.73V1015.73ZM875.844 1002.88C880.901 993.42 886.841 984.462 893.584 976.122C913.958 948.843 941.017 927.276 972.146 913.505C1003.27 899.734 1037.42 894.223 1071.29 897.506C1044.82 887.736 1017.48 880.472 989.645 875.81C913.48 866.054 836.329 866.841 760.366 878.15C769.3 980.852 843.114 999.3 875.844 1002.88V1002.88ZM344.578 1199.68C328.148 1140.69 327.162 1078.45 341.714 1018.95C285.047 1053.54 242.63 1107.28 222.15 1170.45C208.878 1231.52 216.319 1295.26 243.299 1351.6C265.985 1294.51 300.363 1242.8 344.221 1199.79L344.578 1199.68ZM883.427 1173.57C871.183 1253.11 846.484 1330.25 702.526 1368.78C884.816 1286.02 834.936 1162.54 857.65 1054.19C828.716 1041.37 802.5 1023.13 780.41 1000.47C706.728 1042.13 618.761 987.818 554.676 1088.62C580.75 982.938 707.225 1010.73 757.148 970.538C740.946 943.64 734.01 912.165 737.403 880.934C653.412 892.791 570.884 913.392 491.163 942.404C504.037 1154.42 303.217 1216.93 268.453 1396.57C324.281 1478.32 408.873 1535.98 505.356 1558.07L518.854 1561.33C539.515 1399.31 456.224 1367.19 456.224 1367.19C469.614 1367.45 482.717 1371.1 494.307 1377.81C505.896 1384.52 515.594 1394.06 522.491 1405.54C540.921 1397.97 560.97 1395.22 580.751 1397.54C563.483 1404.67 548.451 1416.32 537.235 1431.26C555.702 1475.37 566.81 1522.22 570.117 1569.94C797.171 1592.11 820.898 1359.43 939.139 1274.73C963.953 1257.08 989.709 1240.8 1016.29 1225.95C991.585 1228.3 966.675 1224.8 943.574 1215.74C920.473 1206.68 899.828 1192.31 883.304 1173.8L883.427 1173.57ZM1028.27 1087.12C1028.27 1087.12 1138.07 1055.61 1177.66 977.39C1170.18 963.784 1160.36 951.608 1148.64 941.422C1105.44 936.188 990.847 930.511 931.84 1005.92C911.063 1034.29 897.82 1067.47 893.352 1102.35C904.323 1138.03 943.054 1218.26 1061.39 1200.52C1117.78 1166.15 1166.02 1127.45 1184.9 1056.79C1186.6 1050.26 1187.82 1043.62 1188.55 1036.92C1140.71 1068.38 1085.11 1085.99 1027.9 1087.82L1028.27 1087.12Z" fill="#D4243A"/>
<path d="M433.155 1572.72C433.155 1572.72 317.303 1489.32 288.968 1575.58C266.697 1644.75 290.468 1663 375.665 1704.5C460.862 1745.99 635.074 1786.8 724.958 1733.7C797.435 1693.71 859.244 1636.88 905.17 1567.99C953.998 1498.84 982.632 1303.71 896.572 1395.27C866.678 1426.95 695.566 1678.12 433.155 1572.72Z" fill="#F9E5D2"/>
<path d="M1131.94 1227.43C1131.94 1227.43 1114.93 1334.03 1089.85 1376.91C1064.77 1419.8 1159.97 1305.88 1159.97 1305.88L1208.42 1182.17L1131.94 1227.43Z" fill="#AC6A28"/>
<path d="M1268.63 1021.02C1263.89 985.972 1250.87 952.562 1230.65 923.562C1194.03 874.486 1141.08 840.116 1081.36 826.641C911.259 781.441 691.87 794.988 495.178 862.663C409.38 890.637 328.624 932.218 255.997 985.816C195.906 1027.51 150.999 1087.62 128.063 1157.08L80.2938 1337.61C71.3013 1367.82 71.7432 1400.05 81.5606 1429.98C104.453 1492.95 140.402 1550.35 187.048 1598.41C264.988 1677.27 363.467 1732.69 471.319 1758.39C588.603 1790.58 687.275 1780.66 772.001 1731.11C846.918 1687.11 902.578 1618.59 961.283 1546C1017.08 1476.66 1075.06 1404.88 1151.88 1355.03C1178.75 1338.47 1198.53 1312.54 1207.4 1282.25L1267.7 1055.48C1270.33 1044.17 1270.64 1032.45 1268.63 1021.02V1021.02ZM1130.29 1324.19C1047.97 1377.11 988.165 1451.2 930.311 1522.74C815.74 1662.55 717.605 1785.96 478.634 1723.13C224.19 1655.7 139.238 1487.39 114.539 1417.86C107.329 1394.98 107.203 1370.44 114.176 1347.47L132.413 1279.16C147.539 1351.74 182.733 1418.59 233.987 1472.12C285.24 1525.64 350.495 1563.69 422.322 1581.92C170.133 1463.41 173.033 1263.32 177.925 1175.1L182.069 1159.37C209.775 1054.55 317.921 962.427 505.943 897.035C693.965 831.643 921.38 813.082 1070.73 861.943C1197.95 903.57 1224.58 966.053 1231.92 1026.09C1232.07 1028.09 1232.11 1030.11 1232.01 1032.11C1231.27 1033.51 1230.53 1034.91 1231.53 1037.53C1230.3 1039.87 1229.91 1046.24 1229.91 1046.24C1164.56 1287.06 976.023 1187.59 843.797 1476.97C1003.42 1257.65 1098.26 1305.74 1188.62 1202.11L1169.61 1273.01C1163.3 1294.35 1149.29 1312.59 1130.29 1324.19Z" fill="#3B2314"/>
<path d="M678.318 1116.74C647.513 1109.65 615.306 1111.71 585.64 1122.66C555.358 1132.52 528.675 1151.14 508.967 1176.18C500.572 1186.63 494.244 1198.59 490.321 1211.41C487.219 1222.92 479.055 1254.14 479.055 1254.14C477.016 1264.95 478.406 1276.13 483.03 1286.11C488.033 1298.89 496.17 1310.2 506.69 1319C517.21 1327.81 529.776 1333.82 543.232 1336.49C574.028 1343.68 606.267 1341.62 635.909 1330.57C666.247 1320.75 693.007 1302.17 712.817 1277.17C719.845 1268.78 725.021 1259 728.005 1248.47C731.298 1238.86 737.199 1213.61 738.119 1209.61C742.381 1195.53 741.988 1180.44 736.998 1166.6C732.125 1154.07 724.21 1142.95 713.965 1134.24C703.721 1125.54 691.471 1119.52 678.318 1116.74V1116.74Z" fill="#3B2314"/>
<path d="M674.561 1131.15C685.623 1133.34 695.97 1138.23 704.679 1145.39C713.389 1152.55 720.19 1161.76 724.476 1172.2C738.519 1212.78 701.119 1262.59 641.02 1283.66C613.95 1293.59 584.572 1295.38 556.504 1288.82C545.409 1286.76 535.011 1281.95 526.267 1274.81C517.523 1267.68 510.713 1258.46 506.466 1248.01C492.19 1207.3 529.713 1157.25 589.922 1136.54C617 1126.48 646.434 1124.6 674.561 1131.15Z" fill="#F9E5D2"/>
<path d="M643.864 1172.24C649.164 1173.26 654.128 1175.59 658.311 1179C662.495 1182.41 665.769 1186.81 667.841 1191.79C674.588 1211.2 656.561 1235.11 627.643 1245.2C614.676 1250.03 600.586 1250.98 587.093 1247.94C581.781 1246.89 576.816 1244.53 572.65 1241.08C568.484 1237.62 565.248 1233.17 563.239 1228.15C556.259 1208.62 574.286 1184.71 603.204 1174.62C616.24 1169.88 630.37 1169.06 643.864 1172.24V1172.24Z" fill="#3B2314"/>
<path d="M618.174 1468.43C619.902 1465.16 622.496 1460.26 624.224 1456.99C628.905 1453.65 633.916 1450.8 639.177 1448.48L640.042 1446.84L640.783 1445.44L644.116 1444.22L651.497 1441.55C661.484 1438.47 670.62 1436.44 679.756 1434.4C688.892 1432.37 697.658 1431.03 706.561 1428.87C715.398 1426.99 724.066 1424.39 732.474 1421.08C741.506 1417.34 749.274 1411.08 754.85 1403.05C759.389 1394.68 761.025 1385.04 759.503 1375.64C760.435 1381.21 759.474 1386.98 760.05 1392.66C760.205 1398.64 759.184 1404.59 757.044 1410.18C755.059 1416.15 752.096 1421.75 748.277 1426.75C740.324 1437.45 729.31 1445.48 716.696 1449.77C701.017 1454.02 690.33 1456.73 684.143 1458.83C677.956 1460.93 676.982 1462.21 680.549 1461.11C675.789 1462.77 673.552 1467.56 669.245 1470.06C665.162 1471.82 660.838 1472.96 656.418 1473.43L653.455 1473.95L652.056 1473.21L646.363 1474.38C646.363 1474.38 644.264 1478.35 641.918 1477.71C636.797 1478.8 631.784 1480.34 626.938 1482.33C625.215 1483.07 623.692 1484.21 622.493 1485.65C622.493 1485.65 622.493 1485.65 621.752 1487.05C622.662 1487.91 623.791 1488.51 625.017 1488.78L622.534 1488.96C623.955 1490.76 625.627 1492.35 627.499 1493.67C625.015 1494.23 622.448 1494.29 619.941 1493.86C618.418 1493.38 616.996 1492.62 615.743 1491.64C613.868 1490.31 612.465 1488.41 611.738 1486.23C610.864 1484.01 610.594 1481.6 610.957 1479.25C611.671 1477.44 612.582 1475.72 613.674 1474.11C614.993 1472.08 616.5 1470.18 618.174 1468.43V1468.43Z" fill="#F16E7E"/>
<path d="M329.397 1354.78C328.246 1352.15 327.284 1349.45 326.517 1346.68C325.635 1343.56 325.63 1340.25 326.504 1337.12C328.24 1329.48 331.201 1322.17 335.272 1315.47C338.97 1309.6 343.045 1303.97 347.468 1298.63C355.785 1289.39 364.743 1280.76 374.275 1272.79C383.426 1265.08 392.563 1257.97 401.823 1250.62C411.083 1243.28 420.11 1235.81 428.684 1227.5C437.616 1218.72 444.34 1207.94 448.304 1196.06C449.99 1190.17 450.095 1183.94 448.607 1178C446.996 1171.93 444.245 1166.21 440.502 1161.17C442.701 1164.02 444.57 1167.11 446.07 1170.39L450.089 1180.28C452.85 1187.23 453.693 1194.79 452.528 1202.18C451.388 1209.85 449.147 1217.32 445.873 1224.35C440.178 1239.48 430.96 1253.03 418.983 1263.88C408.039 1272.55 397.686 1281.94 387.991 1291.99C382.668 1297.54 381.914 1299.53 385.645 1296.43C381.173 1300.93 380.335 1306.46 377.619 1311.59C374.332 1316.05 370.639 1320.2 366.589 1323.98C362.731 1327.21 359.277 1330.9 356.299 1334.96C355.684 1336.91 354.722 1338.73 353.459 1340.33C349.958 1344.92 347.788 1350.39 347.189 1356.13C347.191 1363.57 350.019 1370.72 355.102 1376.15L352.07 1374.54C353.186 1377.1 354.469 1379.57 355.911 1381.95C350.137 1380.2 344.754 1377.35 340.054 1373.56C335.091 1368.21 331.442 1361.78 329.397 1354.78V1354.78Z" fill="#F16E7E"/>
<path d="M624.507 1071.19C627.141 1069.6 630.187 1065.54 634.083 1065.51C638.744 1064.66 643.447 1064.06 648.171 1063.7L654.44 1063.14L657.28 1062.85L660.476 1062.45C669.309 1061.56 678.185 1061.17 687.061 1061.28C704.291 1061.44 720.903 1062.76 738.475 1063.4C757.256 1063.71 775.914 1060.28 793.361 1053.31C788.289 1055.09 783.316 1057.15 778.463 1059.46C769.191 1065.01 759.531 1069.88 749.558 1074.04C739.465 1079.47 728.316 1082.64 716.881 1083.33C706.754 1082.75 696.595 1083.07 686.524 1084.3C680.955 1085.23 679.638 1086.03 682.834 1085.63C678.334 1086.24 675.522 1090.42 671.351 1092.1L665.192 1093.02L658.47 1092.75L645.878 1091.17C645.878 1091.17 641.584 1093.08 640.418 1092.46C635.501 1091.23 630.518 1090.29 625.493 1089.64C622.869 1089.15 620.175 1089.2 617.567 1089.77C614.959 1090.33 612.491 1091.42 610.307 1092.95C610.605 1092.22 610.977 1091.51 611.419 1090.85C609.346 1091.33 607.345 1092.08 605.465 1093.08C606.491 1088.35 608.798 1083.99 612.133 1080.48C616.048 1077.11 620.182 1074.01 624.507 1071.19V1071.19Z" fill="#F16E7E"/>
<path d="M945.253 1079.29C945.006 1074.01 946.232 1068.76 948.794 1064.13C952.504 1057.94 957.088 1052.32 962.403 1047.44C962.758 1046.54 963.214 1045.67 963.762 1044.87L964.626 1043.24L965.367 1041.84L970.155 1039C973.182 1037.33 976.333 1035.9 979.579 1034.72C991.167 1030.48 1003.25 1027.74 1015.53 1026.57C1038.73 1023.91 1060.91 1024.29 1083.75 1021.74C1096.26 1020.54 1108.4 1016.8 1119.42 1010.75C1124.42 1007.78 1128.86 1003.96 1132.55 999.472C1136.36 994.785 1139.22 989.393 1140.95 983.603C1138.61 989.997 1135.41 996.043 1131.44 1001.57C1128.06 1007.79 1123.53 1013.3 1118.08 1017.8C1112.32 1022.48 1106.14 1026.61 1099.61 1030.13C1086.57 1038 1072.01 1043.02 1056.89 1044.87C1043.8 1045.42 1030.78 1047.02 1017.95 1049.65C1011.06 1051.38 1009.5 1052.64 1013.53 1051.79C1007.84 1052.96 1005.01 1057.74 1000.35 1060.35C996.02 1062.29 991.517 1063.81 986.901 1064.88L983.925 1066C982.071 1066.97 980.339 1068.16 978.766 1069.54C977.971 1071.6 976.935 1073.56 975.679 1075.37C970.756 1078.85 966.464 1083.15 962.989 1088.07C962.103 1089.18 961.433 1090.45 961.013 1091.81C960.066 1092.77 959.422 1093.99 959.161 1095.31C959.077 1096.92 959.392 1098.52 960.079 1099.98C960.766 1101.44 961.803 1102.7 963.098 1103.66L960.532 1102.31C961.649 1104.79 963.387 1106.95 965.58 1108.56C962.561 1108.46 959.6 1107.71 956.897 1106.36C953.696 1104.58 951.058 1101.95 949.284 1098.74C948.318 1096.99 947.607 1095.1 947.172 1093.15L946.418 1090.06C946.432 1089.1 946.335 1088.15 946.13 1087.22C944.155 1085.87 943.771 1082.09 945.253 1079.29Z" fill="#F16E7E"/>
<path d="M806.299 1161.43C805.435 1163.06 808.891 1166.68 807.78 1168.78C804.432 1180.75 802.359 1193.69 798.969 1207.43C797.096 1214.69 794.641 1221.78 791.628 1228.64C788.513 1236.01 784.207 1242.81 778.882 1248.78C773.342 1255.17 766.748 1260.58 759.388 1264.75C752.342 1268.58 744.911 1271.66 737.219 1273.93C741.684 1273.02 745.91 1271.19 749.621 1268.54C756.246 1262.48 761.491 1255.07 765 1246.81C766.216 1242.98 767.097 1239.04 767.635 1235.06C767.986 1231.07 769.035 1227.18 770.736 1223.56C772.658 1219.43 774.143 1215.11 775.169 1210.67C775.862 1207.65 776.29 1204.58 776.445 1201.49C776.789 1196.89 776.226 1195.7 775.924 1198.52C777.53 1195.49 772.784 1191.49 772.167 1187.58C773.174 1180.1 775.929 1172.96 780.207 1166.74C779.669 1165.03 779.797 1163.17 780.564 1161.55C783.833 1157.71 787.348 1154.08 791.087 1150.69C795.019 1147.32 798.731 1143.69 802.199 1139.84L801.211 1141.71L805.986 1139.46C805.294 1146.77 805.399 1154.14 806.299 1161.43V1161.43Z" fill="#F16E7E"/>
<g opacity="0.85">
<path d="M257.16 1223.84C257.16 1223.84 259.026 1224.83 258.559 1224.58C258.093 1224.33 257.544 1222.55 257.682 1221.72C257.819 1220.9 259.932 1221.42 259.712 1220.71C259.493 1219.99 256.736 1216.74 256.214 1218.86L256.214 1223.93C256.71 1225.56 257.027 1227.23 257.16 1228.92C257.16 1228.92 257.16 1228.92 257.16 1228.92L257.901 1227.52C257.901 1227.52 257.366 1225.14 257.16 1223.84Z" fill="#F16E7E"/>
<path d="M257.888 1237.72C259.52 1238.58 260.151 1236.82 259.246 1235.15C258.601 1235.14 257.963 1235.27 257.368 1235.52C256.774 1235.77 256.237 1236.14 255.789 1236.61C255.789 1236.61 257.298 1237.7 257.888 1237.72Z" fill="#F16E7E"/>
<path d="M267.986 1210.2L268.727 1208.8C268.727 1208.8 267.767 1209.48 267.986 1210.2Z" fill="#F16E7E"/>
</g>
<g opacity="0.85">
<path d="M408.192 1342.37L407.205 1344.23C407.205 1344.23 408.535 1342.85 408.192 1342.37Z" fill="#F16E7E"/>
<path d="M415.067 1350.81C415.067 1350.81 413.435 1349.95 414.45 1351.98C414.839 1353.56 414.881 1355.22 414.573 1356.82C414.573 1356.82 411.953 1357.82 413.215 1359.39C414.477 1360.95 414.943 1366.28 415.711 1363.7C416.479 1361.12 416.562 1357.57 417.468 1354.17C418.374 1350.77 417.249 1348.38 417.441 1345.2C417.634 1344.51 417.971 1343.87 418.429 1343.33C418.049 1344.32 417.552 1345.26 416.947 1346.13C413.175 1345.93 414.889 1348.33 415.067 1350.81Z" fill="#F16E7E"/>
<path d="M414.061 1328.44C413.196 1330.07 412.455 1331.47 411.838 1332.64C412.652 1332.05 413.32 1331.28 413.791 1330.39C414.262 1329.5 414.523 1328.51 414.555 1327.51C414.555 1327.51 414.541 1328.1 414.061 1328.44Z" fill="#F16E7E"/>
<path d="M405.477 1357.63C404.228 1362 402.748 1366.3 401.045 1370.52C401.045 1370.52 401.045 1370.52 401.045 1370.52C401.045 1370.52 401.045 1370.52 400.427 1371.68L399.316 1373.78C399.171 1374.39 398.873 1374.95 398.452 1375.42C398.662 1374.83 398.953 1374.28 399.316 1373.78L397.217 1377.75C397.217 1377.75 396.352 1379.38 395.859 1380.32L394.253 1383.35L395.145 1385.61L394.527 1386.78C394.801 1386.79 395.068 1386.87 395.31 1386.99C395.552 1387.12 395.763 1387.3 395.926 1387.52C396.745 1387.12 397.51 1386.63 398.204 1386.04C398.204 1386.04 395.639 1384.68 399.315 1383.94C396.709 1384.35 400.097 1385.84 398.204 1386.04C397.51 1386.63 396.745 1387.12 395.926 1387.52C395.926 1387.52 394.939 1389.39 394.198 1390.79C393.457 1392.19 395.309 1388.69 395.926 1387.52C395.763 1387.3 395.552 1387.12 395.31 1386.99C395.068 1386.87 394.801 1386.79 394.527 1386.78L395.145 1385.61L394.253 1383.35L392.565 1389.92C390.862 1397.21 390.726 1404.77 392.166 1412.12C393.66 1419.94 397.056 1427.28 402.054 1433.48L406.182 1438.65L411.148 1443.37L420.763 1451.14C426.764 1455.34 432.977 1459.23 439.377 1462.79C442.276 1464.58 444.959 1466.7 447.374 1469.11C449.855 1471.2 451.71 1473.94 452.737 1477.02C453.518 1478.9 454.463 1480.7 455.562 1482.4C455.562 1482.4 455.562 1482.4 456.961 1483.14C459.469 1484.78 462.123 1486.19 464.89 1487.34C466.85 1488.03 468.932 1488.32 471.008 1488.19C472.86 1488 474.583 1487.15 475.854 1485.79C477.124 1484.43 477.855 1482.65 477.909 1480.78C477.65 1475.87 476.934 1470.99 475.77 1466.21C476.73 1470.6 474.041 1469.48 472.56 1467.2C469.752 1464.11 467.841 1460.31 467.033 1456.21C466.343 1453.17 464.927 1450.35 462.906 1447.98C460.885 1445.61 458.319 1443.76 455.429 1442.6C449.986 1440.32 444.758 1437.55 439.805 1434.34C437.24 1432.98 434.908 1431.75 432.11 1430.27L423.29 1423.81L421.424 1422.82L419.792 1421.96L416.061 1419.98C411.688 1415.97 409.064 1410.39 408.751 1404.46C408.353 1401.27 406.186 1398.03 405.213 1394.23C405.483 1391.79 406.136 1389.42 407.148 1387.19C407.576 1384.06 407.65 1380.89 407.368 1377.74C405.886 1380.54 406.997 1383.52 406.681 1386.94C406.365 1390.36 403.65 1385.34 403.705 1382.97C403.76 1380.61 406.092 1381.85 404.94 1380.64C403.788 1379.43 404.652 1377.8 404.46 1375.91C404.268 1374.01 405.859 1376.65 405.077 1374.74C404.296 1372.83 402.595 1369.84 403.679 1368.92C404.763 1368 404.667 1367.06 405.16 1366.12C405.573 1365.65 405.87 1365.09 406.025 1364.49V1364.49L403.926 1363.38C403.926 1363.38 404.667 1361.98 404.914 1361.51C405.161 1361.04 404.173 1362.91 403.926 1363.38L406.025 1364.49C407.151 1362.29 408.383 1360.15 409.716 1358.08V1358.08C409.519 1360.08 408.543 1361.92 406.999 1363.21C406.999 1363.21 406.999 1363.21 406.999 1363.21C407.74 1361.81 406.849 1359.55 409.345 1358.78C409.345 1358.78 409.345 1358.78 410.744 1359.52C412.143 1360.26 410.744 1359.52 410.744 1359.52C409.092 1358.63 407.317 1357.99 405.477 1357.63Z" fill="#F16E7E"/>
</g>
</g>
<defs>
<linearGradient id="paint0_linear_144_378" x1="739.646" y1="1308.44" x2="784.14" y2="418.709" gradientUnits="userSpaceOnUse">
<stop stop-color="#DF3F27"/>
<stop offset="1" stop-color="#FFAA50"/>
</linearGradient>
<linearGradient id="paint1_linear_144_378" x1="741.756" y1="1064.89" x2="737.524" y2="574.194" gradientUnits="userSpaceOnUse">
<stop stop-color="#C81109"/>
<stop offset="1" stop-color="#EF6034"/>
</linearGradient>
<linearGradient id="paint2_linear_144_378" x1="733.885" y1="147.732" x2="733.393" y2="100.584" gradientUnits="userSpaceOnUse">
<stop stop-color="#FFBB3F"/>
<stop offset="1" stop-color="#FFBD2E"/>
</linearGradient>
<clipPath id="clip0_144_378">
<rect width="1335" height="1844" fill="white"/>
</clipPath>
</defs>
</svg>
