<svg width="4654" height="1915" viewBox="0 0 4654 1915" fill="none" xmlns="http://www.w3.org/2000/svg">
<path d="M1568.66 1399H1441.43L1656.87 964.724H1818.03L1889.28 1399H1762.05L1719.64 1084.32H1716.24L1568.66 1399ZM1573.75 1227.66H1812.94L1797.67 1315.88H1558.48L1573.75 1227.66ZM2100.74 1399H1931.1L2003.2 964.724H2166.05C2210.72 964.724 2248.04 973.701 2278.01 991.654C2307.98 1009.61 2329.26 1035.27 2341.84 1068.63C2354.42 1101.99 2356.9 1141.71 2349.26 1187.8C2341.91 1232.19 2327 1270.15 2304.52 1301.67C2282.18 1333.19 2253.63 1357.3 2218.85 1373.98C2184.22 1390.66 2144.85 1399 2100.74 1399ZM2065.54 1298.91H2108.38C2129.86 1298.91 2149.02 1295.17 2165.84 1287.67C2182.8 1280.04 2196.94 1267.32 2208.25 1249.51C2219.7 1231.55 2227.97 1207.03 2233.06 1175.92C2237.87 1146.52 2237.73 1123.83 2232.64 1107.86C2227.55 1091.74 2217.86 1080.57 2203.59 1074.35C2189.31 1067.99 2170.86 1064.81 2148.24 1064.81H2104.56L2065.54 1298.91ZM2652.33 1100.44C2653.61 1086.44 2650.21 1075.48 2642.16 1067.57C2634.1 1059.51 2620.53 1055.48 2601.44 1055.48C2589.28 1055.48 2579.11 1056.89 2570.91 1059.72C2562.85 1062.55 2556.56 1066.44 2552.03 1071.38C2547.65 1076.33 2544.9 1082.06 2543.76 1088.56C2542.49 1093.65 2542.56 1098.31 2543.98 1102.56C2545.53 1106.66 2548.43 1110.4 2552.67 1113.79C2557.05 1117.19 2562.78 1120.23 2569.85 1122.91C2577.06 1125.6 2585.61 1128 2595.5 1130.12L2629.43 1137.76C2652.62 1142.85 2672.05 1149.56 2687.75 1157.9C2703.58 1166.1 2716.02 1175.85 2725.07 1187.16C2734.11 1198.47 2740.05 1211.12 2742.88 1225.12C2745.85 1239.12 2745.92 1254.38 2743.09 1270.92C2738.28 1299.48 2727.19 1323.65 2709.8 1343.44C2692.41 1363.23 2669.72 1378.29 2641.73 1388.61C2613.74 1398.93 2581.37 1404.09 2544.61 1404.09C2507.01 1404.09 2475.06 1398.51 2448.77 1387.34C2422.61 1376.03 2403.67 1358.78 2391.94 1335.6C2380.35 1312.27 2377.52 1282.51 2383.46 1246.32H2495.42C2493.72 1259.61 2495.13 1270.78 2499.66 1279.83C2504.18 1288.88 2511.46 1295.73 2521.5 1300.4C2531.54 1305.06 2544.05 1307.39 2559.03 1307.39C2571.75 1307.39 2582.64 1305.84 2591.69 1302.73C2600.73 1299.62 2607.87 1295.31 2613.1 1289.79C2618.34 1284.28 2621.52 1277.99 2622.65 1270.92C2623.78 1264.42 2622.65 1258.62 2619.25 1253.53C2615.86 1248.45 2609.71 1243.85 2600.81 1239.75C2591.9 1235.65 2579.67 1231.91 2564.12 1228.51L2522.56 1219.18C2485.66 1210.7 2457.81 1196.71 2439.01 1177.2C2420.21 1157.69 2413.57 1130.97 2419.08 1097.04C2423.6 1069.33 2434.98 1045.16 2453.22 1024.52C2471.6 1003.74 2494.92 987.625 2523.2 976.175C2551.61 964.583 2583.06 958.787 2617.56 958.787C2652.62 958.787 2681.95 964.653 2705.56 976.387C2729.31 988.12 2746.34 1004.59 2756.66 1025.79C2767.12 1047 2769.95 1071.88 2765.14 1100.44H2652.33ZM2810.84 1059.72L2826.96 964.724H3204.4L3188.29 1059.72H3057.66L3001.68 1399H2885.48L2941.46 1059.72H2810.84ZM3176.68 1399L3248.77 964.724H3561.76L3545.64 1059.72H3350.56L3338.68 1134.36H3517.65L3501.54 1229.36H3322.57L3310.69 1304H3504.93L3488.81 1399H3176.68ZM3660.94 1399H3533.71L3749.16 964.724H3910.31L3981.56 1399H3854.33L3811.92 1084.32H3808.53L3660.94 1399ZM3666.03 1227.66H3905.22L3889.96 1315.88H3650.77L3666.03 1227.66ZM4023.39 1399L4095.48 964.724H4213.38L4184.55 1140.3H4190.48L4349.94 964.724H4487.35L4309.23 1158.11L4418.65 1399H4277.85L4208.29 1236.15L4159.95 1287.89L4141.29 1399H4023.39Z" fill="#1F1F29"/>
<g clip-path="url(#clip0_144_333)">
<path fill-rule="evenodd" clip-rule="evenodd" d="M358.324 318.668C417.738 271.104 423.421 224.244 367.359 161.56C373.114 214.564 340.985 248.415 309.045 282.068C265.689 327.748 222.679 373.064 275.23 465.426C271.658 387.61 296.864 367.565 348.626 326.399C351.761 323.905 354.994 321.334 358.324 318.668ZM858.013 205.931C798.603 119.119 867.159 71.8778 867.159 71.8778C780.87 97.5311 771.617 161.26 808.392 210.378C817.097 222 825.978 232.053 834.521 241.723C859.407 269.894 881.429 294.821 887.902 345.871C910.249 288.932 879.811 237.771 858.013 205.931ZM1067.99 250.722C1047.91 208.79 1027.67 166.534 1073.39 97.3721C1065.95 151.746 1083.72 184.391 1099.42 213.224C1120.35 251.667 1137.59 283.332 1086.46 350.686C1096.82 310.923 1082.45 280.907 1067.99 250.722ZM1013.03 526.54C1056.99 424.404 1016.85 292.589 906.067 250.556C1006 482.032 673.491 585.875 751.368 329.206C788.895 205.512 741.332 88.8482 623.432 55.936C694.365 166.315 644.801 228.531 591.022 296.037C542.418 357.047 490.372 422.378 520.727 531.49C577.648 688.795 358.313 687.756 418.162 536.334C438.208 485.609 441.212 422.122 358.426 369.395C368.564 434.878 344.29 475.261 311.347 510.247C219.463 607.805 200.646 820 197.41 927.739C226.102 902.56 263.988 881.837 305.847 858.94C316.387 853.174 327.18 847.271 338.141 841.123C417.512 798.526 503.36 768.113 592.387 751.052C793.8 709.324 1011.19 720.216 1173.46 780.518C1221.28 796.744 1263.38 821.133 1296.05 855.115C1290.46 740.468 1264.81 574.534 1240.08 528.76C1230.66 511.322 1220.82 494.747 1211.38 478.864C1173.75 415.504 1142.67 363.178 1171.22 311.139C1116.06 330.575 1077.25 400.781 1105.38 478.235C1166.27 634.903 973.29 618.877 1013.03 526.54ZM1190.6 923.594C1185.1 918.81 1179.21 914.401 1172.98 910.41C1158.67 901.143 1143.26 893.452 1127.05 887.484C987.019 836.034 795.48 826.385 616.726 863.28C540.648 877.886 467.276 903.852 399.406 940.187C369.505 954.747 343.014 974.569 321.281 998.361L355.466 1010.79C505.168 1000.88 650.897 986.147 874.281 927.205C979.683 899.39 1100.14 909.876 1190.6 923.594Z" fill="url(#paint0_linear_144_333)"/>
<path opacity="0.5" fill-rule="evenodd" clip-rule="evenodd" d="M1235.87 1001.11L745.681 1012.09L302.177 1022.03C326.64 987.605 360.075 959.345 399.409 940.191C467.28 903.856 540.651 877.891 616.729 863.284C795.484 826.389 987.022 836.038 1127.05 887.488C1143.27 893.456 1158.67 901.147 1172.98 910.414C1193.13 923.317 1209.67 940.582 1221.26 960.811C1228.38 973.432 1233.3 987.036 1235.87 1001.11ZM221.677 908.664C250.953 883.177 289.002 861.464 335.713 835.268C415.083 792.671 503.363 768.117 592.39 751.056C793.803 709.328 1011.19 720.22 1173.46 780.522C1207.05 791.92 1237.84 805.852 1264.52 824.319C1255.55 753.122 1240.43 682.708 1215.97 655.298C1187.81 623.747 1162.81 585.384 1177.24 527.786C1136.9 555.685 1126.59 582.7 1125.37 606.324C1118.2 745.51 923.045 736.35 955.973 582.321C958.085 572.447 962.258 561.603 966.605 550.306C976.8 523.812 987.954 494.824 975.742 470.007C964.59 500.2 942.279 517.624 921.356 533.965C892.058 556.846 865.481 577.603 876.073 628.318C892.211 705.61 818.058 718.149 831.392 637.617C837.03 603.584 821.61 576.975 768.411 560.713C788.051 616.142 771.16 676.177 705.798 699.709C745.507 627.26 707.19 569.648 674.53 520.543C653.699 489.222 635.169 461.362 640.655 435.32C574.208 482.961 583.961 526.365 594.042 571.229C598.481 590.985 602.984 611.024 601.071 631.833C591.613 734.823 421.099 754.949 390.503 651.643C390.503 651.643 372.468 701.272 379.682 730.494C345.847 698.841 359.158 664.214 372.742 628.878C384.344 598.697 396.145 567.999 378.94 538.194C366.494 566.804 348.67 587.545 329.321 605.432C282.782 648.456 238.987 794.026 221.677 908.664Z" fill="url(#paint1_linear_144_333)"/>
<path fill-rule="evenodd" clip-rule="evenodd" d="M348.297 457.37C359.113 433.36 363.881 405.096 358.339 369.312C414.189 404.868 430.993 445.326 429.87 483.455C418.23 465.471 402.782 435.554 376.728 420.486C369.869 433.609 357.064 448.92 348.296 457.37L348.297 457.37ZM569.298 323.651C629.221 244.351 703.881 181.117 623.381 55.8884C741.298 88.8029 788.868 205.45 751.336 329.12C750.01 333.486 748.828 337.716 747.737 341.868C723.002 368.497 693.355 377.725 693.355 377.725C693.355 377.725 747.873 279.42 710.004 207.225C703.948 230.661 681.887 259.488 622.833 288.242C601.889 298.435 584.231 310.515 569.298 323.651V323.651ZM821.952 147.266C821.952 147.266 809.254 181.199 817.775 222.254C814.63 218.437 811.494 214.479 808.375 210.315C771.587 161.205 780.849 97.4844 867.143 71.8416C867.143 71.8416 814.584 108.049 841.39 175.319C832.913 165.554 825.514 155.515 821.952 147.266V147.266ZM906.056 250.48C950.307 267.272 983.28 298.388 1004.13 336.202C1021.23 383.349 1008.17 422.652 1008.17 422.652C1008.17 422.652 1006.74 390.037 951.961 341.731C943.755 370.627 926.757 385.571 914.482 392.901C929.057 355.114 930.272 306.563 906.056 250.48ZM1107 482.478C1106.47 481.037 1105.96 479.61 1105.39 478.135C1077.26 400.691 1116.08 330.495 1171.24 311.061C1149.49 350.696 1162.36 390.501 1186.36 435.229C1172.97 423.453 1158.45 408.314 1146.88 390.308C1146.88 390.308 1112.3 429.794 1107 482.478ZM1075.91 267.554C1078.22 255.003 1079.22 236.93 1076.08 211.599C1073.84 193.467 1075.35 179.04 1078.62 167.685C1072.55 148.502 1069.48 125.927 1073.4 97.3247C1021.55 175.746 1054.53 219.565 1075.91 267.554V267.554ZM289.596 302.906C312.079 286.862 337.582 270.858 363.455 259.025C363.91 258.822 364.334 258.612 364.779 258.402C356.119 316.246 319.799 349.887 319.799 349.887L319.801 349.887C330.69 340.302 343.514 330.379 358.238 318.592C417.658 271.034 423.342 224.181 367.274 161.505C374.209 225.411 326.076 261.472 289.597 302.906L289.596 302.906" fill="url(#paint2_linear_144_333)"/>
<path d="M1274.63 1071.02C1269.89 1035.97 1256.87 1002.56 1236.65 973.562C1200.03 924.486 1147.08 890.116 1087.36 876.641C917.259 831.441 697.87 844.988 501.178 912.663C415.38 940.637 334.624 982.218 261.997 1035.82C201.906 1077.51 156.999 1137.62 134.063 1207.08L86.2938 1387.61C77.3013 1417.82 77.7432 1450.05 87.5606 1479.98C110.453 1542.95 146.402 1600.35 193.048 1648.41C270.988 1727.27 369.467 1782.69 477.319 1808.39C594.603 1840.58 693.275 1830.66 778.001 1781.11C852.918 1737.11 908.578 1668.59 967.283 1596C1023.08 1526.66 1081.06 1454.88 1157.88 1405.03C1184.75 1388.47 1204.53 1362.54 1213.4 1332.25L1273.7 1105.48C1276.33 1094.17 1276.64 1082.45 1274.63 1071.02V1071.02Z" fill="#1F1F29"/>
<path d="M298.53 1812.1C240.662 1781.76 188.053 1742.3 142.715 1695.25C89.5527 1640.29 48.5457 1574.76 22.3565 1502.91C7.94477 1460.35 6.91351 1414.38 19.4014 1371.2L67.4816 1190.5C87.4532 1114.9 138.504 1044.98 219.645 982.6C297.968 924.781 385.083 879.956 477.641 849.849C686.566 778.196 920.629 764.124 1103.34 812.636C1178.08 830.129 1244.18 873.586 1289.88 935.276C1317.09 973.347 1334.79 1017.39 1341.5 1063.72C1344.02 1083.97 1342.49 1104.51 1337.01 1124.17L1276.74 1351.08C1263.8 1396.79 1234.47 1436.12 1194.36 1461.57C1125.82 1505.78 1071.28 1573.26 1018.81 1637.95C958.914 1712.16 896.829 1788.81 811.361 1839.03C710.558 1897.88 595.031 1908.86 459.901 1873.26C403.941 1859.13 349.795 1838.61 298.53 1812.1ZM1122.73 959.623C1106.01 950.876 1088.37 944.047 1070.12 939.265C912.537 898.067 706.297 910.406 520.856 973.841C441.764 999.6 367.306 1037.88 300.317 1087.22C251.365 1120.31 214.476 1168.41 195.206 1224.28L147.359 1405.1C141.88 1422.44 141.735 1441.02 146.942 1458.43C166.894 1512.66 197.955 1562.12 238.134 1603.62C308.008 1673.44 395.803 1722.59 491.845 1745.65C593.134 1772.32 672.855 1765.74 742.15 1724.62C806.993 1686.82 858.62 1622.59 913.642 1554.77C972.937 1481.13 1034.29 1405.29 1120.6 1349.54C1133.61 1341.84 1143.36 1329.65 1148 1315.27L1208.27 1088.36C1209.17 1085.58 1209.59 1082.68 1209.54 1079.76C1206.05 1054.89 1196.62 1031.22 1182.07 1010.77C1166.58 989.292 1146.25 971.771 1122.73 959.623V959.623Z" fill="#3B2314"/>
<path d="M476.166 1801.51C369.688 1775.94 272.459 1721.18 195.393 1643.38C149.414 1596.02 113.934 1539.48 91.2633 1477.47C81.9988 1448.8 81.6479 1418 90.2568 1389.12L138.026 1208.59C160.41 1140.13 204.731 1080.96 264.122 1040.23C336.07 987.089 416.056 945.813 501.039 917.972C696.771 850.984 914.377 837.986 1083.43 882.336C1141.65 895.442 1193.27 928.899 1229.01 976.692C1248.93 1004.84 1261.82 1037.37 1266.57 1071.54C1267.98 1082.21 1267.12 1093.05 1264.06 1103.37L1203.76 1330.14C1195.46 1358.79 1176.74 1383.31 1151.28 1398.85C1073.27 1449.27 1014.81 1521.39 959.696 1591.69C904.585 1662 846.415 1731.88 772.925 1775.44C689.407 1823.84 592.888 1832.51 476.166 1801.51Z" fill="#D5A763"/>
<path d="M498.939 1655.24C220.557 1581.72 144.529 1344.64 180.895 1207.66C204.116 1132.53 253.86 1068.4 320.847 1027.22C391.883 980.822 469.669 945.706 551.438 923.124C707.619 876.728 893.963 857.941 1004.69 877.701C1020.52 880.501 1035.79 883.801 1050.49 887.6C1104.06 899.582 1153.65 925.104 1194.54 961.728C1215.58 981.569 1230.78 1006.8 1238.5 1034.69C1246.21 1062.57 1246.14 1092.04 1238.29 1119.9C1210.59 1224.72 1126.69 1274.41 1051.34 1316.39C1024.59 1331.2 998.606 1347.35 973.491 1364.8C938.215 1395.42 908.697 1432.1 886.332 1473.11C853.617 1532.88 808.774 1585.16 754.682 1626.58C686.198 1673.08 602.285 1682.75 498.939 1655.24Z" fill="#F9E5D2"/>
<path d="M351.803 1065.73C397.018 1035.85 445.608 1011.43 496.559 992.981C493.011 1089.38 434.278 1158.06 373.941 1224.71C355.839 1173.78 348.307 1119.69 351.803 1065.73V1065.73ZM881.844 1052.88C886.901 1043.42 892.841 1034.46 899.584 1026.12C919.958 998.843 947.017 977.276 978.146 963.505C1009.27 949.734 1043.42 944.223 1077.29 947.506C1050.82 937.736 1023.48 930.472 995.645 925.81C919.48 916.054 842.329 916.841 766.366 928.15C775.3 1030.85 849.114 1049.3 881.844 1052.88V1052.88ZM350.578 1249.68C334.148 1190.69 333.162 1128.45 347.714 1068.95C291.047 1103.54 248.63 1157.28 228.15 1220.45C214.878 1281.52 222.319 1345.26 249.299 1401.6C271.985 1344.51 306.363 1292.8 350.221 1249.79L350.578 1249.68ZM889.427 1223.57C877.183 1303.11 852.484 1380.25 708.526 1418.78C890.816 1336.02 840.936 1212.54 863.65 1104.19C834.716 1091.37 808.5 1073.13 786.41 1050.47C712.728 1092.13 624.761 1037.82 560.676 1138.62C586.75 1032.94 713.225 1060.73 763.148 1020.54C746.946 993.64 740.01 962.165 743.403 930.934C659.412 942.791 576.884 963.392 497.163 992.404C510.037 1204.42 309.217 1266.93 274.453 1446.57C330.281 1528.32 414.873 1585.98 511.356 1608.07L524.854 1611.33C545.515 1449.31 462.224 1417.19 462.224 1417.19C475.614 1417.45 488.717 1421.1 500.307 1427.81C511.896 1434.52 521.594 1444.06 528.491 1455.54C546.921 1447.97 566.97 1445.22 586.751 1447.54C569.483 1454.67 554.451 1466.32 543.235 1481.26C561.702 1525.37 572.81 1572.22 576.117 1619.94C803.171 1642.11 826.898 1409.43 945.139 1324.73C969.953 1307.08 995.709 1290.8 1022.29 1275.95C997.585 1278.3 972.675 1274.8 949.574 1265.74C926.473 1256.68 905.828 1242.31 889.304 1223.8L889.427 1223.57ZM1034.27 1137.12C1034.27 1137.12 1144.07 1105.61 1183.66 1027.39C1176.18 1013.78 1166.36 1001.61 1154.64 991.422C1111.44 986.188 996.847 980.511 937.84 1055.92C917.063 1084.29 903.82 1117.47 899.352 1152.35C910.323 1188.03 949.054 1268.26 1067.39 1250.52C1123.78 1216.15 1172.02 1177.45 1190.9 1106.79C1192.6 1100.26 1193.82 1093.62 1194.55 1086.92C1146.71 1118.38 1091.11 1135.99 1033.9 1137.82L1034.27 1137.12Z" fill="#D4243A"/>
<path d="M439.155 1622.72C439.155 1622.72 323.303 1539.32 294.968 1625.58C272.697 1694.75 296.468 1713 381.665 1754.5C466.862 1795.99 641.074 1836.8 730.958 1783.7C803.435 1743.71 865.244 1686.88 911.17 1617.99C959.998 1548.84 988.632 1353.71 902.572 1445.27C872.678 1476.95 701.566 1728.12 439.155 1622.72Z" fill="#F9E5D2"/>
<path d="M1137.94 1277.43C1137.94 1277.43 1120.93 1384.03 1095.85 1426.91C1070.77 1469.8 1165.97 1355.88 1165.97 1355.88L1214.42 1232.17L1137.94 1277.43Z" fill="#AC6A28"/>
<path d="M1274.63 1071.02C1269.89 1035.97 1256.87 1002.56 1236.65 973.562C1200.03 924.486 1147.08 890.116 1087.36 876.641C917.259 831.441 697.87 844.988 501.178 912.663C415.38 940.637 334.624 982.218 261.997 1035.82C201.906 1077.51 156.999 1137.62 134.063 1207.08L86.2938 1387.61C77.3013 1417.82 77.7432 1450.05 87.5606 1479.98C110.453 1542.95 146.402 1600.35 193.048 1648.41C270.988 1727.27 369.467 1782.69 477.319 1808.39C594.603 1840.58 693.275 1830.66 778.001 1781.11C852.918 1737.11 908.578 1668.59 967.283 1596C1023.08 1526.66 1081.06 1454.88 1157.88 1405.03C1184.75 1388.47 1204.53 1362.54 1213.4 1332.25L1273.7 1105.48C1276.33 1094.17 1276.64 1082.45 1274.63 1071.02V1071.02ZM1136.29 1374.19C1053.97 1427.11 994.165 1501.2 936.311 1572.74C821.74 1712.55 723.605 1835.96 484.634 1773.13C230.19 1705.7 145.238 1537.39 120.539 1467.86C113.329 1444.98 113.203 1420.44 120.176 1397.47L138.413 1329.16C153.539 1401.74 188.733 1468.59 239.987 1522.12C291.24 1575.64 356.495 1613.69 428.322 1631.92C176.133 1513.41 179.033 1313.32 183.925 1225.1L188.069 1209.37C215.775 1104.55 323.921 1012.43 511.943 947.035C699.965 881.643 927.38 863.082 1076.73 911.943C1203.95 953.57 1230.58 1016.05 1237.92 1076.09C1238.07 1078.09 1238.11 1080.11 1238.01 1082.11C1237.27 1083.51 1236.53 1084.91 1237.53 1087.53C1236.3 1089.87 1235.91 1096.24 1235.91 1096.24C1170.56 1337.06 982.023 1237.59 849.797 1526.97C1009.42 1307.65 1104.26 1355.74 1194.62 1252.11L1175.61 1323.01C1169.3 1344.35 1155.29 1362.59 1136.29 1374.19Z" fill="#3B2314"/>
<path d="M684.318 1166.74C653.513 1159.65 621.306 1161.71 591.64 1172.66C561.358 1182.52 534.675 1201.14 514.967 1226.18C506.572 1236.63 500.244 1248.59 496.321 1261.41C493.219 1272.92 485.055 1304.14 485.055 1304.14C483.016 1314.95 484.406 1326.13 489.03 1336.11C494.033 1348.89 502.17 1360.2 512.69 1369C523.21 1377.81 535.776 1383.82 549.232 1386.49C580.028 1393.68 612.267 1391.62 641.909 1380.57C672.247 1370.75 699.007 1352.17 718.817 1327.17C725.845 1318.78 731.021 1309 734.005 1298.47C737.298 1288.86 743.199 1263.61 744.119 1259.61C748.381 1245.53 747.988 1230.44 742.998 1216.6C738.125 1204.07 730.21 1192.95 719.965 1184.24C709.721 1175.54 697.471 1169.52 684.318 1166.74V1166.74Z" fill="#1F1F29"/>
<path d="M680.561 1181.15C691.623 1183.34 701.97 1188.23 710.679 1195.39C719.389 1202.55 726.19 1211.76 730.476 1222.2C744.519 1262.78 707.119 1312.59 647.02 1333.66C619.95 1343.59 590.572 1345.38 562.504 1338.82C551.409 1336.76 541.011 1331.95 532.267 1324.81C523.523 1317.68 516.713 1308.46 512.466 1298.01C498.19 1257.3 535.713 1207.25 595.922 1186.54C623 1176.48 652.434 1174.6 680.561 1181.15Z" fill="#F9E5D2"/>
<path d="M649.864 1222.24C655.164 1223.26 660.128 1225.59 664.311 1229C668.495 1232.41 671.769 1236.81 673.841 1241.79C680.588 1261.2 662.561 1285.11 633.643 1295.2C620.676 1300.03 606.586 1300.98 593.093 1297.94C587.781 1296.89 582.816 1294.53 578.65 1291.08C574.484 1287.62 571.248 1283.17 569.239 1278.15C562.259 1258.62 580.286 1234.71 609.204 1224.62C622.24 1219.88 636.37 1219.06 649.864 1222.24V1222.24Z" fill="#1F1F29"/>
<path d="M624.174 1518.43C625.902 1515.16 628.496 1510.26 630.224 1506.99C634.905 1503.65 639.916 1500.8 645.177 1498.48L646.042 1496.84L646.783 1495.44L650.116 1494.22L657.497 1491.55C667.484 1488.47 676.62 1486.44 685.756 1484.4C694.892 1482.37 703.658 1481.03 712.561 1478.87C721.398 1476.99 730.066 1474.39 738.474 1471.08C747.506 1467.34 755.274 1461.08 760.85 1453.05C765.389 1444.68 767.025 1435.04 765.503 1425.64C766.435 1431.21 765.474 1436.98 766.05 1442.66C766.205 1448.64 765.184 1454.59 763.044 1460.18C761.059 1466.15 758.096 1471.75 754.277 1476.75C746.324 1487.45 735.31 1495.48 722.696 1499.77C707.017 1504.02 696.33 1506.73 690.143 1508.83C683.956 1510.93 682.982 1512.21 686.549 1511.11C681.789 1512.77 679.552 1517.56 675.245 1520.06C671.162 1521.82 666.838 1522.96 662.418 1523.43L659.455 1523.95L658.056 1523.21L652.363 1524.38C652.363 1524.38 650.264 1528.35 647.918 1527.71C642.797 1528.8 637.784 1530.34 632.938 1532.33C631.215 1533.07 629.692 1534.21 628.493 1535.65C628.493 1535.65 628.493 1535.65 627.752 1537.05C628.662 1537.91 629.791 1538.51 631.017 1538.78L628.534 1538.96C629.955 1540.76 631.627 1542.35 633.499 1543.67C631.015 1544.23 628.448 1544.29 625.941 1543.86C624.418 1543.38 622.996 1542.62 621.743 1541.64C619.868 1540.31 618.465 1538.41 617.738 1536.23C616.864 1534.01 616.594 1531.6 616.957 1529.25C617.671 1527.44 618.582 1525.72 619.674 1524.11C620.993 1522.08 622.5 1520.18 624.174 1518.43V1518.43Z" fill="#F16E7E"/>
<path d="M335.397 1404.78C334.246 1402.15 333.284 1399.45 332.517 1396.68C331.635 1393.56 331.63 1390.25 332.504 1387.12C334.24 1379.48 337.201 1372.17 341.272 1365.47C344.97 1359.6 349.045 1353.97 353.468 1348.63C361.785 1339.39 370.743 1330.76 380.275 1322.79C389.426 1315.08 398.563 1307.97 407.823 1300.62C417.083 1293.28 426.11 1285.81 434.684 1277.5C443.616 1268.72 450.34 1257.94 454.304 1246.06C455.99 1240.17 456.095 1233.94 454.607 1228C452.996 1221.93 450.245 1216.21 446.502 1211.17C448.701 1214.02 450.57 1217.11 452.07 1220.39L456.089 1230.28C458.85 1237.23 459.693 1244.79 458.528 1252.18C457.388 1259.85 455.147 1267.32 451.873 1274.35C446.178 1289.48 436.96 1303.03 424.983 1313.88C414.039 1322.55 403.686 1331.94 393.991 1341.99C388.668 1347.54 387.914 1349.53 391.645 1346.43C387.173 1350.93 386.335 1356.46 383.619 1361.59C380.332 1366.05 376.639 1370.2 372.589 1373.98C368.731 1377.21 365.277 1380.9 362.299 1384.96C361.684 1386.91 360.722 1388.73 359.459 1390.33C355.958 1394.92 353.788 1400.39 353.189 1406.13C353.191 1413.57 356.019 1420.72 361.102 1426.15L358.07 1424.54C359.186 1427.1 360.469 1429.57 361.911 1431.95C356.137 1430.2 350.754 1427.35 346.054 1423.56C341.091 1418.21 337.442 1411.78 335.397 1404.78V1404.78Z" fill="#F16E7E"/>
<path d="M630.507 1121.19C633.141 1119.6 636.187 1115.54 640.083 1115.51C644.744 1114.66 649.447 1114.06 654.171 1113.7L660.44 1113.14L663.28 1112.85L666.476 1112.45C675.309 1111.56 684.185 1111.17 693.061 1111.28C710.291 1111.44 726.903 1112.76 744.475 1113.4C763.256 1113.71 781.914 1110.28 799.361 1103.31C794.289 1105.09 789.316 1107.15 784.463 1109.46C775.191 1115.01 765.531 1119.88 755.558 1124.04C745.465 1129.47 734.316 1132.64 722.881 1133.33C712.754 1132.75 702.595 1133.07 692.524 1134.3C686.955 1135.23 685.638 1136.03 688.834 1135.63C684.334 1136.24 681.522 1140.42 677.351 1142.1L671.192 1143.02L664.47 1142.75L651.878 1141.17C651.878 1141.17 647.584 1143.08 646.418 1142.46C641.501 1141.23 636.518 1140.29 631.493 1139.64C628.869 1139.15 626.175 1139.2 623.567 1139.77C620.959 1140.33 618.491 1141.42 616.307 1142.95C616.605 1142.22 616.977 1141.51 617.419 1140.85C615.346 1141.33 613.345 1142.08 611.465 1143.08C612.491 1138.35 614.798 1133.99 618.133 1130.48C622.048 1127.11 626.182 1124.01 630.507 1121.19V1121.19Z" fill="#F16E7E"/>
<path d="M951.254 1129.29C951.007 1124.01 952.233 1118.76 954.795 1114.13C958.505 1107.94 963.089 1102.32 968.404 1097.44C968.759 1096.54 969.215 1095.67 969.763 1094.87L970.627 1093.24L971.368 1091.84L976.156 1089C979.183 1087.33 982.334 1085.9 985.58 1084.72C997.168 1080.48 1009.25 1077.74 1021.54 1076.57C1044.73 1073.91 1066.91 1074.29 1089.75 1071.74C1102.27 1070.54 1114.4 1066.8 1125.42 1060.75C1130.42 1057.78 1134.86 1053.96 1138.55 1049.47C1142.36 1044.79 1145.22 1039.39 1146.95 1033.6C1144.61 1040 1141.41 1046.04 1137.44 1051.57C1134.06 1057.79 1129.53 1063.3 1124.08 1067.8C1118.32 1072.48 1112.14 1076.61 1105.61 1080.13C1092.57 1088 1078.01 1093.02 1062.89 1094.87C1049.8 1095.42 1036.78 1097.02 1023.95 1099.65C1017.06 1101.38 1015.5 1102.64 1019.53 1101.79C1013.84 1102.96 1011.01 1107.74 1006.35 1110.35C1002.02 1112.29 997.518 1113.81 992.902 1114.88L989.926 1116C988.072 1116.97 986.34 1118.16 984.767 1119.54C983.972 1121.6 982.936 1123.56 981.68 1125.37C976.757 1128.85 972.465 1133.15 968.99 1138.07C968.104 1139.18 967.434 1140.45 967.014 1141.81C966.067 1142.77 965.423 1143.99 965.162 1145.31C965.078 1146.92 965.393 1148.52 966.08 1149.98C966.767 1151.44 967.804 1152.7 969.098 1153.66L966.533 1152.31C967.65 1154.79 969.388 1156.95 971.581 1158.56C968.562 1158.46 965.601 1157.71 962.898 1156.36C959.697 1154.58 957.059 1151.95 955.285 1148.74C954.319 1146.99 953.608 1145.1 953.173 1143.15L952.419 1140.06C952.433 1139.1 952.336 1138.15 952.131 1137.22C950.156 1135.87 949.772 1132.09 951.254 1129.29Z" fill="#F16E7E"/>
<path d="M812.299 1211.43C811.435 1213.06 814.891 1216.68 813.78 1218.78C810.432 1230.75 808.359 1243.69 804.969 1257.43C803.096 1264.69 800.641 1271.78 797.628 1278.64C794.513 1286.01 790.207 1292.81 784.882 1298.78C779.342 1305.17 772.748 1310.58 765.388 1314.75C758.342 1318.58 750.911 1321.66 743.219 1323.93C747.684 1323.02 751.91 1321.19 755.621 1318.54C762.246 1312.48 767.491 1305.07 771 1296.81C772.216 1292.98 773.097 1289.04 773.635 1285.06C773.986 1281.07 775.035 1277.18 776.736 1273.56C778.658 1269.43 780.143 1265.11 781.169 1260.67C781.862 1257.65 782.29 1254.58 782.445 1251.49C782.789 1246.89 782.226 1245.7 781.924 1248.52C783.53 1245.49 778.784 1241.49 778.167 1237.58C779.174 1230.1 781.929 1222.96 786.207 1216.74C785.669 1215.03 785.797 1213.17 786.564 1211.55C789.833 1207.71 793.348 1204.08 797.087 1200.69C801.019 1197.32 804.731 1193.69 808.199 1189.84L807.211 1191.71L811.986 1189.46C811.294 1196.77 811.399 1204.14 812.299 1211.43V1211.43Z" fill="#F16E7E"/>
<g opacity="0.85">
<path d="M263.16 1273.84C263.16 1273.84 265.026 1274.83 264.559 1274.58C264.093 1274.33 263.544 1272.55 263.682 1271.72C263.819 1270.9 265.932 1271.42 265.712 1270.71C265.493 1269.99 262.736 1266.74 262.214 1268.86L262.214 1273.93C262.71 1275.56 263.027 1277.23 263.16 1278.92C263.16 1278.92 263.16 1278.92 263.16 1278.92L263.901 1277.52C263.901 1277.52 263.366 1275.14 263.16 1273.84Z" fill="#F16E7E"/>
<path d="M263.888 1287.72C265.52 1288.58 266.151 1286.82 265.246 1285.15C264.601 1285.14 263.963 1285.27 263.368 1285.52C262.774 1285.77 262.237 1286.14 261.789 1286.61C261.789 1286.61 263.298 1287.7 263.888 1287.72Z" fill="#F16E7E"/>
<path d="M273.986 1260.2L274.727 1258.8C274.727 1258.8 273.767 1259.48 273.986 1260.2Z" fill="#F16E7E"/>
</g>
<g opacity="0.85">
<path d="M414.192 1392.37L413.205 1394.23C413.205 1394.23 414.535 1392.85 414.192 1392.37Z" fill="#F16E7E"/>
<path d="M421.067 1400.81C421.067 1400.81 419.435 1399.95 420.45 1401.98C420.839 1403.56 420.881 1405.22 420.573 1406.82C420.573 1406.82 417.953 1407.82 419.215 1409.39C420.477 1410.95 420.943 1416.28 421.711 1413.7C422.479 1411.12 422.562 1407.57 423.468 1404.17C424.374 1400.77 423.249 1398.38 423.441 1395.2C423.634 1394.51 423.971 1393.87 424.429 1393.33C424.049 1394.32 423.552 1395.26 422.947 1396.13C419.175 1395.93 420.889 1398.33 421.067 1400.81Z" fill="#F16E7E"/>
<path d="M420.061 1378.44C419.196 1380.07 418.455 1381.47 417.838 1382.64C418.652 1382.05 419.32 1381.28 419.791 1380.39C420.262 1379.5 420.523 1378.51 420.555 1377.51C420.555 1377.51 420.541 1378.1 420.061 1378.44Z" fill="#F16E7E"/>
<path d="M411.477 1407.63C410.228 1412 408.748 1416.3 407.045 1420.52C407.045 1420.52 407.045 1420.52 407.045 1420.52C407.045 1420.52 407.045 1420.52 406.427 1421.68L405.316 1423.78C405.171 1424.39 404.873 1424.95 404.452 1425.42C404.662 1424.83 404.953 1424.28 405.316 1423.78L403.217 1427.75C403.217 1427.75 402.352 1429.38 401.859 1430.32L400.253 1433.35L401.145 1435.61L400.527 1436.78C400.801 1436.79 401.068 1436.87 401.31 1436.99C401.552 1437.12 401.763 1437.3 401.926 1437.52C402.745 1437.12 403.51 1436.63 404.204 1436.04C404.204 1436.04 401.639 1434.68 405.315 1433.94C402.709 1434.35 406.097 1435.84 404.204 1436.04C403.51 1436.63 402.745 1437.12 401.926 1437.52C401.926 1437.52 400.939 1439.39 400.198 1440.79C399.457 1442.19 401.309 1438.69 401.926 1437.52C401.763 1437.3 401.552 1437.12 401.31 1436.99C401.068 1436.87 400.801 1436.79 400.527 1436.78L401.145 1435.61L400.253 1433.35L398.565 1439.92C396.862 1447.21 396.726 1454.77 398.166 1462.12C399.66 1469.94 403.056 1477.28 408.054 1483.48L412.182 1488.65L417.148 1493.37L426.763 1501.14C432.764 1505.34 438.977 1509.23 445.377 1512.79C448.276 1514.58 450.959 1516.7 453.374 1519.11C455.855 1521.2 457.71 1523.94 458.737 1527.02C459.518 1528.9 460.463 1530.7 461.562 1532.4C461.562 1532.4 461.562 1532.4 462.961 1533.14C465.469 1534.78 468.123 1536.19 470.89 1537.34C472.85 1538.03 474.932 1538.32 477.008 1538.19C478.86 1538 480.583 1537.15 481.854 1535.79C483.124 1534.43 483.855 1532.65 483.909 1530.78C483.65 1525.87 482.934 1520.99 481.77 1516.21C482.73 1520.6 480.041 1519.48 478.56 1517.2C475.752 1514.11 473.841 1510.31 473.033 1506.21C472.343 1503.17 470.927 1500.35 468.906 1497.98C466.885 1495.61 464.319 1493.76 461.429 1492.6C455.986 1490.32 450.758 1487.55 445.805 1484.34C443.24 1482.98 440.908 1481.75 438.11 1480.27L429.29 1473.81L427.424 1472.82L425.792 1471.96L422.061 1469.98C417.688 1465.97 415.064 1460.39 414.751 1454.46C414.353 1451.27 412.186 1448.03 411.213 1444.23C411.483 1441.79 412.136 1439.42 413.148 1437.19C413.576 1434.06 413.65 1430.89 413.368 1427.74C411.886 1430.54 412.997 1433.52 412.681 1436.94C412.365 1440.36 409.65 1435.34 409.705 1432.97C409.76 1430.61 412.092 1431.85 410.94 1430.64C409.788 1429.43 410.652 1427.8 410.46 1425.91C410.268 1424.01 411.859 1426.65 411.077 1424.74C410.296 1422.83 408.595 1419.84 409.679 1418.92C410.763 1418 410.667 1417.06 411.16 1416.12C411.573 1415.65 411.87 1415.09 412.025 1414.49V1414.49L409.926 1413.38C409.926 1413.38 410.667 1411.98 410.914 1411.51C411.161 1411.04 410.173 1412.91 409.926 1413.38L412.025 1414.49C413.151 1412.29 414.383 1410.15 415.716 1408.08V1408.08C415.519 1410.08 414.543 1411.92 412.999 1413.21C412.999 1413.21 412.999 1413.21 412.999 1413.21C413.74 1411.81 412.849 1409.55 415.345 1408.78C415.345 1408.78 415.345 1408.78 416.744 1409.52C418.143 1410.26 416.744 1409.52 416.744 1409.52C415.092 1408.63 413.317 1407.99 411.477 1407.63Z" fill="#F16E7E"/>
</g>
</g>
<defs>
<linearGradient id="paint0_linear_144_333" x1="745.647" y1="1358.44" x2="790.141" y2="468.709" gradientUnits="userSpaceOnUse">
<stop stop-color="#DF3F27"/>
<stop offset="1" stop-color="#FFAA50"/>
</linearGradient>
<linearGradient id="paint1_linear_144_333" x1="747.757" y1="1114.88" x2="743.525" y2="624.186" gradientUnits="userSpaceOnUse">
<stop stop-color="#C81109"/>
<stop offset="1" stop-color="#EF6034"/>
</linearGradient>
<linearGradient id="paint2_linear_144_333" x1="739.886" y1="197.732" x2="739.394" y2="150.584" gradientUnits="userSpaceOnUse">
<stop stop-color="#FFBB3F"/>
<stop offset="1" stop-color="#FFBD2E"/>
</linearGradient>
<clipPath id="clip0_144_333">
<rect width="1335" height="1894.24" fill="white" transform="translate(6)"/>
</clipPath>
</defs>
</svg>
