<svg width="4654" height="1915" viewBox="0 0 4654 1915" fill="none" xmlns="http://www.w3.org/2000/svg">
<path d="M1564.66 1222H1451.85L1670.48 787.724H1810.22L1884.64 1222H1771.83L1724.12 897.141H1720.73L1564.66 1222ZM1578.23 1051.09H1814.03L1800.46 1130.82H1564.66L1578.23 1051.09ZM2094.25 1222H1931.4L2003.5 787.724H2161.47C2205.58 787.724 2242.34 796.701 2271.74 814.654C2301.29 832.466 2322.14 858.054 2334.29 891.416C2346.59 924.637 2348.93 964.219 2341.29 1010.16C2333.94 1054.55 2319.17 1092.58 2296.97 1124.25C2274.92 1155.91 2246.65 1180.16 2212.15 1196.98C2177.66 1213.66 2138.36 1222 2094.25 1222ZM2051 1132.52H2100.83C2125.14 1132.52 2146.63 1128.13 2165.29 1119.37C2184.09 1110.46 2199.64 1096.26 2211.94 1076.75C2224.24 1057.1 2233.01 1031.3 2238.24 999.349C2243.33 968.814 2243.11 944.711 2237.6 927.04C2232.23 909.228 2221.77 896.505 2206.22 888.871C2190.81 881.096 2170.66 877.209 2145.78 877.209H2093.62L2051 1132.52ZM2652.37 918.77C2653.5 902.796 2649.26 890.426 2639.64 881.662C2630.17 872.897 2615.19 868.515 2594.69 868.515C2581.12 868.515 2569.53 870.282 2559.91 873.816C2550.3 877.209 2542.74 882.015 2537.22 888.235C2531.71 894.314 2528.25 901.382 2526.83 909.44C2525.56 915.802 2525.92 921.456 2527.89 926.404C2529.87 931.352 2533.34 935.734 2538.28 939.551C2543.37 943.368 2549.66 946.69 2557.16 949.517C2564.79 952.345 2573.34 954.819 2582.82 956.939L2618.44 965.421C2639.08 970.086 2656.96 976.306 2672.09 984.081C2687.36 991.715 2699.72 1000.97 2709.2 1011.86C2718.67 1022.6 2725.17 1034.97 2728.7 1048.97C2732.24 1062.96 2732.52 1078.66 2729.55 1096.04C2725.03 1123.47 2714.21 1147.01 2697.11 1166.66C2680.15 1186.31 2657.95 1201.36 2630.53 1211.82C2603.24 1222.28 2571.51 1227.51 2535.32 1227.51C2499.13 1227.51 2468.38 1222.07 2443.08 1211.19C2417.91 1200.16 2399.68 1183.55 2388.37 1161.35C2377.06 1139.16 2374.02 1111.17 2379.25 1077.38H2479.55C2477.99 1091.38 2479.76 1103.04 2484.85 1112.37C2490.08 1121.7 2498.14 1128.77 2509.02 1133.58C2519.91 1138.38 2533.05 1140.79 2548.46 1140.79C2562.6 1140.79 2574.97 1138.88 2585.57 1135.06C2596.32 1131.24 2604.87 1125.94 2611.23 1119.16C2617.73 1112.37 2621.69 1104.6 2623.1 1095.83C2624.52 1087.77 2623.18 1080.78 2619.08 1074.84C2615.12 1068.9 2608.33 1063.74 2598.72 1059.36C2589.25 1054.98 2576.81 1051.02 2561.4 1047.48L2517.93 1036.88C2482.02 1028.12 2454.81 1014.12 2436.29 994.896C2417.91 975.67 2411.41 949.588 2416.78 916.65C2421.3 889.649 2432.47 866.041 2450.28 845.825C2468.24 825.61 2490.93 809.919 2518.35 798.751C2545.92 787.441 2576.24 781.787 2609.32 781.787C2642.97 781.787 2671.24 787.512 2694.14 798.963C2717.18 810.272 2733.79 826.246 2743.97 846.886C2754.29 867.384 2757.26 891.345 2752.88 918.77H2652.37ZM2805.25 872.968L2819.67 787.724H3186.73L3172.31 872.968H3040.63L2982.95 1222H2879.47L2937.15 872.968H2805.25ZM3165.9 1222L3237.99 787.724H3540.8L3526.38 872.968H3328.54L3314.12 962.028H3496.48L3482.06 1047.48H3299.7L3285.28 1136.76H3483.12L3468.7 1222H3165.9ZM3628.37 1222H3515.56L3734.19 787.724H3873.93L3948.36 1222H3835.55L3787.84 897.141H3784.44L3628.37 1222ZM3641.95 1051.09H3877.74L3864.17 1130.82H3628.37L3641.95 1051.09ZM3995.11 1222L4067.21 787.724H4172.17L4141.85 971.358H4147.58L4321.46 787.724H4445.08L4259.54 981.537L4375.74 1222H4250.21L4171.33 1051.3L4119.59 1104.95L4100.08 1222H3995.11Z" fill="white"/>
<g clip-path="url(#clip0_141_239)">
<path fill-rule="evenodd" clip-rule="evenodd" d="M358.324 318.668C417.737 271.104 423.421 224.244 367.359 161.56C373.113 214.564 340.985 248.415 309.045 282.068C265.689 327.748 222.678 373.064 275.229 465.426C271.658 387.61 296.863 367.565 348.626 326.399C351.761 323.905 354.994 321.334 358.324 318.668ZM858.012 205.931C798.603 119.119 867.159 71.8778 867.159 71.8778C780.87 97.5311 771.617 161.26 808.391 210.378C817.097 222 825.978 232.053 834.521 241.723C859.407 269.894 881.429 294.821 887.902 345.871C910.248 288.932 879.81 237.771 858.012 205.931ZM1067.99 250.722C1047.91 208.79 1027.67 166.534 1073.39 97.3721C1065.95 151.746 1083.72 184.391 1099.42 213.224C1120.35 251.667 1137.59 283.332 1086.46 350.687C1096.82 310.923 1082.45 280.906 1067.99 250.722ZM1013.03 526.54C1056.99 424.404 1016.85 292.589 906.067 250.556C1006 482.032 673.49 585.875 751.368 329.206C788.895 205.512 741.332 88.8482 623.432 55.936C694.365 166.315 644.8 228.531 591.022 296.037C542.418 357.047 490.372 422.378 520.726 531.49C577.648 688.795 358.312 687.756 418.162 536.334C438.208 485.609 441.212 422.122 358.426 369.395C368.564 434.878 344.29 475.261 311.347 510.247C219.463 607.805 200.646 820 197.41 927.739C226.102 902.56 263.988 881.837 305.846 858.94C316.387 853.174 327.18 847.271 338.141 841.123C417.511 798.526 503.36 768.113 592.386 751.052C793.8 709.324 1011.19 720.216 1173.46 780.518C1221.28 796.744 1263.38 821.133 1296.05 855.115C1290.46 740.468 1264.81 574.534 1240.08 528.76C1230.66 511.322 1220.82 494.746 1211.38 478.864C1173.75 415.504 1142.67 363.177 1171.22 311.139C1116.06 330.575 1077.25 400.781 1105.37 478.235C1166.27 634.903 973.29 618.877 1013.03 526.54ZM1190.6 923.594C1185.1 918.81 1179.21 914.401 1172.98 910.41C1158.67 901.143 1143.26 893.452 1127.05 887.484C987.019 836.034 795.48 826.385 616.725 863.28C540.648 877.886 467.276 903.852 399.405 940.187C369.505 954.747 343.014 974.568 321.281 998.361L355.465 1010.79C505.168 1000.88 650.897 986.147 874.281 927.205C979.682 899.39 1100.14 909.876 1190.6 923.594Z" fill="url(#paint0_linear_141_239)"/>
<path opacity="0.5" fill-rule="evenodd" clip-rule="evenodd" d="M1235.87 1001.11L745.68 1012.09L302.176 1022.03C326.639 987.605 360.074 959.345 399.408 940.191C467.279 903.856 540.65 877.891 616.728 863.284C795.483 826.389 987.021 836.038 1127.05 887.488C1143.27 893.456 1158.67 901.147 1172.98 910.414C1193.13 923.317 1209.67 940.582 1221.26 960.811C1228.38 973.432 1233.3 987.036 1235.87 1001.11ZM221.676 908.664C250.952 883.177 289.001 861.464 335.711 835.268C415.082 792.671 503.362 768.117 592.389 751.056C793.802 709.328 1011.19 720.22 1173.46 780.522C1207.05 791.92 1237.84 805.852 1264.51 824.319C1255.55 753.122 1240.43 682.708 1215.97 655.298C1187.81 623.747 1162.81 585.384 1177.23 527.786C1136.9 555.685 1126.58 582.7 1125.37 606.324C1118.2 745.51 923.044 736.35 955.972 582.321C958.084 572.447 962.257 561.603 966.604 550.306C976.798 523.812 987.952 494.824 975.741 470.007C964.589 500.2 942.278 517.624 921.355 533.965C892.057 556.846 865.48 577.603 876.071 628.318C892.209 705.61 818.057 718.149 831.391 637.617C837.029 603.584 821.609 576.975 768.41 560.713C788.05 616.142 771.159 676.177 705.797 699.709C745.506 627.26 707.188 569.648 674.529 520.543C653.698 489.222 635.168 461.362 640.654 435.32C574.207 482.961 583.96 526.365 594.041 571.229C598.48 590.985 602.983 611.024 601.07 631.833C591.612 734.823 421.098 754.949 390.502 651.643C390.502 651.643 372.467 701.272 379.681 730.494C345.846 698.841 359.157 664.214 372.741 628.878C384.343 598.697 396.144 567.999 378.939 538.194C366.493 566.804 348.669 587.545 329.32 605.432C282.78 648.456 238.986 794.026 221.676 908.664Z" fill="url(#paint1_linear_141_239)"/>
<path fill-rule="evenodd" clip-rule="evenodd" d="M348.296 457.37C359.112 433.36 363.88 405.096 358.337 369.312C414.187 404.868 430.991 445.326 429.869 483.455C418.229 465.471 402.781 435.554 376.727 420.486C369.868 433.609 357.063 448.92 348.295 457.37L348.296 457.37ZM569.297 323.651C629.22 244.351 703.88 181.117 623.38 55.8884C741.297 88.8029 788.867 205.45 751.335 329.12C750.009 333.486 748.827 337.716 747.736 341.868C723.001 368.497 693.354 377.725 693.354 377.725C693.354 377.725 747.872 279.42 710.003 207.225C703.947 230.661 681.886 259.488 622.832 288.242C601.887 298.435 584.23 310.515 569.297 323.651V323.651ZM821.951 147.266C821.951 147.266 809.253 181.199 817.774 222.254C814.629 218.437 811.492 214.479 808.374 210.315C771.586 161.205 780.848 97.4844 867.142 71.8416C867.142 71.8416 814.583 108.049 841.388 175.319C832.912 165.554 825.513 155.515 821.951 147.266V147.266ZM906.055 250.48C950.306 267.272 983.278 298.388 1004.13 336.202C1021.23 383.349 1008.17 422.652 1008.17 422.652C1008.17 422.652 1006.74 390.037 951.96 341.731C943.754 370.627 926.756 385.571 914.481 392.901C929.056 355.114 930.271 306.563 906.055 250.48ZM1107 482.478C1106.47 481.037 1105.96 479.61 1105.39 478.135C1077.26 400.691 1116.07 330.495 1171.24 311.061C1149.49 350.696 1162.36 390.501 1186.36 435.229C1172.97 423.453 1158.45 408.314 1146.88 390.308C1146.88 390.308 1112.3 429.794 1107 482.478ZM1075.91 267.554C1078.22 255.003 1079.22 236.93 1076.08 211.599C1073.84 193.467 1075.35 179.04 1078.62 167.685C1072.55 148.502 1069.48 125.927 1073.4 97.3247C1021.55 175.746 1054.53 219.565 1075.91 267.554V267.554ZM289.595 302.906C312.078 286.862 337.581 270.858 363.454 259.025C363.909 258.822 364.333 258.612 364.778 258.402C356.118 316.246 319.797 349.887 319.797 349.887L319.8 349.887C330.689 340.302 343.513 330.379 358.236 318.592C417.657 271.034 423.341 224.181 367.273 161.505C374.208 225.411 326.075 261.472 289.596 302.906L289.595 302.906" fill="url(#paint2_linear_141_239)"/>
<path d="M1274.62 1071.02C1269.89 1035.97 1256.87 1002.56 1236.65 973.562C1200.03 924.486 1147.08 890.116 1087.35 876.641C917.259 831.441 697.869 844.988 501.178 912.663C415.38 940.637 334.623 982.218 261.997 1035.82C201.905 1077.51 156.999 1137.62 134.062 1207.08L86.2932 1387.61C77.3007 1417.82 77.7426 1450.05 87.5599 1479.98C110.452 1542.95 146.402 1600.35 193.047 1648.41C270.987 1727.27 369.466 1782.69 477.319 1808.39C594.602 1840.58 693.275 1830.66 778 1781.11C852.917 1737.11 908.577 1668.59 967.282 1596C1023.08 1526.66 1081.06 1454.88 1157.88 1405.03C1184.75 1388.47 1204.53 1362.54 1213.4 1332.25L1273.7 1105.48C1276.33 1094.17 1276.64 1082.45 1274.62 1071.02V1071.02Z" fill="#3B2314"/>
<path d="M298.529 1812.1C240.662 1781.76 188.052 1742.3 142.714 1695.25C89.5523 1640.29 48.5452 1574.76 22.356 1502.91C7.94428 1460.35 6.91303 1414.38 19.4009 1371.2L67.4811 1190.5C87.4527 1114.9 138.504 1044.98 219.645 982.6C297.968 924.781 385.082 879.956 477.641 849.849C686.565 778.196 920.629 764.124 1103.34 812.636C1178.08 830.129 1244.18 873.586 1289.88 935.276C1317.09 973.347 1334.79 1017.39 1341.5 1063.72C1344.02 1083.97 1342.49 1104.51 1337.01 1124.17L1276.74 1351.08C1263.8 1396.79 1234.47 1436.12 1194.36 1461.57C1125.82 1505.78 1071.28 1573.26 1018.81 1637.95C958.913 1712.16 896.829 1788.81 811.361 1839.03C710.558 1897.88 595.03 1908.86 459.9 1873.26C403.941 1859.13 349.795 1838.61 298.529 1812.1ZM1122.73 959.623C1106.01 950.876 1088.36 944.047 1070.12 939.265C912.536 898.067 706.297 910.406 520.855 973.841C441.763 999.6 367.305 1037.88 300.316 1087.22C251.364 1120.31 214.475 1168.41 195.205 1224.28L147.359 1405.1C141.879 1422.44 141.734 1441.02 146.942 1458.43C166.893 1512.66 197.955 1562.12 238.134 1603.62C308.008 1673.44 395.803 1722.59 491.844 1745.65C593.134 1772.32 672.854 1765.74 742.149 1724.62C806.992 1686.82 858.62 1622.59 913.641 1554.77C972.937 1481.13 1034.29 1405.29 1120.6 1349.54C1133.61 1341.84 1143.36 1329.65 1148 1315.27L1208.27 1088.36C1209.17 1085.58 1209.59 1082.68 1209.54 1079.76C1206.05 1054.89 1196.62 1031.22 1182.06 1010.77C1166.58 989.292 1146.25 971.771 1122.73 959.623V959.623Z" fill="#F1743A"/>
<path d="M476.166 1801.51C369.688 1775.94 272.46 1721.18 195.393 1643.38C149.415 1596.02 113.934 1539.48 91.2636 1477.47C81.9991 1448.8 81.6482 1418 90.257 1389.12L138.026 1208.59C160.411 1140.13 204.731 1080.96 264.122 1040.23C336.07 987.089 416.056 945.813 501.039 917.972C696.771 850.984 914.377 837.986 1083.43 882.336C1141.65 895.442 1193.27 928.899 1229.01 976.692C1248.94 1004.84 1261.82 1037.37 1266.57 1071.54C1267.98 1082.21 1267.12 1093.05 1264.06 1103.37L1203.76 1330.14C1195.46 1358.79 1176.74 1383.31 1151.28 1398.85C1073.27 1449.27 1014.81 1521.39 959.697 1591.69C904.586 1662 846.415 1731.88 772.925 1775.44C689.407 1823.84 592.888 1832.51 476.166 1801.51Z" fill="#D5A763"/>
<path d="M498.939 1655.24C220.558 1581.72 144.53 1344.64 180.895 1207.66C204.117 1132.53 253.86 1068.4 320.847 1027.22C391.883 980.822 469.669 945.706 551.439 923.124C707.62 876.728 893.964 857.941 1004.69 877.701C1020.52 880.501 1035.79 883.801 1050.49 887.6C1104.06 899.582 1153.65 925.104 1194.54 961.728C1215.58 981.569 1230.78 1006.8 1238.5 1034.69C1246.21 1062.57 1246.14 1092.04 1238.3 1119.9C1210.59 1224.72 1126.69 1274.41 1051.34 1316.39C1024.59 1331.2 998.606 1347.35 973.491 1364.8C938.216 1395.42 908.697 1432.1 886.332 1473.11C853.618 1532.88 808.774 1585.16 754.682 1626.58C686.198 1673.08 602.286 1682.75 498.939 1655.24Z" fill="#F9E5D2"/>
<path d="M351.803 1065.73C397.018 1035.85 445.608 1011.43 496.559 992.981C493.011 1089.38 434.278 1158.06 373.941 1224.71C355.839 1173.78 348.307 1119.69 351.803 1065.73V1065.73ZM881.844 1052.88C886.901 1043.42 892.841 1034.46 899.584 1026.12C919.958 998.843 947.017 977.276 978.146 963.505C1009.27 949.734 1043.42 944.223 1077.29 947.506C1050.82 937.736 1023.48 930.472 995.645 925.81C919.48 916.054 842.329 916.841 766.366 928.15C775.3 1030.85 849.114 1049.3 881.844 1052.88V1052.88ZM350.578 1249.68C334.148 1190.69 333.162 1128.45 347.714 1068.95C291.047 1103.54 248.63 1157.28 228.15 1220.45C214.878 1281.52 222.319 1345.26 249.299 1401.6C271.985 1344.51 306.363 1292.8 350.221 1249.79L350.578 1249.68ZM889.427 1223.57C877.183 1303.11 852.484 1380.25 708.526 1418.78C890.816 1336.02 840.936 1212.54 863.65 1104.19C834.716 1091.37 808.5 1073.13 786.41 1050.47C712.728 1092.13 624.761 1037.82 560.676 1138.62C586.75 1032.94 713.225 1060.73 763.148 1020.54C746.946 993.64 740.01 962.165 743.403 930.934C659.412 942.791 576.884 963.392 497.163 992.404C510.037 1204.42 309.217 1266.93 274.453 1446.57C330.281 1528.32 414.873 1585.98 511.356 1608.07L524.854 1611.33C545.515 1449.31 462.224 1417.19 462.224 1417.19C475.614 1417.45 488.717 1421.1 500.307 1427.81C511.896 1434.52 521.594 1444.06 528.491 1455.54C546.921 1447.97 566.97 1445.22 586.751 1447.54C569.483 1454.67 554.451 1466.32 543.235 1481.26C561.702 1525.37 572.81 1572.22 576.117 1619.94C803.171 1642.11 826.898 1409.43 945.139 1324.73C969.953 1307.08 995.709 1290.8 1022.29 1275.95C997.585 1278.3 972.675 1274.8 949.574 1265.74C926.473 1256.68 905.828 1242.31 889.304 1223.8L889.427 1223.57ZM1034.27 1137.12C1034.27 1137.12 1144.07 1105.61 1183.66 1027.39C1176.18 1013.78 1166.36 1001.61 1154.64 991.422C1111.44 986.188 996.847 980.511 937.84 1055.92C917.063 1084.29 903.82 1117.47 899.352 1152.35C910.323 1188.03 949.054 1268.26 1067.39 1250.52C1123.78 1216.15 1172.02 1177.45 1190.9 1106.79C1192.6 1100.26 1193.82 1093.62 1194.55 1086.92C1146.71 1118.38 1091.11 1135.99 1033.9 1137.82L1034.27 1137.12Z" fill="#D4243A"/>
<path d="M439.155 1622.72C439.155 1622.72 323.303 1539.32 294.967 1625.58C272.697 1694.75 296.468 1713 381.665 1754.5C466.862 1795.99 641.073 1836.8 730.957 1783.7C803.434 1743.71 865.244 1686.88 911.169 1617.99C959.998 1548.84 988.632 1353.71 902.571 1445.27C872.677 1476.95 701.565 1728.12 439.155 1622.72Z" fill="#F9E5D2"/>
<path d="M1137.94 1277.43C1137.94 1277.43 1120.93 1384.03 1095.85 1426.91C1070.77 1469.8 1165.97 1355.88 1165.97 1355.88L1214.42 1232.17L1137.94 1277.43Z" fill="#AC6A28"/>
<path d="M1274.62 1071.02C1269.89 1035.97 1256.87 1002.56 1236.65 973.562C1200.03 924.486 1147.08 890.116 1087.35 876.641C917.259 831.441 697.869 844.988 501.178 912.663C415.38 940.637 334.623 982.218 261.997 1035.82C201.905 1077.51 156.999 1137.62 134.062 1207.08L86.2932 1387.61C77.3007 1417.82 77.7426 1450.05 87.5599 1479.98C110.452 1542.95 146.402 1600.35 193.047 1648.41C270.987 1727.27 369.466 1782.69 477.319 1808.39C594.602 1840.58 693.275 1830.66 778 1781.11C852.917 1737.11 908.577 1668.59 967.282 1596C1023.08 1526.66 1081.06 1454.88 1157.88 1405.03C1184.75 1388.47 1204.53 1362.54 1213.4 1332.25L1273.7 1105.48C1276.33 1094.17 1276.64 1082.45 1274.62 1071.02V1071.02ZM1136.29 1374.19C1053.97 1427.11 994.165 1501.2 936.31 1572.74C821.74 1712.55 723.604 1835.96 484.633 1773.13C230.189 1705.7 145.238 1537.39 120.539 1467.86C113.329 1444.98 113.202 1420.44 120.175 1397.47L138.412 1329.16C153.539 1401.74 188.732 1468.59 239.986 1522.12C291.24 1575.64 356.495 1613.69 428.322 1631.92C176.132 1513.41 179.032 1313.32 183.924 1225.1L188.069 1209.37C215.775 1104.55 323.921 1012.43 511.943 947.035C699.965 881.643 927.379 863.082 1076.73 911.943C1203.95 953.57 1230.58 1016.05 1237.92 1076.09C1238.07 1078.09 1238.11 1080.11 1238.01 1082.11C1237.27 1083.51 1236.53 1084.91 1237.53 1087.53C1236.29 1089.87 1235.91 1096.24 1235.91 1096.24C1170.56 1337.06 982.022 1237.59 849.796 1526.97C1009.42 1307.65 1104.26 1355.74 1194.62 1252.11L1175.61 1323.01C1169.3 1344.35 1155.29 1362.59 1136.29 1374.19Z" fill="#3B2314"/>
<path d="M684.317 1166.74C653.512 1159.65 621.305 1161.71 591.64 1172.66C561.357 1182.52 534.674 1201.14 514.966 1226.18C506.572 1236.63 500.243 1248.59 496.32 1261.41C493.219 1272.92 485.054 1304.14 485.054 1304.14C483.016 1314.95 484.405 1326.13 489.029 1336.11C494.033 1348.89 502.169 1360.2 512.689 1369C523.21 1377.81 535.776 1383.82 549.231 1386.49C580.027 1393.68 612.266 1391.62 641.909 1380.57C672.246 1370.75 699.006 1352.17 718.816 1327.17C725.844 1318.78 731.02 1309 734.004 1298.47C737.297 1288.86 743.198 1263.61 744.118 1259.61C748.38 1245.53 747.988 1230.44 742.997 1216.6C738.124 1204.07 730.209 1192.95 719.965 1184.24C709.721 1175.54 697.47 1169.52 684.317 1166.74V1166.74Z" fill="#3B2314"/>
<path d="M680.561 1181.15C691.623 1183.34 701.97 1188.23 710.679 1195.39C719.389 1202.55 726.19 1211.76 730.476 1222.2C744.519 1262.78 707.119 1312.59 647.02 1333.66C619.949 1343.59 590.571 1345.38 562.504 1338.82C551.409 1336.76 541.011 1331.95 532.267 1324.81C523.522 1317.68 516.713 1308.46 512.466 1298.01C498.19 1257.3 535.713 1207.25 595.922 1186.54C623 1176.48 652.434 1174.6 680.561 1181.15Z" fill="#F9E5D2"/>
<path d="M649.864 1222.24C655.164 1223.26 660.128 1225.59 664.311 1229C668.495 1232.41 671.768 1236.81 673.84 1241.79C680.588 1261.2 662.56 1285.11 633.642 1295.2C620.676 1300.03 606.586 1300.98 593.092 1297.94C587.781 1296.89 582.816 1294.53 578.65 1291.08C574.483 1287.62 571.248 1283.17 569.239 1278.15C562.259 1258.62 580.286 1234.71 609.204 1224.62C622.239 1219.88 636.37 1219.06 649.864 1222.24V1222.24Z" fill="#3B2314"/>
<path d="M624.173 1518.43C625.902 1515.16 628.495 1510.26 630.224 1506.99C634.905 1503.65 639.915 1500.8 645.177 1498.48L646.042 1496.84L646.782 1495.44L650.116 1494.22L657.496 1491.55C667.483 1488.47 676.619 1486.44 685.756 1484.4C694.892 1482.37 703.658 1481.03 712.561 1478.87C721.398 1476.99 730.065 1474.39 738.474 1471.08C747.506 1467.34 755.274 1461.08 760.85 1453.05C765.389 1444.68 767.025 1435.04 765.503 1425.64C766.435 1431.21 765.474 1436.98 766.05 1442.66C766.205 1448.64 765.184 1454.59 763.044 1460.18C761.059 1466.15 758.096 1471.75 754.276 1476.75C746.323 1487.45 735.31 1495.48 722.696 1499.77C707.016 1504.02 696.33 1506.73 690.143 1508.83C683.956 1510.93 682.982 1512.21 686.549 1511.11C681.789 1512.77 679.552 1517.56 675.244 1520.06C671.162 1521.82 666.838 1522.96 662.418 1523.43L659.455 1523.95L658.056 1523.21L652.363 1524.38C652.363 1524.38 650.264 1528.35 647.918 1527.71C642.797 1528.8 637.784 1530.34 632.938 1532.33C631.215 1533.07 629.692 1534.21 628.493 1535.65C628.493 1535.65 628.493 1535.65 627.752 1537.05C628.662 1537.91 629.791 1538.51 631.017 1538.78L628.534 1538.96C629.955 1540.76 631.627 1542.35 633.499 1543.67C631.015 1544.23 628.447 1544.29 625.94 1543.86C624.418 1543.38 622.996 1542.62 621.743 1541.64C619.867 1540.31 618.465 1538.41 617.738 1536.23C616.864 1534.01 616.594 1531.6 616.957 1529.25C617.671 1527.44 618.582 1525.72 619.673 1524.11C620.993 1522.08 622.5 1520.18 624.173 1518.43V1518.43Z" fill="#F16E7E"/>
<path d="M335.397 1404.78C334.246 1402.15 333.283 1399.45 332.517 1396.68C331.634 1393.56 331.63 1390.25 332.504 1387.12C334.24 1379.48 337.201 1372.17 341.272 1365.47C344.97 1359.6 349.044 1353.97 353.468 1348.63C361.785 1339.39 370.743 1330.76 380.275 1322.79C389.426 1315.08 398.563 1307.97 407.823 1300.62C417.083 1293.28 426.11 1285.81 434.684 1277.5C443.616 1268.72 450.34 1257.94 454.304 1246.06C455.99 1240.17 456.094 1233.94 454.607 1228C452.996 1221.93 450.245 1216.21 446.502 1211.17C448.701 1214.02 450.569 1217.11 452.07 1220.39L456.088 1230.28C458.85 1237.23 459.692 1244.79 458.528 1252.18C457.388 1259.85 455.146 1267.32 451.873 1274.35C446.178 1289.48 436.96 1303.03 424.982 1313.88C414.039 1322.55 403.686 1331.94 393.991 1341.99C388.668 1347.54 387.913 1349.53 391.645 1346.43C387.172 1350.93 386.335 1356.46 383.619 1361.59C380.332 1366.05 376.639 1370.2 372.588 1373.98C368.731 1377.21 365.277 1380.9 362.299 1384.96C361.684 1386.91 360.722 1388.73 359.459 1390.33C355.958 1394.92 353.788 1400.39 353.188 1406.13C353.191 1413.57 356.019 1420.72 361.101 1426.15L358.07 1424.54C359.186 1427.1 360.469 1429.57 361.91 1431.95C356.137 1430.2 350.754 1427.35 346.053 1423.56C341.091 1418.21 337.442 1411.78 335.397 1404.78V1404.78Z" fill="#F16E7E"/>
<path d="M630.507 1121.19C633.141 1119.6 636.187 1115.54 640.083 1115.51C644.744 1114.66 649.447 1114.06 654.171 1113.7L660.44 1113.14L663.28 1112.85L666.476 1112.45C675.309 1111.56 684.185 1111.17 693.061 1111.28C710.29 1111.44 726.903 1112.76 744.475 1113.4C763.256 1113.71 781.914 1110.28 799.361 1103.31C794.288 1105.09 789.315 1107.15 784.462 1109.46C775.191 1115.01 765.53 1119.88 755.558 1124.04C745.465 1129.47 734.316 1132.64 722.881 1133.33C712.754 1132.75 702.595 1133.07 692.524 1134.3C686.954 1135.23 685.637 1136.03 688.834 1135.63C684.334 1136.24 681.521 1140.42 677.351 1142.1L671.192 1143.02L664.47 1142.75L651.877 1141.17C651.877 1141.17 647.583 1143.08 646.417 1142.46C641.501 1141.23 636.518 1140.29 631.493 1139.64C628.869 1139.15 626.174 1139.2 623.567 1139.77C620.959 1140.33 618.491 1141.42 616.307 1142.95C616.605 1142.22 616.977 1141.51 617.418 1140.85C615.346 1141.33 613.345 1142.08 611.465 1143.08C612.491 1138.35 614.797 1133.99 618.133 1130.48C622.047 1127.11 626.181 1124.01 630.507 1121.19V1121.19Z" fill="#F16E7E"/>
<path d="M951.253 1129.29C951.007 1124.01 952.232 1118.76 954.794 1114.13C958.504 1107.94 963.088 1102.32 968.404 1097.44C968.759 1096.54 969.214 1095.67 969.762 1094.87L970.626 1093.24L971.367 1091.84L976.155 1089C979.182 1087.33 982.333 1085.9 985.579 1084.72C997.168 1080.48 1009.25 1077.74 1021.53 1076.57C1044.73 1073.91 1066.91 1074.29 1089.75 1071.74C1102.27 1070.54 1114.4 1066.8 1125.42 1060.75C1130.42 1057.78 1134.86 1053.96 1138.55 1049.47C1142.36 1044.79 1145.22 1039.39 1146.95 1033.6C1144.61 1040 1141.41 1046.04 1137.44 1051.57C1134.06 1057.79 1129.53 1063.3 1124.08 1067.8C1118.32 1072.48 1112.14 1076.61 1105.61 1080.13C1092.57 1088 1078.01 1093.02 1062.89 1094.87C1049.8 1095.42 1036.78 1097.02 1023.95 1099.65C1017.06 1101.38 1015.5 1102.64 1019.53 1101.79C1013.84 1102.96 1011.01 1107.74 1006.35 1110.35C1002.02 1112.29 997.518 1113.81 992.902 1114.88L989.925 1116C988.071 1116.97 986.34 1118.16 984.767 1119.54C983.971 1121.6 982.935 1123.56 981.68 1125.37C976.756 1128.85 972.464 1133.15 968.99 1138.07C968.103 1139.18 967.433 1140.45 967.014 1141.81C966.066 1142.77 965.422 1143.99 965.162 1145.31C965.077 1146.92 965.393 1148.52 966.079 1149.98C966.766 1151.44 967.803 1152.7 969.098 1153.66L966.533 1152.31C967.649 1154.79 969.387 1156.95 971.58 1158.56C968.561 1158.46 965.6 1157.71 962.897 1156.36C959.696 1154.58 957.058 1151.95 955.285 1148.74C954.319 1146.99 953.607 1145.1 953.172 1143.15L952.418 1140.06C952.432 1139.1 952.335 1138.15 952.131 1137.22C950.155 1135.87 949.772 1132.09 951.253 1129.29Z" fill="#F16E7E"/>
<path d="M812.299 1211.43C811.434 1213.06 814.891 1216.68 813.779 1218.78C810.431 1230.75 808.358 1243.69 804.969 1257.43C803.095 1264.69 800.64 1271.78 797.628 1278.64C794.512 1286.01 790.206 1292.81 784.882 1298.78C779.341 1305.17 772.748 1310.58 765.388 1314.75C758.342 1318.58 750.911 1321.66 743.219 1323.93C747.684 1323.02 751.91 1321.19 755.62 1318.54C762.245 1312.48 767.49 1305.07 771 1296.81C772.215 1292.98 773.097 1289.04 773.635 1285.06C773.985 1281.07 775.035 1277.18 776.736 1273.56C778.657 1269.43 780.143 1265.11 781.168 1260.67C781.862 1257.65 782.289 1254.58 782.445 1251.49C782.788 1246.89 782.226 1245.7 781.924 1248.52C783.529 1245.49 778.783 1241.49 778.166 1237.58C779.174 1230.1 781.928 1222.96 786.207 1216.74C785.669 1215.03 785.796 1213.17 786.564 1211.55C789.833 1207.71 793.347 1204.08 797.086 1200.69C801.018 1197.32 804.73 1193.69 808.199 1189.84L807.211 1191.71L811.985 1189.46C811.293 1196.77 811.399 1204.14 812.299 1211.43V1211.43Z" fill="#F16E7E"/>
<g opacity="0.85">
<path d="M263.16 1273.84C263.16 1273.84 265.026 1274.83 264.559 1274.58C264.093 1274.33 263.544 1272.55 263.682 1271.72C263.819 1270.9 265.932 1271.42 265.712 1270.71C265.493 1269.99 262.736 1266.74 262.214 1268.86L262.214 1273.93C262.71 1275.56 263.027 1277.23 263.16 1278.92C263.16 1278.92 263.16 1278.92 263.16 1278.92L263.901 1277.52C263.901 1277.52 263.366 1275.14 263.16 1273.84Z" fill="#F16E7E"/>
<path d="M263.888 1287.72C265.52 1288.58 266.151 1286.82 265.246 1285.15C264.601 1285.14 263.962 1285.27 263.368 1285.52C262.774 1285.77 262.236 1286.14 261.789 1286.61C261.789 1286.61 263.298 1287.7 263.888 1287.72Z" fill="#F16E7E"/>
<path d="M273.986 1260.2L274.727 1258.8C274.727 1258.8 273.766 1259.48 273.986 1260.2Z" fill="#F16E7E"/>
</g>
<g opacity="0.85">
<path d="M414.192 1392.37L413.204 1394.23C413.204 1394.23 414.535 1392.85 414.192 1392.37Z" fill="#F16E7E"/>
<path d="M421.068 1400.81C421.068 1400.81 419.435 1399.95 420.45 1401.98C420.839 1403.56 420.881 1405.22 420.573 1406.82C420.573 1406.82 417.953 1407.82 419.215 1409.39C420.477 1410.95 420.943 1416.28 421.711 1413.7C422.48 1411.12 422.562 1407.57 423.468 1404.17C424.374 1400.77 423.249 1398.38 423.441 1395.2C423.635 1394.51 423.971 1393.87 424.429 1393.33C424.049 1394.32 423.552 1395.26 422.947 1396.13C419.175 1395.93 420.89 1398.33 421.068 1400.81Z" fill="#F16E7E"/>
<path d="M420.061 1378.44C419.196 1380.07 418.455 1381.47 417.838 1382.64C418.652 1382.05 419.32 1381.28 419.791 1380.39C420.262 1379.5 420.523 1378.51 420.554 1377.51C420.554 1377.51 420.541 1378.1 420.061 1378.44Z" fill="#F16E7E"/>
<path d="M411.477 1407.63C410.228 1412 408.748 1416.3 407.045 1420.52C407.045 1420.52 407.045 1420.52 407.045 1420.52C407.045 1420.52 407.045 1420.52 406.427 1421.68L405.316 1423.78C405.171 1424.39 404.873 1424.95 404.452 1425.42C404.662 1424.83 404.953 1424.28 405.316 1423.78L403.217 1427.75C403.217 1427.75 402.352 1429.38 401.859 1430.32L400.253 1433.35L401.145 1435.61L400.527 1436.78C400.801 1436.79 401.068 1436.87 401.31 1436.99C401.552 1437.12 401.763 1437.3 401.926 1437.52C402.745 1437.12 403.51 1436.63 404.204 1436.04C404.204 1436.04 401.639 1434.68 405.315 1433.94C402.709 1434.35 406.097 1435.84 404.204 1436.04C403.51 1436.63 402.745 1437.12 401.926 1437.52C401.926 1437.52 400.939 1439.39 400.198 1440.79C399.457 1442.19 401.309 1438.69 401.926 1437.52C401.763 1437.3 401.552 1437.12 401.31 1436.99C401.068 1436.87 400.801 1436.79 400.527 1436.78L401.145 1435.61L400.253 1433.35L398.565 1439.92C396.862 1447.21 396.726 1454.77 398.166 1462.12C399.66 1469.94 403.056 1477.28 408.054 1483.48L412.182 1488.65L417.148 1493.37L426.763 1501.14C432.764 1505.34 438.977 1509.23 445.377 1512.79C448.276 1514.58 450.959 1516.7 453.374 1519.11C455.855 1521.2 457.71 1523.94 458.737 1527.02C459.518 1528.9 460.463 1530.7 461.562 1532.4C461.562 1532.4 461.562 1532.4 462.961 1533.14C465.469 1534.78 468.123 1536.19 470.89 1537.34C472.85 1538.03 474.932 1538.32 477.008 1538.19C478.86 1538 480.583 1537.15 481.854 1535.79C483.124 1534.43 483.855 1532.65 483.909 1530.78C483.65 1525.87 482.934 1520.99 481.77 1516.21C482.73 1520.6 480.041 1519.48 478.56 1517.2C475.752 1514.11 473.841 1510.31 473.033 1506.21C472.343 1503.17 470.927 1500.35 468.906 1497.98C466.885 1495.61 464.319 1493.76 461.429 1492.6C455.986 1490.32 450.758 1487.55 445.805 1484.34C443.24 1482.98 440.908 1481.75 438.11 1480.27L429.29 1473.81L427.424 1472.82L425.792 1471.96L422.061 1469.98C417.688 1465.97 415.064 1460.39 414.751 1454.46C414.353 1451.27 412.186 1448.03 411.213 1444.23C411.483 1441.79 412.136 1439.42 413.148 1437.19C413.576 1434.06 413.65 1430.89 413.368 1427.74C411.886 1430.54 412.997 1433.52 412.681 1436.94C412.365 1440.36 409.65 1435.34 409.705 1432.97C409.76 1430.61 412.092 1431.85 410.94 1430.64C409.788 1429.43 410.652 1427.8 410.46 1425.91C410.268 1424.01 411.859 1426.65 411.077 1424.74C410.296 1422.83 408.595 1419.84 409.679 1418.92C410.763 1418 410.667 1417.06 411.16 1416.12C411.573 1415.65 411.87 1415.09 412.025 1414.49V1414.49L409.926 1413.38C409.926 1413.38 410.667 1411.98 410.914 1411.51C411.161 1411.04 410.173 1412.91 409.926 1413.38L412.025 1414.49C413.151 1412.29 414.383 1410.15 415.716 1408.08V1408.08C415.519 1410.08 414.543 1411.92 412.999 1413.21C412.999 1413.21 412.999 1413.21 412.999 1413.21C413.74 1411.81 412.849 1409.55 415.345 1408.78C415.345 1408.78 415.345 1408.78 416.744 1409.52C418.143 1410.26 416.744 1409.52 416.744 1409.52C415.092 1408.63 413.317 1407.99 411.477 1407.63Z" fill="#F16E7E"/>
</g>
</g>
<defs>
<linearGradient id="paint0_linear_141_239" x1="745.647" y1="1358.44" x2="790.141" y2="468.709" gradientUnits="userSpaceOnUse">
<stop stop-color="#DF3F27"/>
<stop offset="1" stop-color="#FFAA50"/>
</linearGradient>
<linearGradient id="paint1_linear_141_239" x1="747.756" y1="1114.88" x2="743.524" y2="624.186" gradientUnits="userSpaceOnUse">
<stop stop-color="#C81109"/>
<stop offset="1" stop-color="#EF6034"/>
</linearGradient>
<linearGradient id="paint2_linear_141_239" x1="739.885" y1="197.732" x2="739.393" y2="150.584" gradientUnits="userSpaceOnUse">
<stop stop-color="#FFBB3F"/>
<stop offset="1" stop-color="#FFBD2E"/>
</linearGradient>
<clipPath id="clip0_141_239">
<rect width="1335" height="1894.24" fill="white" transform="translate(6)"/>
</clipPath>
</defs>
</svg>
